<svg xmlns="http://www.w3.org/2000/svg" viewBox="0 0 249 230.51"><defs><style>.cls-1{fill:#f99f1d;}.cls-2{fill:#007f7f;}.cls-3{fill:#2b999a;}.cls-4{fill:#f06524;}.cls-5{fill:#ce2029;}.cls-6{fill:#ab1f24;}.cls-7{fill:#fff;}</style></defs><title>donotswear_2</title><g id="Layer_2" data-name="Layer 2"><g id="Venue"><rect class="cls-1" y="25.51" width="249" height="205"/><rect class="cls-2" x="128.86" y="-0.09" width="25.58" height="25.76" transform="translate(128.86 154.44) rotate(-90)"/><rect class="cls-3" x="103.09" y="-0.09" width="25.58" height="25.76" transform="translate(103.09 128.68) rotate(-90)"/><rect class="cls-1" x="77.33" y="-0.09" width="25.58" height="25.76" transform="translate(77.33 102.92) rotate(-90)"/><rect class="cls-4" x="51.57" y="-0.09" width="25.58" height="25.76" transform="translate(51.57 77.15) rotate(-90)"/><rect class="cls-5" x="25.81" y="-0.09" width="25.58" height="25.76" transform="translate(25.81 51.39) rotate(-90)"/><rect class="cls-6" x="0.09" y="-0.09" width="25.58" height="25.76" transform="translate(0.09 25.67) rotate(-90)"/><path class="cls-7" d="M32.77,68.51,33.34,65a.94.94,0,0,1,.29-.55.84.84,0,0,1,.57-.19h.48l-.12,4.3Zm3.66,0L37,65a.89.89,0,0,1,.29-.55.79.79,0,0,1,.56-.19h.49l-.12,4.3Z"/><path class="cls-7" d="M45.21,78.63H41V64.21h4.18a13.62,13.62,0,0,1,3.51.37,4.63,4.63,0,0,1,2.08,1.17,4.82,4.82,0,0,1,1.14,2.18,14,14,0,0,1,.36,3.48q0,3.75-1.68,5.49T45.21,78.63Zm4.12-11.47a2.88,2.88,0,0,0-1.47-.9A10,10,0,0,0,45.21,66H43V76.79h2.23c1.9,0,3.23-.4,4-1.22s1.12-2.2,1.12-4.16a12.46,12.46,0,0,0-.23-2.64A3.71,3.71,0,0,0,49.33,67.16Z"/><path class="cls-7" d="M64.81,72.93c0,2.15-.4,3.66-1.19,4.55s-2.14,1.34-4.06,1.34-3.35-.43-4.11-1.29-1.15-2.39-1.15-4.6.39-3.68,1.18-4.57S57.63,67,59.56,67s3.35.43,4.11,1.29S64.81,70.72,64.81,72.93Zm-8.63,0a5.65,5.65,0,0,0,.67,3.34,3.41,3.41,0,0,0,2.71.82,3.32,3.32,0,0,0,2.67-.86,5.61,5.61,0,0,0,.69-3.3,5.87,5.87,0,0,0-.65-3.35,3.43,3.43,0,0,0-2.71-.82,3.39,3.39,0,0,0-2.69.85A5.62,5.62,0,0,0,56.18,72.91Z"/><path class="cls-7" d="M73.13,78.63H71.25V67.27h1.63l.09,1.1H73a7,7,0,0,1,1.92-1A7.48,7.48,0,0,1,77.2,67a4,4,0,0,1,2.87.94,3.72,3.72,0,0,1,1,2.79v7.86H79.16V71a2.17,2.17,0,0,0-.64-1.71,3,3,0,0,0-2-.55,5.62,5.62,0,0,0-1.69.27,7.46,7.46,0,0,0-1.72.77Z"/><path class="cls-7" d="M94,72.93c0,2.15-.39,3.66-1.18,4.55s-2.15,1.34-4.06,1.34-3.35-.43-4.12-1.29-1.15-2.39-1.15-4.6.39-3.68,1.18-4.57S86.8,67,88.73,67s3.34.43,4.1,1.29S94,70.72,94,72.93Zm-8.62,0A5.75,5.75,0,0,0,86,76.25a3.43,3.43,0,0,0,2.72.82,3.29,3.29,0,0,0,2.66-.86,5.59,5.59,0,0,0,.7-3.3,5.77,5.77,0,0,0-.66-3.35,3.42,3.42,0,0,0-2.7-.82,3.37,3.37,0,0,0-2.69.85A5.62,5.62,0,0,0,85.35,72.91Z"/><path class="cls-7" d="M103,76.86v1.59a4.19,4.19,0,0,1-1,.26,7.35,7.35,0,0,1-1.21.11,4,4,0,0,1-3-.92A4.54,4.54,0,0,1,97,74.72V68.88h-1.7V67.27H97l.3-2.76h1.57v2.76h4.05v1.61H98.85v5.77a2.63,2.63,0,0,0,.52,1.91,2.55,2.55,0,0,0,1.82.51,7,7,0,0,0,1-.07C102.51,77,102.8,76.91,103,76.86Z"/><path class="cls-7" d="M112.72,68.74a4.22,4.22,0,0,0-2,.35,1.51,1.51,0,0,0-.56,1.4,1.18,1.18,0,0,0,.26.84,1.43,1.43,0,0,0,.84.38l2.92.44a3,3,0,0,1,1.93.86,3.15,3.15,0,0,1,.56,2.06,3.76,3.76,0,0,1-.95,2.86,4.5,4.5,0,0,1-3.13.89,20.4,20.4,0,0,1-2.43-.14,10.8,10.8,0,0,1-1.87-.37V76.54a12,12,0,0,0,1.81.38,15.73,15.73,0,0,0,2.2.15,3.36,3.36,0,0,0,1.95-.41,1.8,1.8,0,0,0,.53-1.48,1.39,1.39,0,0,0-.3-1,2,2,0,0,0-1.08-.42l-2.92-.44a2.41,2.41,0,0,1-1.65-.85,3.31,3.31,0,0,1-.56-2,3.11,3.11,0,0,1,1.07-2.62,5.37,5.37,0,0,1,3.3-.83c.61,0,1.17,0,1.67,0a15.44,15.44,0,0,1,1.57.18V69c-.4-.06-.86-.11-1.4-.15S113.33,68.74,112.72,68.74Z"/><path class="cls-7" d="M131.12,67.27h2L130,78.63H127.8l-2.48-8.85L123,78.63h-2.21l-3.15-11.36h2.07l2.21,9.59,2.46-9.59h1.88l2.62,9.59Z"/><path class="cls-7" d="M143.49,76.43V78a7,7,0,0,1-1.76.57,11.67,11.67,0,0,1-2.36.24,4.72,4.72,0,0,1-3.82-1.38,7.18,7.18,0,0,1-1.15-4.56,6.75,6.75,0,0,1,1.2-4.45A4.81,4.81,0,0,1,139.42,67a4.74,4.74,0,0,1,3.49,1.09A5.14,5.14,0,0,1,144,71.78c0,.31,0,.59,0,.85s0,.57-.09.94h-7.55a4,4,0,0,0,.77,2.69,3.42,3.42,0,0,0,2.59.81,11.63,11.63,0,0,0,2.07-.19A8.62,8.62,0,0,0,143.49,76.43Zm-1.24-4.9a2.39,2.39,0,0,0-2.83-2.79,3.25,3.25,0,0,0-2.41.73,3.66,3.66,0,0,0-.7,2.54h5.91s0-.1,0-.22S142.25,71.59,142.25,71.53Z"/><path class="cls-7" d="M149,78.82a3.46,3.46,0,0,1-2.57-.84,3.73,3.73,0,0,1-.82-2.66,3.1,3.1,0,0,1,1-2.61,5.61,5.61,0,0,1,3.36-.77c.52,0,1,0,1.54.07a10.23,10.23,0,0,1,1.43.21V71.11a2.29,2.29,0,0,0-.65-1.82,3.15,3.15,0,0,0-2.06-.55c-.71,0-1.33,0-1.87.08a15.45,15.45,0,0,0-1.61.27V67.45a14.76,14.76,0,0,1,1.88-.32c.63-.06,1.36-.09,2.17-.09a4.23,4.23,0,0,1,3,1,3.92,3.92,0,0,1,1,3v7.68h-1.73l-.09-1h-.05a5.59,5.59,0,0,1-1.78.89A7.18,7.18,0,0,1,149,78.82Zm1.17-5.34a4.43,4.43,0,0,0-2.17.38,1.45,1.45,0,0,0-.61,1.35,1.86,1.86,0,0,0,.5,1.46,2.48,2.48,0,0,0,1.66.45,6.69,6.69,0,0,0,1.84-.28,5.13,5.13,0,0,0,1.54-.69V73.71c-.51-.08-1-.13-1.42-.17S150.62,73.48,150.16,73.48Z"/><path class="cls-7" d="M159.64,78.63h-1.89V67.27h1.72l.1,1h.09a7.82,7.82,0,0,1,1.79-.8,6.48,6.48,0,0,1,1.77-.26h.5l.19,0V69a1.89,1.89,0,0,0-.4-.06h-.75a6.78,6.78,0,0,0-1.62.2,6.06,6.06,0,0,0-1.5.58Z"/><path class="cls-7" d="M175,67a3.86,3.86,0,0,1,3.32,1.37,7.69,7.69,0,0,1,1,4.47c0,2.12-.41,3.64-1.24,4.56s-2.22,1.38-4.17,1.38a19.12,19.12,0,0,1-2.46-.15,12.18,12.18,0,0,1-2.09-.45V63.34h1.89v4.71a6.67,6.67,0,0,1,1.77-.74A7.28,7.28,0,0,1,175,67Zm2.43,5.84a5.78,5.78,0,0,0-.65-3.23,2.86,2.86,0,0,0-2.45-.91,6.4,6.4,0,0,0-1.63.22,5.75,5.75,0,0,0-1.45.61v7.2a7.85,7.85,0,0,0,1.15.22,12,12,0,0,0,1.4.08,3.65,3.65,0,0,0,2.89-.9A5.37,5.37,0,0,0,177.41,72.88Z"/><path class="cls-7" d="M182.61,80.66a2,2,0,0,0,1.32-.38,4.58,4.58,0,0,0,1-1.81l-4.65-11.2h2.12l3.49,9.32,3.32-9.32h2l-4.64,12.12a5.25,5.25,0,0,1-1.45,2.31,3.35,3.35,0,0,1-2.14.66,7.83,7.83,0,0,1-.82,0l-.84-.11V80.54a2.43,2.43,0,0,0,.56.09Q182.18,80.66,182.61,80.66Z"/><path class="cls-7" d="M40.11,112.86v1.59a4.33,4.33,0,0,1-1,.26,7.55,7.55,0,0,1-1.21.11,4,4,0,0,1-3-.92,4.55,4.55,0,0,1-.88-3.18v-5.84H32.35v-1.61h1.73l.3-2.76h1.56v2.76H40v1.61H35.94v5.77a2.68,2.68,0,0,0,.52,1.91,2.6,2.6,0,0,0,1.83.51,6.86,6.86,0,0,0,1-.07C39.6,113,39.89,112.91,40.11,112.86Z"/><path class="cls-7" d="M43.85,114.63H42V99.34h1.88v4.85a9.71,9.71,0,0,1,2.06-.86,7.61,7.61,0,0,1,2-.29,3.92,3.92,0,0,1,2.84.94,3.74,3.74,0,0,1,1,2.79v7.86H49.86V107a2.21,2.21,0,0,0-.61-1.72,2.82,2.82,0,0,0-1.9-.54,7.34,7.34,0,0,0-1.76.23,8.88,8.88,0,0,0-1.74.65Z"/><path class="cls-7" d="M63.22,112.43V114a7,7,0,0,1-1.76.57,11.59,11.59,0,0,1-2.36.24,4.68,4.68,0,0,1-3.81-1.38c-.77-.92-1.15-2.44-1.15-4.56a6.75,6.75,0,0,1,1.19-4.45A4.81,4.81,0,0,1,59.15,103a4.74,4.74,0,0,1,3.49,1.09,5.14,5.14,0,0,1,1.06,3.65c0,.31,0,.59,0,.85s0,.57-.09.94H56a4,4,0,0,0,.77,2.69,3.43,3.43,0,0,0,2.59.81,11.63,11.63,0,0,0,2.07-.19A8.44,8.44,0,0,0,63.22,112.43ZM62,107.53a2.39,2.39,0,0,0-2.83-2.79,3.2,3.2,0,0,0-2.4.73A3.6,3.6,0,0,0,56,108H62s0-.1,0-.22S62,107.59,62,107.53Z"/><path class="cls-7" d="M72,114.63H70.07V103.27H71.8l.09.88H72a9.05,9.05,0,0,1,1.84-.84,5.29,5.29,0,0,1,1.66-.27,4.12,4.12,0,0,1,1.65.3,2.39,2.39,0,0,1,1.08.9h.07a8,8,0,0,1,1.95-.89,6.89,6.89,0,0,1,2.05-.31,3.33,3.33,0,0,1,2.48.86,3.53,3.53,0,0,1,.84,2.55v8.18H83.69v-7.95a1.9,1.9,0,0,0-.53-1.47,2.5,2.5,0,0,0-1.68-.47,5.08,5.08,0,0,0-1.35.2,7.43,7.43,0,0,0-1.43.56,3.87,3.87,0,0,1,.06.46c0,.16,0,.32,0,.49v8.18H76.88v-7.95a1.86,1.86,0,0,0-.53-1.47,2.5,2.5,0,0,0-1.68-.47,4.14,4.14,0,0,0-1.21.2,8.83,8.83,0,0,0-1.5.65Z"/><path class="cls-7" d="M98.5,108.93c0,2.15-.39,3.66-1.18,4.55s-2.15,1.34-4.06,1.34-3.35-.43-4.12-1.29S88,111.14,88,108.93s.4-3.68,1.19-4.57S91.33,103,93.26,103s3.34.43,4.1,1.29S98.5,106.72,98.5,108.93Zm-8.62,0a5.75,5.75,0,0,0,.66,3.34,3.43,3.43,0,0,0,2.72.82,3.32,3.32,0,0,0,2.67-.86,5.61,5.61,0,0,0,.69-3.3,5.77,5.77,0,0,0-.66-3.35,3.42,3.42,0,0,0-2.7-.82,3.37,3.37,0,0,0-2.69.85A5.62,5.62,0,0,0,89.88,108.91Z"/><path class="cls-7" d="M111,108.93c0,2.15-.39,3.66-1.18,4.55s-2.15,1.34-4.06,1.34-3.35-.43-4.12-1.29-1.15-2.39-1.15-4.6.39-3.68,1.18-4.57,2.15-1.32,4.09-1.32,3.34.43,4.1,1.29S111,106.72,111,108.93Zm-8.62,0a5.75,5.75,0,0,0,.66,3.34,3.43,3.43,0,0,0,2.72.82,3.31,3.31,0,0,0,2.66-.86,5.61,5.61,0,0,0,.69-3.3,5.78,5.78,0,0,0-.65-3.35,3.42,3.42,0,0,0-2.7-.82,3.37,3.37,0,0,0-2.69.85A5.62,5.62,0,0,0,102.37,108.91Z"/><path class="cls-7" d="M115.38,114.63H113.5V103.27h1.63l.09,1.1h.07a7,7,0,0,1,1.92-1,7.48,7.48,0,0,1,2.24-.32,4,4,0,0,1,2.87.94,3.72,3.72,0,0,1,1,2.79v7.86h-1.89V107a2.17,2.17,0,0,0-.64-1.71,3,3,0,0,0-2-.55,5.62,5.62,0,0,0-1.69.27,7.46,7.46,0,0,0-1.72.77Z"/><path class="cls-7" d="M127.67,112.66l-.58,3.56a.81.81,0,0,1-.26.53.88.88,0,0,1-.57.18h-.6l.12-4.27Z"/><path class="cls-7" d="M34.1,140.88H32.4v-1.61h1.7V139a4,4,0,0,1,1-2.93,4.09,4.09,0,0,1,3-.95c.33,0,.67,0,1,0s.65.08.94.14v1.61a4.9,4.9,0,0,0-.75-.1c-.31,0-.62,0-.93,0a2.62,2.62,0,0,0-1.81.48A2.27,2.27,0,0,0,36,139v.32h3.66v1.61H36v9.75H34.1Z"/><path class="cls-7" d="M51.12,144.93c0,2.15-.39,3.66-1.18,4.55s-2.14,1.34-4.06,1.34-3.35-.43-4.12-1.29-1.15-2.39-1.15-4.6.4-3.68,1.19-4.57S44,139,45.88,139s3.35.43,4.1,1.29S51.12,142.72,51.12,144.93Zm-8.62,0a5.65,5.65,0,0,0,.67,3.34c.44.55,1.34.82,2.71.82a3.32,3.32,0,0,0,2.67-.86,5.61,5.61,0,0,0,.69-3.3,5.77,5.77,0,0,0-.66-3.35,3.42,3.42,0,0,0-2.7-.82,3.39,3.39,0,0,0-2.69.85A5.62,5.62,0,0,0,42.5,144.91Z"/><path class="cls-7" d="M55.52,150.63H53.63V139.27h1.73l.09,1h.09a8,8,0,0,1,1.79-.8,6.48,6.48,0,0,1,1.77-.26h.5l.19,0V141a1.89,1.89,0,0,0-.4-.06h-.75a6.78,6.78,0,0,0-1.62.2,6.06,6.06,0,0,0-1.5.58Z"/><path class="cls-7" d="M69.16,140.74a4.22,4.22,0,0,0-2,.35,1.51,1.51,0,0,0-.56,1.4,1.18,1.18,0,0,0,.26.84,1.43,1.43,0,0,0,.84.38l2.92.44a3,3,0,0,1,1.93.86,3.15,3.15,0,0,1,.56,2.06,3.76,3.76,0,0,1-.95,2.86,4.5,4.5,0,0,1-3.13.89,20.4,20.4,0,0,1-2.43-.14,11,11,0,0,1-1.87-.37v-1.77a12,12,0,0,0,1.81.38,15.73,15.73,0,0,0,2.2.15,3.36,3.36,0,0,0,2-.41,1.8,1.8,0,0,0,.53-1.48,1.39,1.39,0,0,0-.3-1,2,2,0,0,0-1.08-.42l-2.92-.44a2.41,2.41,0,0,1-1.65-.85,3.31,3.31,0,0,1-.56-2,3.11,3.11,0,0,1,1.07-2.62A5.37,5.37,0,0,1,69,139c.61,0,1.17,0,1.67.05a15.44,15.44,0,0,1,1.57.18V141c-.39-.06-.86-.11-1.4-.15S69.77,140.74,69.16,140.74Z"/><path class="cls-7" d="M77.23,150.63H75.34V135.34h1.89v4.85a9.5,9.5,0,0,1,2.06-.86,7.54,7.54,0,0,1,2-.29,3.9,3.9,0,0,1,2.84.94,3.75,3.75,0,0,1,1,2.79v7.86H83.23V143a2.17,2.17,0,0,0-.61-1.72,2.79,2.79,0,0,0-1.89-.54A7.27,7.27,0,0,0,79,141a8.65,8.65,0,0,0-1.74.65Z"/><path class="cls-7" d="M96.59,148.43V150a6.69,6.69,0,0,1-1.76.57,11.57,11.57,0,0,1-2.35.24,4.72,4.72,0,0,1-3.82-1.38c-.77-.92-1.15-2.44-1.15-4.56a6.75,6.75,0,0,1,1.2-4.45,6,6,0,0,1,7.31-.3,5.18,5.18,0,0,1,1.06,3.65c0,.31,0,.59,0,.85s0,.57-.09.94H89.42a3.93,3.93,0,0,0,.77,2.69,3.42,3.42,0,0,0,2.59.81,11.63,11.63,0,0,0,2.07-.19A8.33,8.33,0,0,0,96.59,148.43Zm-1.24-4.9a2.39,2.39,0,0,0-2.83-2.79,3.24,3.24,0,0,0-2.4.73,3.61,3.61,0,0,0-.7,2.54h5.91s0-.1,0-.22S95.35,143.59,95.35,143.53Z"/><path class="cls-7" d="M111.38,148.38V150a5.6,5.6,0,0,1-1.71.61,11.5,11.5,0,0,1-2.38.24,4,4,0,0,1-3.39-1.31c-.66-.88-1-2.4-1-4.58s.42-3.65,1.26-4.54,2.28-1.35,4.3-1.35c.45,0,.85,0,1.21,0s.83.07,1.39.14v1.68c-.56-.07-1-.12-1.39-.13s-.76,0-1.21,0a3.77,3.77,0,0,0-2.92.89,5.29,5.29,0,0,0-.75,3.3,6.26,6.26,0,0,0,.59,3.28,2.64,2.64,0,0,0,2.3.86,10.43,10.43,0,0,0,2-.2A8.71,8.71,0,0,0,111.38,148.38Z"/><path class="cls-7" d="M115.43,150.63h-1.89V135.34h1.89v4.85a9.71,9.71,0,0,1,2.06-.86,7.54,7.54,0,0,1,2-.29,4,4,0,0,1,2.85.94,3.79,3.79,0,0,1,.95,2.79v7.86h-1.89V143a2.17,2.17,0,0,0-.61-1.72,2.77,2.77,0,0,0-1.89-.54,7.27,7.27,0,0,0-1.76.23,8.65,8.65,0,0,0-1.74.65Z"/><path class="cls-7" d="M128.84,150.82a3.46,3.46,0,0,1-2.57-.84,3.73,3.73,0,0,1-.81-2.66,3.1,3.1,0,0,1,1-2.61,5.61,5.61,0,0,1,3.36-.77c.52,0,1,0,1.54.07a10.09,10.09,0,0,1,1.42.21v-1.11a2.29,2.29,0,0,0-.64-1.82,3.2,3.2,0,0,0-2.07-.55c-.71,0-1.33,0-1.86.08a14.62,14.62,0,0,0-1.61.27v-1.64a14.31,14.31,0,0,1,1.87-.32c.64-.06,1.36-.09,2.17-.09a4.22,4.22,0,0,1,3,1,3.92,3.92,0,0,1,1,2.95v7.68h-1.73l-.09-1h0a5.65,5.65,0,0,1-1.79.89A7.18,7.18,0,0,1,128.84,150.82Zm1.17-5.34a4.45,4.45,0,0,0-2.17.38,1.45,1.45,0,0,0-.61,1.35,1.86,1.86,0,0,0,.51,1.46,2.43,2.43,0,0,0,1.65.45,6.69,6.69,0,0,0,1.84-.28,5.13,5.13,0,0,0,1.54-.69v-2.44c-.5-.08-1-.13-1.41-.17S130.47,145.48,130,145.48Z"/><path class="cls-7" d="M139.49,150.63H137.6V139.27h1.64l.09,1.1h.07a6.82,6.82,0,0,1,1.92-1,7.39,7.39,0,0,1,2.24-.32,4,4,0,0,1,2.86.94,3.72,3.72,0,0,1,1,2.79v7.86h-1.89V143a2.13,2.13,0,0,0-.64-1.71,3,3,0,0,0-2-.55,5.67,5.67,0,0,0-1.69.27,7.59,7.59,0,0,0-1.71.77Z"/><path class="cls-7" d="M155,154.36a14.42,14.42,0,0,1-2.15-.15,7.67,7.67,0,0,1-1.65-.4v-1.68a6.89,6.89,0,0,0,1.55.34,14.08,14.08,0,0,0,2,.14,3.31,3.31,0,0,0,2.39-.68,3.36,3.36,0,0,0,.67-2.4v-.71a7.72,7.72,0,0,1-1.82.77,7.57,7.57,0,0,1-1.95.26,3.88,3.88,0,0,1-3.26-1.26,6.89,6.89,0,0,1-1-4.14q0-2.92,1.26-4.17c.83-.83,2.26-1.24,4.26-1.24a21.53,21.53,0,0,1,2.33.13,16.6,16.6,0,0,1,2,.31V149q0,3-1,4.17A4.78,4.78,0,0,1,155,154.36Zm.36-13.62a4.11,4.11,0,0,0-2.92.76,4.47,4.47,0,0,0-.71,2.95,4.87,4.87,0,0,0,.61,2.86,2.85,2.85,0,0,0,2.36.79,5.88,5.88,0,0,0,1.57-.22,7.56,7.56,0,0,0,1.58-.6V141c-.37-.08-.76-.14-1.19-.19S155.78,140.74,155.33,140.74Z"/><path class="cls-7" d="M171.25,148.43V150a6.82,6.82,0,0,1-1.76.57,11.59,11.59,0,0,1-2.36.24,4.68,4.68,0,0,1-3.81-1.38c-.77-.92-1.15-2.44-1.15-4.56a6.75,6.75,0,0,1,1.19-4.45,6,6,0,0,1,7.32-.3,5.19,5.19,0,0,1,1,3.65c0,.31,0,.59,0,.85s-.05.57-.09.94h-7.55a4,4,0,0,0,.78,2.69,3.39,3.39,0,0,0,2.58.81,11.63,11.63,0,0,0,2.07-.19A8.44,8.44,0,0,0,171.25,148.43Zm-1.24-4.9a2.39,2.39,0,0,0-2.83-2.79,3.2,3.2,0,0,0-2.4.73,3.6,3.6,0,0,0-.71,2.54H170s0-.1,0-.22S170,143.59,170,143.53Z"/><path class="cls-7" d="M178.08,140.74a4.17,4.17,0,0,0-2,.35,1.51,1.51,0,0,0-.57,1.4,1.18,1.18,0,0,0,.27.84,1.38,1.38,0,0,0,.84.38l2.92.44a3,3,0,0,1,1.93.86,3.15,3.15,0,0,1,.55,2.06,3.76,3.76,0,0,1-.94,2.86,4.5,4.5,0,0,1-3.13.89,20.58,20.58,0,0,1-2.44-.14,10.86,10.86,0,0,1-1.86-.37v-1.77a11.78,11.78,0,0,0,1.81.38,15.69,15.69,0,0,0,2.19.15,3.42,3.42,0,0,0,2-.41,1.8,1.8,0,0,0,.53-1.48,1.39,1.39,0,0,0-.3-1,2,2,0,0,0-1.08-.42l-2.92-.44a2.41,2.41,0,0,1-1.65-.85,3.24,3.24,0,0,1-.56-2,3.08,3.08,0,0,1,1.07-2.62A5.37,5.37,0,0,1,178,139c.61,0,1.17,0,1.66.05a15.62,15.62,0,0,1,1.58.18V141c-.4-.06-.87-.11-1.4-.15S178.69,140.74,178.08,140.74Z"/><path class="cls-7" d="M41.37,184.38V186a5.6,5.6,0,0,1-1.71.61,11.57,11.57,0,0,1-2.38.24,4,4,0,0,1-3.39-1.31c-.66-.88-1-2.4-1-4.58s.42-3.65,1.26-4.54,2.28-1.35,4.3-1.35c.45,0,.85,0,1.21,0s.83.07,1.39.14v1.68c-.56-.07-1-.12-1.39-.13s-.76,0-1.21,0a3.77,3.77,0,0,0-2.92.89,5.28,5.28,0,0,0-.76,3.3,6.23,6.23,0,0,0,.6,3.28,2.64,2.64,0,0,0,2.3.86,10.43,10.43,0,0,0,2-.2A8.71,8.71,0,0,0,41.37,184.38Z"/><path class="cls-7" d="M53.42,180.93c0,2.15-.39,3.66-1.18,4.55s-2.14,1.34-4.06,1.34-3.35-.43-4.12-1.29-1.15-2.39-1.15-4.6.4-3.68,1.19-4.57S46.25,175,48.18,175s3.35.43,4.1,1.29S53.42,178.72,53.42,180.93Zm-8.62,0a5.65,5.65,0,0,0,.67,3.34c.44.55,1.34.82,2.71.82a3.32,3.32,0,0,0,2.67-.86,5.61,5.61,0,0,0,.69-3.3,5.77,5.77,0,0,0-.66-3.35,3.42,3.42,0,0,0-2.7-.82,3.39,3.39,0,0,0-2.69.85A5.62,5.62,0,0,0,44.8,180.91Z"/><path class="cls-7" d="M57.82,186.63H55.93V175.27h1.63l.1,1.1h.06a7.1,7.1,0,0,1,1.92-1,7.5,7.5,0,0,1,2.25-.32,4,4,0,0,1,2.86.94,3.72,3.72,0,0,1,1,2.79v7.86H63.84V179a2.13,2.13,0,0,0-.64-1.71,3,3,0,0,0-2-.55,5.62,5.62,0,0,0-1.69.27,7.39,7.39,0,0,0-1.71.77Z"/><path class="cls-7" d="M72.58,176.74a4.17,4.17,0,0,0-2,.35,1.51,1.51,0,0,0-.57,1.4,1.18,1.18,0,0,0,.27.84,1.38,1.38,0,0,0,.84.38l2.92.44a3,3,0,0,1,1.93.86,3.15,3.15,0,0,1,.55,2.06,3.76,3.76,0,0,1-.94,2.86,4.5,4.5,0,0,1-3.13.89,20.58,20.58,0,0,1-2.44-.14,10.86,10.86,0,0,1-1.86-.37v-1.77a11.78,11.78,0,0,0,1.81.38,15.69,15.69,0,0,0,2.19.15,3.42,3.42,0,0,0,2-.41,1.8,1.8,0,0,0,.53-1.48,1.39,1.39,0,0,0-.3-1,2,2,0,0,0-1.08-.42l-2.92-.44a2.41,2.41,0,0,1-1.65-.85,3.24,3.24,0,0,1-.56-2,3.08,3.08,0,0,1,1.07-2.62,5.37,5.37,0,0,1,3.3-.83c.61,0,1.17,0,1.66.05a15.62,15.62,0,0,1,1.58.18V177c-.4-.06-.87-.11-1.4-.15S73.19,176.74,72.58,176.74Z"/><path class="cls-7" d="M85.32,184.86v1.59a4.19,4.19,0,0,1-1,.26,7.33,7.33,0,0,1-1.2.11,4,4,0,0,1-3-.92,4.54,4.54,0,0,1-.89-3.18v-5.84h-1.7v-1.61H79.3l.3-2.76h1.56v2.76h4v1.61h-4v5.77a2.63,2.63,0,0,0,.52,1.91,2.57,2.57,0,0,0,1.83.51,7,7,0,0,0,.95-.07C84.82,185,85.11,184.91,85.32,184.86Z"/><path class="cls-7" d="M89.76,186.82A3.43,3.43,0,0,1,87.2,186a3.69,3.69,0,0,1-.82-2.66,3.1,3.1,0,0,1,1-2.61,5.61,5.61,0,0,1,3.36-.77c.52,0,1,0,1.54.07a10.09,10.09,0,0,1,1.42.21v-1.11a2.29,2.29,0,0,0-.64-1.82,3.2,3.2,0,0,0-2.07-.55c-.71,0-1.33,0-1.86.08a14.62,14.62,0,0,0-1.61.27v-1.64a14.61,14.61,0,0,1,1.87-.32c.64-.06,1.36-.09,2.18-.09a4.21,4.21,0,0,1,3,1,3.92,3.92,0,0,1,1,2.95v7.68H93.86l-.1-1h0a5.65,5.65,0,0,1-1.79.89A7.13,7.13,0,0,1,89.76,186.82Zm1.17-5.34a4.45,4.45,0,0,0-2.17.38,1.45,1.45,0,0,0-.61,1.35,1.86,1.86,0,0,0,.51,1.46,2.45,2.45,0,0,0,1.65.45,6.69,6.69,0,0,0,1.84-.28,5,5,0,0,0,1.54-.69v-2.44c-.5-.08-1-.13-1.41-.17S91.39,181.48,90.93,181.48Z"/><path class="cls-7" d="M100.41,186.63H98.52V175.27h1.64l.09,1.1h.07a6.82,6.82,0,0,1,1.92-1,7.43,7.43,0,0,1,2.24-.32,4,4,0,0,1,2.87.94,3.71,3.71,0,0,1,1,2.79v7.86h-1.88V179a2.14,2.14,0,0,0-.65-1.71,3,3,0,0,0-2-.55,5.67,5.67,0,0,0-1.69.27,7.59,7.59,0,0,0-1.71.77Z"/><path class="cls-7" d="M117.8,184.86v1.59a4.33,4.33,0,0,1-1,.26,7.45,7.45,0,0,1-1.21.11,4,4,0,0,1-3-.92,4.55,4.55,0,0,1-.88-3.18v-5.84h-1.7v-1.61h1.72l.3-2.76h1.57v2.76h4v1.61h-4v5.77a2.68,2.68,0,0,0,.51,1.91,2.6,2.6,0,0,0,1.83.51,6.86,6.86,0,0,0,1-.07C117.3,185,117.58,184.91,117.8,184.86Z"/><path class="cls-7" d="M121.55,171.34v15.29h-1.89V171.34Z"/><path class="cls-7" d="M125.62,188.66a2,2,0,0,0,1.32-.38,4.47,4.47,0,0,0,1-1.81l-4.64-11.2h2.11l3.5,9.32,3.31-9.32h2l-4.65,12.12a5.16,5.16,0,0,1-1.45,2.31,3.31,3.31,0,0,1-2.14.66,8,8,0,0,1-.82-.05l-.83-.11v-1.66a2.26,2.26,0,0,0,.56.09Q125.19,188.66,125.62,188.66Z"/><path class="cls-7" d="M136.34,186.63h-1.89v-1.91h1.89Z"/><path class="cls-7" d="M140.34,186.63h-1.89v-1.91h1.89Z"/><path class="cls-7" d="M144.34,186.63h-1.89v-1.91h1.89Z"/><path class="cls-7" d="M146.52,172.21l-.57,3.57a.92.92,0,0,1-.29.55.84.84,0,0,1-.56.18h-.49l.12-4.3Zm3.66,0-.57,3.57a1,1,0,0,1-.29.55.87.87,0,0,1-.56.18h-.49l.12-4.3Z"/></g></g></svg>