<svg xmlns="http://www.w3.org/2000/svg" viewBox="0 0 344.34 246.14"><defs><style>.cls-1{fill:none;stroke:#231f20;stroke-width:6.77px;}.cls-1,.cls-3{stroke-miterlimit:10;}.cls-2{fill:#231f20;}.cls-3{stroke:#fff;stroke-width:0.95px;}.cls-4{fill:#fff;}.cls-5{fill:#aa1f25;}.cls-6{fill:#ce2029;}.cls-7{fill:#ef6725;}.cls-8{fill:#f89f1f;}.cls-9{fill:#2e9899;}.cls-10{fill:#038181;}</style></defs><title>enevelope</title><g id="Layer_2" data-name="Layer 2"><g id="Layer_2-2" data-name="Layer 2"><rect class="cls-1" x="8.86" y="5.59" width="326.77" height="237.17"/><rect class="cls-2" y="0.51" width="25.51" height="25.51"/><rect class="cls-2" x="25.33" y="25.8" width="25.51" height="25.51"/><rect class="cls-2" x="50.62" y="51.1" width="25.51" height="25.51"/><rect class="cls-2" x="76.17" y="76.39" width="25.51" height="25.51"/><rect class="cls-2" x="101.72" y="101.69" width="25.51" height="25.51"/><rect class="cls-2" x="126.76" y="126.98" width="25.51" height="25.51"/><rect class="cls-2" x="160.31" y="160.28" width="25.51" height="25.51"/><rect class="cls-2" x="192.61" y="126.98" width="25.51" height="25.51"/><rect class="cls-2" x="217.9" y="101.69" width="25.51" height="25.51"/><rect class="cls-2" x="243.2" y="76.14" width="25.51" height="25.51"/><rect class="cls-2" x="268.5" y="50.59" width="25.51" height="25.51"/><rect class="cls-2" x="293.79" y="25.3" width="25.51" height="25.51"/><rect class="cls-2" x="318.83" width="25.51" height="25.51"/><rect class="cls-3" x="127.46" y="75.6" width="12.9" height="12.9"/><rect class="cls-4" x="140.36" y="101.41" width="12.9" height="12.9"/><rect class="cls-4" x="127.46" y="101.41" width="12.9" height="12.9"/><rect class="cls-4" x="127.46" y="114.31" width="12.9" height="12.9"/><rect class="cls-3" x="140.36" y="75.6" width="12.9" height="12.9"/><rect class="cls-5" x="166.62" y="114.77" width="11.99" height="11.99"/><path class="cls-4" d="M178.16,115.22V126.3H167.08V115.22h11.08m.91-.91h-12.9v12.9h12.9v-12.9Z"/><rect class="cls-6" x="153.72" y="114.77" width="11.99" height="11.99"/><path class="cls-4" d="M165.26,115.22V126.3H154.17V115.22h11.09m.91-.91H153.26v12.9h12.91v-12.9Z"/><rect class="cls-5" x="153.72" y="101.86" width="11.99" height="11.99"/><path class="cls-4" d="M165.26,102.32V113.4H154.17V102.32h11.09m.91-.91H153.26v12.9h12.91v-12.9Z"/><rect class="cls-5" x="140.82" y="88.96" width="11.99" height="11.99"/><path class="cls-4" d="M152.35,89.42V100.5H141.27V89.42h11.08m.91-.91h-12.9v12.9h12.9V88.51Z"/><rect class="cls-6" x="127.91" y="88.96" width="11.99" height="11.99"/><path class="cls-4" d="M139.45,89.42V100.5H128.37V89.42h11.08m.91-.91h-12.9v12.9h12.9V88.51Z"/><rect class="cls-6" x="115.01" y="101.86" width="11.99" height="11.99"/><path class="cls-4" d="M126.55,102.32V113.4H115.47V102.32h11.08m.91-.91h-12.9v12.9h12.9v-12.9Z"/><rect class="cls-5" x="115.01" y="114.77" width="11.99" height="11.99"/><path class="cls-4" d="M126.55,115.22V126.3H115.47V115.22h11.08m.91-.91h-12.9v12.9h12.9v-12.9Z"/><rect class="cls-6" x="115.01" y="127.67" width="11.99" height="11.99"/><path class="cls-4" d="M126.55,128.13v11.08H115.47V128.13h11.08m.91-.92h-12.9v12.91h12.9V127.21Z"/><rect class="cls-5" x="140.82" y="114.77" width="11.99" height="11.99"/><path class="cls-4" d="M152.35,115.22V126.3H141.27V115.22h11.08m.91-.91h-12.9v12.9h12.9v-12.9Z"/><rect class="cls-6" x="140.82" y="127.67" width="11.99" height="11.99"/><path class="cls-4" d="M152.35,128.13v11.08H141.27V128.13h11.08m.91-.92h-12.9v12.91h12.9V127.21Z"/><rect class="cls-5" x="127.91" y="127.67" width="11.99" height="11.99"/><path class="cls-4" d="M139.45,128.13v11.08H128.37V128.13h11.08m.91-.92h-12.9v12.91h12.9V127.21Z"/><rect class="cls-5" x="153.72" y="127.67" width="11.99" height="11.99"/><path class="cls-4" d="M165.26,128.13v11.08H154.17V128.13h11.09m.91-.92H153.26v12.91h12.91V127.21Z"/><rect class="cls-6" x="166.62" y="127.67" width="11.99" height="11.99"/><path class="cls-4" d="M178.16,128.13v11.08H167.08V128.13h11.08m.91-.92h-12.9v12.91h12.9V127.21Z"/><rect class="cls-7" x="179.52" y="127.67" width="11.99" height="11.99"/><path class="cls-4" d="M191.06,128.13v11.08H180V128.13h11.08m.91-.92h-12.9v12.91H192V127.21Z"/><rect class="cls-8" x="192.43" y="127.67" width="11.99" height="11.99"/><path class="cls-4" d="M204,128.13v11.08H192.88V128.13H204m.91-.92H192v12.91h12.9V127.21Z"/><rect class="cls-9" x="205.33" y="127.67" width="11.99" height="11.99"/><path class="cls-4" d="M216.87,128.13v11.08H205.79V128.13h11.08m.91-.92H204.87v12.91h12.91V127.21Z"/><rect class="cls-6" x="127.91" y="140.57" width="11.99" height="11.99"/><path class="cls-4" d="M139.45,141v11.08H128.37V141h11.08m.91-.91h-12.9V153h12.9v-12.9Z"/><rect class="cls-5" x="140.82" y="140.57" width="11.99" height="11.99"/><path class="cls-4" d="M152.35,141v11.08H141.27V141h11.08m.91-.91h-12.9V153h12.9v-12.9Z"/><rect class="cls-6" x="153.72" y="140.57" width="11.99" height="11.99"/><path class="cls-4" d="M165.26,141v11.08H154.17V141h11.09m.91-.91H153.26V153h12.91v-12.9Z"/><rect class="cls-7" x="166.62" y="140.57" width="11.99" height="11.99"/><path class="cls-4" d="M178.16,141v11.08H167.08V141h11.08m.91-.91h-12.9V153h12.9v-12.9Z"/><rect class="cls-8" x="179.52" y="140.57" width="11.99" height="11.99"/><path class="cls-4" d="M191.06,141v11.08H180V141h11.08m.91-.91h-12.9V153H192v-12.9Z"/><rect class="cls-6" x="179.52" y="114.77" width="11.99" height="11.99"/><path class="cls-4" d="M191.06,115.22V126.3H180V115.22h11.08m.91-.91h-12.9v12.9H192v-12.9Z"/><rect class="cls-5" x="179.52" y="101.86" width="11.99" height="11.99"/><path class="cls-4" d="M191.06,102.32V113.4H180V102.32h11.08m.91-.91h-12.9v12.9H192v-12.9Z"/><rect class="cls-6" x="192.43" y="101.86" width="11.99" height="11.99"/><path class="cls-4" d="M204,102.32V113.4H192.88V102.32H204m.91-.91H192v12.9h12.9v-12.9Z"/><rect class="cls-5" x="192.43" y="88.96" width="11.99" height="11.99"/><path class="cls-4" d="M204,89.42V100.5H192.88V89.42H204m.91-.91H192v12.9h12.9V88.51Z"/><rect class="cls-6" x="205.33" y="88.96" width="11.99" height="11.99"/><path class="cls-4" d="M216.87,89.42V100.5H205.79V89.42h11.08m.91-.91H204.87v12.9h12.91V88.51Z"/><rect class="cls-7" x="205.33" y="101.86" width="11.99" height="11.99"/><path class="cls-4" d="M216.87,102.32V113.4H205.79V102.32h11.08m.91-.91H204.87v12.9h12.91v-12.9Z"/><rect class="cls-8" x="218.23" y="101.86" width="11.99" height="11.99"/><path class="cls-4" d="M229.77,102.32V113.4H218.69V102.32h11.08m.91-.91h-12.9v12.9h12.9v-12.9Z"/><rect class="cls-9" x="218.23" y="114.77" width="11.99" height="11.99"/><path class="cls-4" d="M229.77,115.22V126.3H218.69V115.22h11.08m.91-.91h-12.9v12.9h12.9v-12.9Z"/><rect class="cls-8" x="205.33" y="114.77" width="11.99" height="11.99"/><path class="cls-4" d="M216.87,115.22V126.3H205.79V115.22h11.08m.91-.91H204.87v12.9h12.91v-12.9Z"/><rect class="cls-7" x="192.43" y="114.77" width="11.99" height="11.99"/><path class="cls-4" d="M204,115.22V126.3H192.88V115.22H204m.91-.91H192v12.9h12.9v-12.9Z"/><rect class="cls-10" x="218.23" y="127.67" width="11.99" height="11.99"/><path class="cls-4" d="M229.77,128.13v11.08H218.69V128.13h11.08m.91-.92h-12.9v12.91h12.9V127.21Z"/><rect class="cls-10" x="205.33" y="140.57" width="11.99" height="11.99"/><path class="cls-4" d="M216.87,141v11.08H205.79V141h11.08m.91-.91H204.87V153h12.91v-12.9Z"/><rect class="cls-9" x="192.43" y="140.57" width="11.99" height="11.99"/><path class="cls-4" d="M204,141v11.08H192.88V141H204m.91-.91H192V153h12.9v-12.9Z"/><rect class="cls-10" x="192.43" y="153.47" width="11.99" height="11.99"/><path class="cls-4" d="M204,153.93V165H192.88V153.93H204m.91-.91H192v12.9h12.9V153Z"/><rect class="cls-9" x="179.52" y="153.47" width="11.99" height="11.99"/><path class="cls-4" d="M191.06,153.93V165H180V153.93h11.08M192,153h-12.9v12.9H192V153Z"/><rect class="cls-8" x="166.62" y="153.47" width="11.99" height="11.99"/><path class="cls-4" d="M178.16,153.93V165H167.08V153.93h11.08m.91-.91h-12.9v12.9h12.9V153Z"/><rect class="cls-7" x="153.72" y="153.47" width="11.99" height="11.99"/><path class="cls-4" d="M165.26,153.93V165H154.17V153.93h11.09m.91-.91H153.26v12.9h12.91V153Z"/><rect class="cls-6" x="140.82" y="153.47" width="11.99" height="11.99"/><path class="cls-4" d="M152.35,153.93V165H141.27V153.93h11.08m.91-.91h-12.9v12.9h12.9V153Z"/><rect class="cls-8" x="153.72" y="166.38" width="11.99" height="11.99"/><path class="cls-4" d="M165.26,166.83v11.08H154.17V166.83h11.09m.91-.91H153.26v12.9h12.91v-12.9Z"/><rect class="cls-9" x="166.62" y="166.38" width="11.99" height="11.99"/><path class="cls-4" d="M178.16,166.83v11.08H167.08V166.83h11.08m.91-.91h-12.9v12.9h12.9v-12.9Z"/><rect class="cls-10" x="179.52" y="166.38" width="11.99" height="11.99"/><path class="cls-4" d="M191.06,166.83v11.08H180V166.83h11.08m.91-.91h-12.9v12.9H192v-12.9Z"/><rect class="cls-10" x="166.62" y="179.28" width="11.99" height="11.99"/><path class="cls-4" d="M178.16,179.74v11.08H167.08V179.74h11.08m.91-.92h-12.9v12.91h12.9V178.82Z"/><rect class="cls-3" x="153.26" y="88.51" width="12.9" height="12.9"/><rect class="cls-3" x="166.17" y="101.41" width="12.9" height="12.9"/><rect class="cls-3" x="179.07" y="88.51" width="12.9" height="12.9"/><rect class="cls-3" x="191.97" y="75.6" width="12.9" height="12.9"/><rect class="cls-3" x="204.87" y="75.6" width="12.9" height="12.9"/><rect class="cls-3" x="217.78" y="88.51" width="12.9" height="12.9"/><rect class="cls-3" x="230.68" y="101.41" width="12.9" height="12.9"/><rect class="cls-3" x="230.68" y="114.31" width="12.9" height="12.9"/><rect class="cls-3" x="230.68" y="127.21" width="12.9" height="12.9"/><rect class="cls-3" x="217.78" y="140.12" width="12.9" height="12.9"/><rect class="cls-3" x="204.87" y="153.02" width="12.9" height="12.9"/><rect class="cls-3" x="191.97" y="165.92" width="12.9" height="12.9"/><rect class="cls-3" x="179.07" y="178.82" width="12.9" height="12.9"/><rect class="cls-3" x="153.26" y="178.82" width="12.9" height="12.9"/><rect class="cls-3" x="140.36" y="165.92" width="12.9" height="12.9"/><rect class="cls-3" x="127.46" y="153.02" width="12.9" height="12.9"/><rect class="cls-3" x="114.56" y="140.12" width="12.9" height="12.9"/><rect class="cls-3" x="101.65" y="127.21" width="12.9" height="12.9"/><rect class="cls-3" x="101.65" y="114.31" width="12.9" height="12.9"/><rect class="cls-3" x="101.65" y="101.41" width="12.9" height="12.9"/><rect class="cls-3" x="114.56" y="88.51" width="12.9" height="12.9"/><rect class="cls-3" x="166.17" y="191.73" width="12.9" height="12.9"/></g></g></svg>