<svg xmlns="http://www.w3.org/2000/svg" viewBox="0 0 249 230.51"><defs><style>.cls-1{fill:#ce2029;}.cls-2{fill:#007f7f;}.cls-3{fill:#2b999a;}.cls-4{fill:#f99f1d;}.cls-5{fill:#f06524;}.cls-6{fill:#ab1f24;}.cls-7{fill:#fff;}</style></defs><title>gameover_1</title><g id="Layer_2" data-name="Layer 2"><g id="Venue"><rect class="cls-1" y="25.51" width="249" height="205"/><rect class="cls-2" x="128.86" y="-0.09" width="25.58" height="25.76" transform="translate(128.86 154.44) rotate(-90)"/><rect class="cls-3" x="103.09" y="-0.09" width="25.58" height="25.76" transform="translate(103.09 128.68) rotate(-90)"/><rect class="cls-4" x="77.33" y="-0.09" width="25.58" height="25.76" transform="translate(77.33 102.92) rotate(-90)"/><rect class="cls-5" x="51.57" y="-0.09" width="25.58" height="25.76" transform="translate(51.57 77.15) rotate(-90)"/><rect class="cls-1" x="25.81" y="-0.09" width="25.58" height="25.76" transform="translate(25.81 51.39) rotate(-90)"/><rect class="cls-6" x="0.09" y="-0.09" width="25.58" height="25.76" transform="translate(0.09 25.67) rotate(-90)"/><polygon points="101.34 173.42 79.89 194.95 79.82 168.69 88.13 160.27 101.34 173.42"/><polygon points="201.99 92.39 168.89 59.82 177.92 50.7 211.02 83.26 201.99 92.39"/><rect x="74.25" y="67.7" width="13.22" height="13.22"/><rect x="87.46" y="94.13" width="13.22" height="13.22"/><rect x="74.25" y="94.13" width="13.22" height="13.22"/><rect x="74.25" y="107.35" width="13.22" height="13.22"/><rect x="87.46" y="67.7" width="13.22" height="13.22"/><path d="M126.18,108.28v11.35H114.83V108.28h11.35m.93-.93H113.89v13.21h13.22V107.35Z"/><path d="M113,108.28v11.35H101.61V108.28H113m.93-.93H100.68v13.21h13.21V107.35Z"/><path d="M113,95.07v11.35H101.61V95.07H113m.93-.94H100.68v13.22h13.21V94.13Z"/><path d="M99.75,81.85V93.2H88.4V81.85H99.75m.93-.93H87.46V94.13h13.22V80.92Z"/><path d="M86.53,81.85V93.2H75.18V81.85H86.53m.93-.93H74.25V94.13H87.46V80.92Z"/><path d="M73.32,95.07v11.35H62V95.07H73.32m.93-.94H61v13.22H74.25V94.13Z"/><path d="M73.54,108.29v11.33H62V108.29H73.54m.94-.94H61v13.21H74.48V107.35Z"/><path d="M73.54,121.5v11.34H62V121.5H73.54m.94-.94H61v13.22H74.48V120.56Z"/><path d="M99.75,108.28v11.35H88.4V108.28H99.75m.93-.93H87.46v13.21h13.22V107.35Z"/><path d="M99.75,121.5v11.35H88.4V121.5H99.75m.93-.94H87.46v13.22h13.22V120.56Z"/><path d="M86.6,121.5v11.35H75.25V121.5H86.6m.93-.94H74.32v13.22H87.53V120.56Z"/><path d="M113,121.5v11.35H101.61V121.5H113m.93-.94H100.68v13.22h13.21V120.56Z"/><path d="M139.39,121.5v11.35H128V121.5h11.35m.93-.94H127.11v13.22h13.21V120.56Z"/><path d="M152.61,121.5v11.35H141.26V121.5h11.35m.93-.94H140.32v13.22h13.22V120.56Z"/><path d="M165.82,121.5v11.35H154.47V121.5h11.35m.93-.94H153.54v13.22h13.21V120.56Z"/><path d="M86.53,134.71v11.35H75.18V134.71H86.53m.93-.93H74.25V147H87.46V133.78Z"/><path d="M99.75,134.71v11.35H88.4V134.71H99.75m.93-.93H87.46V147h13.22V133.78Z"/><path d="M113,134.71v11.35H101.61V134.71H113m.93-.93H100.68V147h13.21V133.78Z"/><path d="M139.39,108.28v11.35H128V108.28h11.35m.93-.93H127.11v13.21h13.21V107.35Z"/><path d="M139.39,95.07v11.35H128V95.07h11.35m.93-.94H127.11v13.22h13.21V94.13Z"/><path d="M152.61,95.07v11.35H141.26V95.07h11.35m.93-.94H140.32v13.22h13.22V94.13Z"/><path d="M152.61,81.85V93.2H141.26V81.85h11.35m.93-.93H140.32V94.13h13.22V80.92Z"/><path d="M165.82,81.85V93.2H154.47V81.85h11.35m.93-.93H153.54V94.13h13.21V80.92Z"/><path d="M165.82,95.07v11.35H154.47V95.07h11.35m.93-.94H153.54v13.22h13.21V94.13Z"/><path d="M179,95.07v11.35H167.69V95.07H179m.93-.94H166.75v13.22H180V94.13Z"/><path d="M179,108.28v11.35H167.69V108.28H179m.93-.93H166.75v13.21H180V107.35Z"/><path d="M165.82,108.28v11.35H154.47V108.28h11.35m.93-.93H153.54v13.21h13.21V107.35Z"/><path d="M152.61,108.28v11.35H141.26V108.28h11.35m.93-.93H140.32v13.21h13.22V107.35Z"/><path d="M179,121.5v11.35H167.69V121.5H179m.93-.94H166.75v13.22H180V120.56Z"/><path d="M165.82,134.71v11.35H154.47V134.71h11.35m.93-.93H153.54V147h13.21V133.78Z"/><path d="M152.61,134.71v11.35H141.26V134.71h11.35m.93-.93H140.32V147h13.22V133.78Z"/><path d="M152.61,147.93v11.35H141.26V147.93h11.35m.93-.94H140.32v13.22h13.22V147Z"/><path d="M139.39,147.93v11.35H128V147.93h11.35m.93-.94H127.11v13.22h13.21V147Z"/><path d="M126.18,147.93v11.35H114.83V147.93h11.35m.93-.94H113.89v13.22h13.22V147Z"/><path d="M113,147.93v11.35H101.61V147.93H113m.93-.94H100.68v13.22h13.21V147Z"/><path d="M99.75,147.93v11.35H88.4V147.93H99.75m.93-.94H87.46v13.22h13.22V147Z"/><path d="M113,161.14v11.35H101.61V161.14H113m.93-.93H100.68v13.21h13.21V160.21Z"/><path d="M126.18,161.14v11.35H114.83V161.14h11.35m.93-.93H113.89v13.21h13.22V160.21Z"/><path d="M139.39,161.14v11.35H128V161.14h11.35m.93-.93H127.11v13.21h13.21V160.21Z"/><path d="M126.18,174.36v11.35H114.83V174.36h11.35m.93-.94H113.89v13.22h13.22V173.42Z"/><rect x="100.68" y="80.92" width="13.22" height="13.22"/><rect x="113.89" y="94.13" width="13.22" height="13.22"/><rect x="127.11" y="80.92" width="13.22" height="13.22"/><rect x="140.32" y="67.7" width="13.22" height="13.22"/><rect x="153.54" y="67.7" width="13.22" height="13.22"/><rect x="166.75" y="80.92" width="13.22" height="13.22"/><rect x="179.97" y="94.13" width="13.22" height="13.22"/><rect x="179.97" y="107.35" width="13.22" height="13.22"/><rect x="179.97" y="120.56" width="13.22" height="13.22"/><rect x="166.75" y="133.78" width="13.22" height="13.22"/><rect x="153.54" y="146.99" width="13.22" height="13.22"/><rect x="140.32" y="160.21" width="13.22" height="13.22"/><rect x="127.11" y="173.42" width="13.22" height="13.22"/><rect x="113.89" y="186.64" width="13.22" height="13.22"/><rect x="100.68" y="173.42" width="13.22" height="13.22"/><rect x="87.46" y="160.21" width="13.22" height="13.22"/><rect x="74.25" y="146.99" width="13.22" height="13.22"/><rect x="61.03" y="133.78" width="13.32" height="13.22"/><rect x="47.82" y="94.51" width="13.22" height="39.26"/><rect x="47.82" y="107.35" width="13.22" height="13.22"/><rect x="47.82" y="94.13" width="13.22" height="13.22"/><rect x="61.03" y="80.92" width="13.22" height="13.22"/><rect x="113.81" y="120.27" width="0.93" height="27.58"/><rect x="112.58" y="120.52" width="17.07" height="0.93"/><rect x="113.47" y="146.07" width="27.83" height="0.93"/><rect x="139.39" y="133.31" width="0.93" height="13.89"/><rect x="107.66" y="87.24" width="115.34" height="18.5" transform="translate(-19.48 146.39) rotate(-45.38)"/><path class="cls-7" d="M129.24,138.18l-5.64-5.57,6.26-6.34,1.13,1.11-5,5.08,3.38,3.34,3.76-3.81L132,130.88l-2.5,2.54-1.13-1.12,3.76-3.8,3.38,3.34Z"/><path class="cls-7" d="M136.25,131.07l-5.64-5.56,6.26-6.35,5.65,5.57L141.26,126l-1.13-1.12-3.75,3.81,1.12,1.11Zm2.76-7.3-2.26-2.23L133,125.35l2.26,2.23Z"/><path class="cls-7" d="M143.27,124l-5.65-5.57,6.27-6.35,5.64,5.57-1.25,1.27-4.52-4.45-1.25,1.27L145.9,119l-1.26,1.27L141.26,117,140,118.24l4.51,4.46Z"/><path class="cls-7" d="M150.28,116.86l-5.64-5.57L150.9,105l1.13,1.11-5,5.08,1.13,1.11,3.76-3.81,1.13,1.12-3.76,3.8,1.13,1.12,5-5.08,1.12,1.11Z"/><path class="cls-7" d="M159.3,107.72l-5.64-5.57,6.26-6.34,5.64,5.56Zm3.88-6.19-3.38-3.34L156,102l3.38,3.34Z"/><path class="cls-7" d="M165.19,99.5l-4.52-4.45,1.26-1.27,4.51,4.45Zm5-5.08L165.68,90l1.26-1.27,4.51,4.45Zm-2.63,4.92-1.13-1.11,3.76-3.81,1.12,1.12Z"/><path class="cls-7" d="M173.33,93.51l-5.64-5.57L174,81.59l1.13,1.12-5,5.07,1.13,1.12L175,85.09l1.13,1.11L172.33,90l1.12,1.11,5-5.07,1.13,1.11Z"/><path class="cls-7" d="M180.34,86.4l-5.64-5.57L181,74.48l3.39,3.35-1.25,1.26-2.26-2.22-3.76,3.81,2.26,2.22,3.76-3.81,1.13,1.12L180.47,84l1.13,1.11Zm5-5.08-1.12-1.11,1.25-1.27,1.13,1.11Z"/></g></g></svg>