<svg xmlns="http://www.w3.org/2000/svg" viewBox="0 0 148.67 72.65"><defs><style>.cls-1,.cls-2{fill:#231f20;}.cls-2{font-size:12.64px;font-family:PKMN-RBYGSC, PKMN RBYGSC;}.cls-3{fill:#ab1f25;}</style></defs><title>Asset 1</title><g id="Layer_2" data-name="Layer 2"><g id="Layer_1-2" data-name="Layer 1"><rect class="cls-1" x="46.47" width="76.4" height="3.98" transform="translate(169.35 3.98) rotate(-180)"/><rect class="cls-1" x="122.87" y="3.98" width="3.98" height="3.98" transform="translate(249.73 11.94) rotate(-180)"/><rect class="cls-1" x="121.16" y="13.65" width="15.37" height="3.98" transform="translate(113.2 144.49) rotate(-90)"/><rect class="cls-1" x="42.49" y="4.04" width="3.98" height="3.98"/><rect class="cls-1" x="26.17" y="20.36" width="28.67" height="3.98" transform="translate(18.15 62.85) rotate(-90)"/><rect class="cls-1" x="42.49" y="36.58" width="3.98" height="3.98"/><rect class="cls-1" x="68.97" y="40.5" width="34.34" height="3.98" transform="translate(172.28 84.99) rotate(-180)"/><rect class="cls-1" x="38.18" y="48.85" width="20.56" height="3.98" transform="translate(-2.38 99.3) rotate(-90)"/><rect class="cls-1" x="46.48" y="57.14" width="10.75" height="3.98" transform="translate(103.72 118.26) rotate(-180)"/><rect class="cls-1" x="57.23" y="53.16" width="3.98" height="3.98" transform="translate(118.44 110.3) rotate(-180)"/><rect class="cls-1" x="65.19" y="40.56" width="3.98" height="8.62" transform="translate(134.37 89.74) rotate(-180)"/><rect class="cls-1" x="61.21" y="49.18" width="3.98" height="3.98" transform="translate(126.41 102.33) rotate(-180)"/><text class="cls-2" transform="translate(62.59 25.96) scale(0.9 1)">Hello!</text><rect class="cls-1" y="28.63" width="11" height="11"/><rect class="cls-1" x="11" y="39.64" width="11" height="11"/><rect class="cls-1" x="22.01" y="28.63" width="11" height="11"/><rect class="cls-1" x="66.02" y="61.64" width="11" height="11"/><rect class="cls-1" x="33.01" y="61.64" width="11" height="11"/><rect class="cls-3" x="109.36" y="23.59" width="8.74" height="4.27"/><polygon class="cls-3" points="118.09 32.13 118.09 36.4 113.73 36.4 113.73 40.68 109.36 40.68 109.36 32.13 118.09 32.13"/><rect class="cls-3" x="118.09" y="27.86" width="4.37" height="4.27"/><rect class="cls-3" x="122.46" y="32.13" width="4.37" height="4.27"/><rect class="cls-3" x="126.83" y="27.86" width="4.37" height="4.27"/><rect class="cls-3" x="131.2" y="23.59" width="8.74" height="4.27"/><rect class="cls-3" x="139.93" y="27.86" width="4.37" height="4.27"/><rect class="cls-3" x="144.3" y="32.13" width="4.37" height="12.82"/><rect class="cls-3" x="139.93" y="44.95" width="4.37" height="4.27"/><rect class="cls-3" x="135.44" y="49.45" width="4.37" height="4.27"/><rect class="cls-3" x="131.7" y="53.77" width="4.48" height="12.63"/><rect class="cls-3" x="118.09" y="57.76" width="4.37" height="4.27"/><rect class="cls-3" x="113.73" y="53.49" width="4.37" height="4.27"/><rect class="cls-3" x="109.36" y="49.22" width="4.37" height="4.27"/><rect class="cls-3" x="104.99" y="44.95" width="4.37" height="4.27"/><rect class="cls-3" x="100.62" y="32.13" width="4.37" height="12.82"/><rect class="cls-3" x="104.99" y="27.86" width="4.37" height="4.27"/><rect class="cls-3" x="122.46" y="62.04" width="4.37" height="4.27"/><rect class="cls-3" x="126.9" y="66.3" width="9.26" height="4.33"/></g></g></svg>