<svg xmlns="http://www.w3.org/2000/svg" viewBox="0 0 318.97 26.45"><defs><style>.cls-1{fill:#fff;stroke:#000;stroke-miterlimit:10;stroke-width:0.2px;}</style></defs><title>logo</title><g id="Layer_2" data-name="Layer 2"><g id="Home_Page"><g id="backgroundNarrow"><path class="cls-1" d="M.1,26.35V.1H22.6V3.85H3.85v7.5H22.6V15.1H18.85v3.75H15.1V15.1H3.85V26.35ZM18.85,22.6V18.85H22.6V22.6ZM22.6,11.35V3.85h3.75v7.5Zm0,15V22.6h3.75v3.75Z"/><path class="cls-1" d="M30.6,22.6V11.35h3.75V22.6Zm3.75-11.25V7.6h15v3.75Zm0,15V22.6h15v3.75Zm15-3.75V11.35H53.1V22.6Z"/><path class="cls-1" d="M57.35,26.35V7.6H68.6v3.75H61.1v15Zm11.25,0v-15h3.75v15Zm3.75-15V7.6h7.5v3.75Zm7.5,15v-15H83.6v15Z"/><path class="cls-1" d="M87.85,22.6V11.35H91.6V15.1h15V11.35h3.75v7.5H91.6V22.6ZM91.6,11.35V7.6h15v3.75Zm0,15V22.6h18.75v3.75Z"/><path class="cls-1" d="M114.61,22.6V11.35h3.75V22.6Zm3.75-11.25V7.6h15v3.75Zm0,15V22.6h15v3.75Zm15-3.75V11.35h3.75V22.6Z"/><path class="cls-1" d="M153.11,7.6V3.85h-3.75V.1h7.5V7.6Zm-3.75,3.75V7.6h3.75v3.75Z"/><path class="cls-1" d="M161.11,26.35V7.6h15v3.75H164.86v15Zm15,0v-15h3.75v15Z"/><path class="cls-1" d="M187.86,7.6V3.85h-3.75V.1h7.5V7.6Zm-3.75,3.75V7.6h3.75v3.75Z"/><path class="cls-1" d="M203.87,22.6V11.35h3.75V22.6Zm15,0V3.85H207.62V.1h22.5V3.85h-7.5V22.6Zm-11.25,3.75V22.6h11.25v3.75Z"/><path class="cls-1" d="M234.37,22.6V7.6h3.75v15Zm3.75,3.75V22.6h11.25V7.6h3.75V26.35Z"/><path class="cls-1" d="M257.37,26.35V.1h3.75V26.35Z"/><path class="cls-1" d="M265.37,7.6V3.85h3.75V7.6Zm0,18.75v-15h3.75v15Z"/><path class="cls-1" d="M273.37,22.6V11.35h3.75V15.1h15V11.35h3.75v7.5H277.12V22.6Zm3.75-11.25V7.6h15v3.75Zm0,15V22.6h18.75v3.75Z"/><path class="cls-1" d="M307.62,22.6V11.35h-7.5V7.6h7.5V3.85h3.75V7.6h7.5v3.75h-7.5V22.6Zm3.75,3.75V22.6h7.5v3.75Z"/></g></g></g></svg>