<svg xmlns="http://www.w3.org/2000/svg" viewBox="0 0 1055.69 428.46"><defs><style>.cls-1{fill:#010101;stroke:#010101;stroke-miterlimit:10;stroke-width:2.18px;}.cls-2{fill:#ab1f24;}.cls-3{fill:#ce2029;}.cls-4{fill:#fff;}.cls-5{fill:#f06524;}.cls-6{fill:#f99f1d;}.cls-7{fill:#2b999a;}.cls-8{fill:#007f7f;}</style></defs><title>mainbanner</title><g id="Layer_2" data-name="Layer 2"><g id="Layer_1-2" data-name="Layer 1"><path class="cls-1" d="M523.44,111.31V49.53h11.12v61.78Zm11.12,12.36V111.31h11.13v12.36ZM545.69,136V123.67h44.48V49.53h11.12V136Z"/><path class="cls-1" d="M641.19,123.67V86.6h11.12v37.07ZM652.31,86.6V74.24h55.6V86.6Zm0,49.42V123.67h55.6V136Z"/><path class="cls-1" d="M722.3,123.67V111.31h11.12v12.36ZM733.42,86.6V74.24h33.36V86.6Zm0,49.42V123.67h33.36V111.31H733.42V99h33.36V86.6H777.9v37.07H789V136Z"/><path class="cls-1" d="M803.41,136V74.24h44.48V86.6H814.53V136Zm44.48,0V86.6H859V136Z"/><path class="cls-1" d="M884.52,74.24V61.88H873.4V49.53h22.25V74.24ZM873.4,86.6V74.24h11.12V86.6Z"/><path class="cls-1" d="M932.27,123.67V86.6H910V74.24h22.24V61.88h11.12V74.24h22.25V86.6H943.39v37.07ZM943.39,136V123.67h22.25V136Z"/><path class="cls-1" d="M523.44,256.85V195.06h11.12v24.72h11.13v12.35H534.56v24.72Zm22.25-37.07V207.42h11.12v12.36Zm11.12-12.36V195.06h33.36v12.36Z"/><path class="cls-1" d="M604.56,244.49V207.42h11.12v12.36h44.48V207.42h11.12v24.71h-55.6v12.36Zm11.12-37.07V195.06h44.48v12.36Zm0,49.43V244.49h55.6v12.36Z"/><path class="cls-1" d="M685.67,219.78V207.42h11.12v12.36Zm0,37.07V244.49h55.6v12.36Zm11.12-49.43V195.06h44.48v12.36Zm0,24.71V219.78h44.48v12.35Zm44.48,12.36V232.13h11.12v12.36Z"/><path class="cls-1" d="M789,244.49V207.42H766.78V195.06H789V182.71h11.12v12.35h22.25v12.36H800.14v37.07Zm11.12,12.36V244.49h22.25v12.36Z"/><path class="cls-1" d="M836.77,244.49V232.13h11.12v12.36Zm11.12-37.07V195.06h33.37v12.36Zm0,49.43V244.49h33.37V232.13H847.89V219.78h33.37V207.42h11.12v37.07H903.5v12.36Z"/><path class="cls-1" d="M917.89,256.85V195.06H929v24.72h11.12v12.35H929v24.72Zm22.24-37.07V207.42h11.12v12.36Zm11.12-12.36V195.06h33.36v12.36Z"/><path class="cls-1" d="M1021.24,244.49V207.42H999V195.06h22.24V182.71h11.12v12.35h22.24v12.36h-22.24v37.07Zm11.12,12.36V244.49h22.24v12.36Z"/><path class="cls-1" d="M523.44,365.31V315.89h11.12v49.42Zm11.12,12.36V365.31h33.37V315.89h11.12v61.78Z"/><path class="cls-1" d="M593.44,377.67V315.89h11.12V340.6h11.12V353H604.56v24.71Zm22.24-37.07V328.24H626.8V340.6Zm11.12-12.36V315.89h33.36v12.35Z"/><path class="cls-1" d="M700.06,377.67v-86.5h11.12v86.5Z"/><path class="cls-1" d="M725.56,315.89V303.53h11.13v12.36Zm0,61.78V328.24h11.13v49.43Z"/><path class="cls-1" d="M773.32,377.67V340.6H751.07V328.24h22.25V303.53h11.12v24.71H817.8V340.6H784.44v37.07Zm11.12-74.14V291.17h22.24v12.36Zm22.24,12.36V303.53H817.8v12.36Z"/><path class="cls-1" d="M832.19,365.31V328.24h11.12V340.6h44.48V328.24h11.12V353h-55.6v12.35Zm11.12-37.07V315.89h44.48v12.35Zm0,49.43V365.31h55.6v12.36Z"/><rect x="88.2" y="3.14" width="39.39" height="39.39"/><rect x="130.73" y="3.14" width="39.4" height="39.39"/><rect class="cls-2" x="217.23" y="132.16" width="36.53" height="36.53"/><rect class="cls-3" x="174.69" y="132.16" width="36.53" height="36.53"/><rect class="cls-2" x="174.69" y="89.63" width="36.53" height="36.53"/><rect class="cls-2" x="132.16" y="47.1" width="36.53" height="36.53"/><rect class="cls-3" x="89.63" y="47.1" width="36.53" height="36.53"/><rect class="cls-3" x="45.6" y="88.13" width="0.07" height="0.07"/><rect class="cls-3" x="47.1" y="89.63" width="36.53" height="36.53"/><path class="cls-4" d="M45.6,88.13v.07h.07v-.07Z"/><rect class="cls-2" x="45.6" y="130.66" width="0.07" height="0.07"/><rect class="cls-2" x="47.1" y="132.16" width="36.53" height="36.53"/><path class="cls-4" d="M45.6,130.66v.07h.07v-.07Z"/><rect class="cls-3" x="45.6" y="173.2" width="0.07" height="0.06"/><rect class="cls-3" x="47.1" y="174.7" width="36.53" height="36.53"/><rect class="cls-3" x="45.6" y="212.66" width="0.07" height="0.07"/><path class="cls-4" d="M45.6,212.66v.07h.07v-.07Zm0-39.46v.06h.07v-.06Z"/><rect class="cls-2" x="132.16" y="132.16" width="36.53" height="36.53"/><rect class="cls-3" x="132.16" y="174.7" width="36.53" height="36.53"/><rect class="cls-2" x="89.63" y="174.7" width="36.53" height="36.53"/><rect class="cls-2" x="174.69" y="174.7" width="36.53" height="36.53"/><rect class="cls-3" x="217.23" y="174.7" width="36.53" height="36.53"/><rect class="cls-5" x="259.76" y="174.7" width="36.53" height="36.53"/><rect class="cls-6" x="302.29" y="174.7" width="36.53" height="36.53"/><rect class="cls-7" x="344.82" y="174.7" width="36.53" height="36.53"/><rect class="cls-3" x="89.63" y="217.23" width="36.53" height="36.53"/><rect class="cls-2" x="132.16" y="217.23" width="36.53" height="36.53"/><rect class="cls-3" x="174.69" y="217.23" width="36.53" height="36.53"/><rect class="cls-5" x="217.23" y="217.23" width="36.53" height="36.53"/><rect class="cls-6" x="259.76" y="217.23" width="36.53" height="36.53"/><rect class="cls-3" x="259.76" y="132.16" width="36.53" height="36.53"/><rect class="cls-2" x="259.76" y="89.63" width="36.53" height="36.53"/><rect class="cls-3" x="302.29" y="89.63" width="36.53" height="36.53"/><rect class="cls-2" x="302.29" y="47.1" width="36.53" height="36.53"/><rect class="cls-3" x="344.82" y="47.1" width="36.53" height="36.53"/><rect class="cls-5" x="344.82" y="89.63" width="36.53" height="36.53"/><rect class="cls-6" x="387.35" y="89.63" width="36.53" height="36.53"/><rect class="cls-7" x="387.35" y="132.16" width="36.53" height="36.53"/><rect class="cls-6" x="344.82" y="132.16" width="36.53" height="36.53"/><rect class="cls-5" x="302.29" y="132.16" width="36.53" height="36.53"/><rect class="cls-8" x="387.35" y="174.7" width="36.53" height="36.53"/><rect class="cls-8" x="344.82" y="217.23" width="36.53" height="36.53"/><rect class="cls-7" x="302.29" y="217.23" width="36.53" height="36.53"/><rect class="cls-8" x="302.29" y="259.76" width="36.53" height="36.53"/><rect class="cls-7" x="259.76" y="259.76" width="36.53" height="36.53"/><rect class="cls-6" x="217.23" y="259.76" width="36.53" height="36.53"/><rect class="cls-5" x="174.69" y="259.76" width="36.53" height="36.53"/><rect class="cls-3" x="132.16" y="259.76" width="36.53" height="36.53"/><rect class="cls-6" x="174.69" y="302.29" width="36.53" height="36.53"/><path class="cls-4" d="M471,127.59V85.06H428.45V42.53H385.92V0h-88.2V42.53H255.19V85.06h-39.4V42.53H173.26V0H85.06V42.53H42.53V85.06H0V215.8H42.53v42.53H85.06v42.53h42.53v42.53h42.54v42.53h42.53v42.54h45.67V385.92h42.53V343.39h42.53V300.86h42.53V258.33h42.53V215.8H471V130.73h-1.56v-3.14ZM42.53,212.66H3.13v-39.4h39.4Zm0-42.53H3.13v-39.4h39.4Zm0-42.54H3.13V88.2h39.4ZM45.6,88.13h.07v.07H45.6Zm0,42.53h.07v.07H45.6Zm0,42.54h.07v.06H45.6Zm0,39.46h.07v.07H45.6Zm39.46,42.53H45.67V215.8H85.06Zm-1.43-123v36.53H47.1V132.16Zm-36.53-6V89.63H83.63v36.53ZM83.63,174.7v36.53H47.1V174.7Zm1.43-89.64H45.67V45.67H85.06Zm42.53,212.66H88.2V258.33h39.39Zm-1.43-123v36.53H89.63V174.7ZM89.63,83.63V47.1h36.53V83.63Zm36.53,133.6v36.53H89.63V217.23Zm1.43-174.7H88.2V3.14h39.39Zm42.54,297.72h-39.4V300.86h39.4Zm-1.44-208.09v36.53H132.16V132.16ZM132.16,83.63V47.1h36.53V83.63Zm36.53,91.07v36.53H132.16V174.7Zm0,42.53v36.53H132.16V217.23Zm0,42.53v36.53H132.16V259.76Zm1.44-217.23h-39.4V3.14h39.4Zm42.53,340.26h-39.4v-39.4h39.4Zm-1.44-250.63v36.53H174.69V132.16Zm-36.53-6V89.63h36.53v36.53Zm36.53,48.54v36.53H174.69V174.7Zm0,42.53v36.53H174.69V217.23Zm0,42.53v36.53H174.69V259.76Zm0,42.53v36.53H174.69V302.29Zm1.44-217.23h-39.4V45.67h39.4Zm42.53,340.26h-39.4v-39.4h39.4ZM253.76,174.7v36.53H217.23V174.7Zm-36.53-6V132.16h36.53v36.53Zm36.53,48.54v36.53H217.23V217.23Zm0,42.53v36.53H217.23V259.76Zm0,42.53v36.53H217.23V302.29Zm0,42.53v36.53H217.23V344.82Zm1.43-217.23h-39.4V88.2h39.4Zm42.53,255.2H258.33v-39.4h39.39Zm-1.43-250.63v36.53H259.76V132.16Zm-36.53-6V89.63h36.53v36.53Zm36.53,48.54v36.53H259.76V174.7Zm0,42.53v36.53H259.76V217.23Zm0,42.53v36.53H259.76V259.76Zm0,42.53v36.53H259.76V302.29Zm1.43-217.23H258.33V45.67h39.39Zm42.53,255.19H300.86V300.86h39.39ZM338.82,89.63v36.53H302.29V89.63Zm-36.53-6V47.1h36.53V83.63Zm36.53,48.53v36.53H302.29V132.16Zm0,42.54v36.53H302.29V174.7Zm0,42.53v36.53H302.29V217.23Zm0,42.53v36.53H302.29V259.76Zm1.43-217.23H300.86V3.14h39.39Zm42.53,255.19H343.39V258.33h39.39ZM381.35,89.63v36.53H344.82V89.63Zm-36.53-6V47.1h36.53V83.63Zm36.53,48.53v36.53H344.82V132.16Zm0,42.54v36.53H344.82V174.7Zm0,42.53v36.53H344.82V217.23Zm1.43-174.7H343.39V3.14h39.39Zm42.54,212.66h-39.4V215.8h39.4Zm-1.44-123v36.53H387.35V132.16Zm-36.53-6V89.63h36.53v36.53Zm36.53,48.54v36.53H387.35V174.7Zm1.44-89.64h-39.4V45.67h39.4Zm42.53,127.6h-39.4v-39.4h39.4Zm0-42.53h-39.4v-39.4h39.4Zm0-42.54h-39.4V88.2h39.4Z"/><rect class="cls-7" x="217.23" y="302.29" width="36.53" height="36.53"/><rect class="cls-8" x="259.76" y="302.29" width="36.53" height="36.53"/><rect class="cls-8" x="217.23" y="344.82" width="36.53" height="36.53"/><rect x="173.26" y="45.67" width="39.4" height="39.39"/><rect x="215.79" y="88.2" width="39.4" height="39.39"/><rect x="258.33" y="45.67" width="39.39" height="39.39"/><rect x="300.86" y="3.14" width="39.39" height="39.39"/><rect x="343.39" y="3.14" width="39.39" height="39.39"/><rect x="385.92" y="45.67" width="39.4" height="39.39"/><rect x="428.45" y="88.2" width="39.4" height="39.39"/><path class="cls-4" d="M469.42,127.59v3.14H471v-3.14Z"/><rect x="428.45" y="130.73" width="39.4" height="39.4"/><path class="cls-4" d="M469.42,127.59v3.14H471v-3.14Z"/><rect x="428.45" y="173.26" width="39.4" height="39.4"/><rect x="385.92" y="215.8" width="39.4" height="39.39"/><rect x="343.39" y="258.33" width="39.39" height="39.39"/><rect x="300.86" y="300.86" width="39.39" height="39.39"/><rect x="258.33" y="343.39" width="39.39" height="39.4"/><rect x="173.26" y="343.39" width="39.4" height="39.4"/><rect x="130.73" y="300.86" width="39.4" height="39.39"/><rect x="88.2" y="258.33" width="39.39" height="39.39"/><rect x="45.67" y="215.8" width="39.39" height="39.39"/><path class="cls-4" d="M45.6,212.66v.07h.07v-.07Z"/><rect x="3.13" y="173.26" width="39.4" height="39.4"/><path class="cls-4" d="M45.6,173.2v.06h.07v-.06Zm0,39.46v.07h.07v-.07Z"/><rect x="3.13" y="130.73" width="39.4" height="39.4"/><path class="cls-4" d="M45.6,173.2v.06h.07v-.06Z"/><rect x="3.13" y="88.2" width="39.4" height="39.39"/><path class="cls-4" d="M45.6,88.13v.07h.07v-.07Z"/><rect class="cls-4" x="45.6" y="130.66" width="0.07" height="0.07"/><rect x="45.67" y="45.67" width="39.39" height="39.39"/><path class="cls-4" d="M45.6,88.13v.07h.07v-.07Z"/><rect x="215.79" y="385.92" width="39.4" height="39.4"/></g></g></svg>