<svg xmlns="http://www.w3.org/2000/svg" viewBox="0 0 454.16 235.51"><defs><style>.cls-1,.cls-2,.cls-3,.cls-4,.cls-5,.cls-7,.cls-8{fill:none;}.cls-1,.cls-2,.cls-3,.cls-4,.cls-5,.cls-6,.cls-7,.cls-8{stroke:#000;}.cls-1,.cls-2,.cls-3,.cls-4,.cls-5,.cls-6,.cls-7{stroke-miterlimit:10;}.cls-1,.cls-2,.cls-8{stroke-width:2.16px;}.cls-2,.cls-8{stroke-linecap:round;}.cls-3{stroke-width:1.77px;}.cls-4{stroke-width:0.62px;}.cls-5{stroke-width:0.6px;}.cls-6,.cls-7{stroke-width:1.08px;}.cls-8{stroke-linejoin:round;}.cls-9{fill:#ab1f24;}.cls-10{fill:#007f7f;}.cls-11{fill:#2b999a;}.cls-12{fill:#f99f1d;}.cls-13{fill:#f06524;}.cls-14{fill:#ce2029;}</style></defs><title>maze</title><g id="Layer_2" data-name="Layer 2"><g id="Our_story" data-name="Our story"><g id="whitebg"><path d="M82.61,214.28c.32,0,.66,0,1,.05,2.22.21,4.8,2.15,5.11,5.85v1.24c-.29,3.55-3.11,7.93-11.36,13.42C69.14,229.35,66.32,225,66,221.42v-1.24c.31-3.7,2.89-5.64,5.11-5.85.37,0,.71-.05,1-.05,2.57,0,3.81,1.06,5.22,2.66,1.41-1.6,2.65-2.66,5.22-2.66m0,2.36c-1.48,0-2.1.43-3.32,1.81l-1.9,2.16v11.32c5.59-4,8.57-7.51,8.87-10.61v-1c-.24-2.47-1.84-3.51-2.87-3.61-.28,0-.54,0-.78,0Z"/><ellipse class="cls-1" cx="30.8" cy="221.73" rx="13.4" ry="12.7"/><path class="cls-2" d="M24.73,229c.5-1.91,3.13-3.37,6.31-3.37s6,1.55,6.34,3.54"/><path class="cls-2" d="M28.32,217.8c.05,2.26,0,3,0,3"/><line class="cls-2" x1="32.43" y1="216.44" x2="32.43" y2="221.17"/><path class="cls-1" d="M14.4,227.68h0a2.48,2.48,0,0,1-2.47-2.47s-1-.68-1-3.05,1-3,1-3a2.48,2.48,0,0,1,2.47-2.47h0a2.48,2.48,0,0,1,2.47,2.47v6.09A2.48,2.48,0,0,1,14.4,227.68Z"/><path class="cls-1" d="M46.67,227.68h0a2.48,2.48,0,0,0,2.47-2.47s1-.68,1-3.05-1-3-1-3a2.48,2.48,0,0,0-2.47-2.47h0a2.48,2.48,0,0,0-2.47,2.47v6.09A2.48,2.48,0,0,0,46.67,227.68Z"/><path class="cls-2" d="M16.53,216.38c1-6.17,5.82-11.12,14.27-11.12,6.79,0,13.09,5.08,14.05,11.12"/><path d="M110.1,214.93c.32,0,.66,0,1,0,2.22.21,4.8,2.14,5.11,5.85v1.23c-.29,3.55-3.11,7.93-11.36,13.42-8.24-5.49-11.07-9.87-11.36-13.42v-1.23c.32-3.71,2.89-5.64,5.12-5.85.36,0,.7,0,1,0,2.58,0,3.81,1,5.22,2.65,1.41-1.6,2.65-2.65,5.22-2.65m0,2.36c-1.48,0-2.09.43-3.31,1.81l-1.91,2.15L103,219.1c-1.22-1.38-1.84-1.81-3.32-1.81a7.28,7.28,0,0,0-.78,0c-1,.09-2.63,1.13-2.87,3.6v1c.3,3.1,3.28,6.67,8.87,10.61,5.59-3.94,8.57-7.51,8.88-10.61v-1c-.25-2.47-1.85-3.51-2.87-3.6a7.46,7.46,0,0,0-.79,0Z"/><path d="M137.59,214.93c.32,0,.67,0,1,0,2.23.21,4.8,2.14,5.11,5.85v1.23c-.29,3.55-3.11,7.93-11.36,13.42-8.24-5.49-11.06-9.87-11.35-13.42v-1.23c.31-3.71,2.88-5.64,5.11-5.85.36,0,.71,0,1,0,2.57,0,3.8,1,5.21,2.65,1.42-1.6,2.65-2.65,5.22-2.65m0,2.36c-1.48,0-2.09.43-3.31,1.81l-1.9,2.15-1.91-2.15c-1.22-1.38-1.84-1.81-3.31-1.81a7.46,7.46,0,0,0-.79,0c-1,.09-2.63,1.13-2.87,3.6v1c.3,3.1,3.29,6.67,8.87,10.61,5.59-3.94,8.58-7.51,8.88-10.61v-1c-.24-2.47-1.84-3.51-2.87-3.6a7.46,7.46,0,0,0-.79,0Z"/><path class="cls-3" d="M104.69,97.9c0,.92-.78,1.77-2.07,2.41a14.68,14.68,0,0,1-6.31,1.24,15.06,15.06,0,0,1-5.92-1.07,2.22,2.22,0,0,1-.38-.18c-1.3-.63-2.08-1.48-2.08-2.4,0-2,3.75-3.65,8.38-3.65S104.69,95.88,104.69,97.9Z"/><path class="cls-3" d="M104.69,97.9l-2.07,18.18c4.06,1.92,6.81,5.62,6.81,9.87,0,6.21-5.87,11.25-13.12,11.25s-13.12-5-13.12-11.25c0-4.25,2.76-8,6.82-9.87L87.93,97.9"/><path class="cls-4" d="M99.2,118.29a5.09,5.09,0,0,0-2.64-.74h0a5.08,5.08,0,0,0-2.63.74,3.87,3.87,0,0,0-.76,5.45c.51.82.18,1.3.47,1.48s1.15-.09,1.4.24-.07,1.19-.07,1.19a3.72,3.72,0,0,0,1.6.4,3.66,3.66,0,0,0,1.59-.4s-.32-.86-.07-1.19,1.08-.21,1.41-.24,0-.66.47-1.48A3.87,3.87,0,0,0,99.2,118.29Zm-4,5.4a.86.86,0,1,1,1-1C96.19,123.19,95.76,123.62,95.17,123.69Zm1,1.16.21-.42.21-.43.21.43.21.42ZM98,123.69a.87.87,0,1,1,1.2-.65A1,1,0,0,1,98,123.69Z"/><rect class="cls-5" x="91.97" y="128.96" width="8.96" height="1.5" transform="translate(51.79 -25.64) rotate(20.6)"/><rect class="cls-5" x="91.99" y="128.96" width="8.96" height="1.5" transform="translate(234.92 213.17) rotate(157.73)"/><rect class="cls-6" x="341.11" y="93.41" width="22.3" height="7.43"/><path d="M355,84v50.06l-1.75,1.63-1,.9-1-.9-1.74-1.63V84H355m2.16-2.16h-9.75V135l2.44,2.27,2.44,2.28,2.44-2.28,2.43-2.27V81.87Z"/><line class="cls-7" x1="352.27" y1="109.55" x2="352.27" y2="133.92"/><path d="M437.1,86.08a9.44,9.44,0,0,1,1,0c2.22.2,4.8,2.14,5.11,5.85v1.23c-.29,3.55-3.11,7.93-11.36,13.42-8.24-5.49-11.06-9.87-11.36-13.42V92c.32-3.71,2.89-5.65,5.12-5.85a9.15,9.15,0,0,1,1,0c2.58,0,3.81,1,5.22,2.65,1.41-1.6,2.65-2.65,5.22-2.65m0,2.36c-1.48,0-2.09.43-3.31,1.81l-1.91,2.15L430,90.25c-1.22-1.38-1.84-1.81-3.32-1.81l-.78,0c-1,.1-2.63,1.14-2.87,3.61v1c.3,3.1,3.28,6.67,8.87,10.61,5.59-4,8.58-7.51,8.88-10.61v-1c-.25-2.47-1.85-3.51-2.87-3.61l-.79,0Z"/><path d="M437.1,109c.32,0,.66,0,1,0,2.22.21,4.8,2.14,5.11,5.85v1.24c-.29,3.55-3.11,7.92-11.36,13.42-8.24-5.5-11.06-9.87-11.36-13.42v-1.24c.32-3.71,2.89-5.64,5.12-5.85.36,0,.7,0,1,0,2.58,0,3.81,1.06,5.22,2.66,1.41-1.6,2.65-2.66,5.22-2.66m0,2.36c-1.48,0-2.09.43-3.31,1.81l-1.91,2.16-1.9-2.16c-1.22-1.38-1.84-1.81-3.32-1.81a7.28,7.28,0,0,0-.78,0c-1,.1-2.63,1.13-2.87,3.6v1c.3,3.1,3.28,6.66,8.87,10.61,5.59-4,8.58-7.51,8.88-10.61v-1c-.25-2.47-1.85-3.5-2.87-3.6a7.46,7.46,0,0,0-.79,0Z"/><path class="cls-2" d="M424.46,42.7c.49-1.92,3.12-3.38,6.3-3.38s6,1.55,6.34,3.55"/><line class="cls-2" x1="434.26" y1="30.1" x2="434.26" y2="34.83"/><line class="cls-2" x1="427" y1="30.1" x2="427" y2="34.83"/><path class="cls-8" d="M442.08,27.13s5.13-6.43,10.3-5.44"/><path class="cls-8" d="M450.58,19.32c-5.31,1.52-9.79,7.27-9.79,7.27"/><path class="cls-8" d="M442.31,28.61s7.05-5.74,10.77-3.53"/><path class="cls-8" d="M451.64,23.06c-5.49-1.16-9.33,5.55-9.33,5.55"/><path class="cls-8" d="M419.27,27.42s-5.53-6.09-10.63-4.75"/><path class="cls-8" d="M410.28,20.18c5.41,1.17,10.24,6.62,10.24,6.62"/><path class="cls-8" d="M419.14,28.91s-7.41-5.26-11-2.82"/><path class="cls-8" d="M409.47,24c5.4-1.51,9.67,4.93,9.67,4.93"/><ellipse class="cls-1" cx="430.78" cy="35.37" rx="13.4" ry="12.7"/><path class="cls-9" d="M72.17,216.64c-.24,0-.5,0-.79,0-1,.1-2.62,1.14-2.87,3.61v1c.31,3.1,3.29,6.66,8.88,10.61V220.61l-1.9-2.16c-1.22-1.38-1.84-1.81-3.32-1.81Z"/><path d="M436,63.11c.32,0,.67,0,1,0,2.23.21,4.8,2.14,5.12,5.85v1.23c-.3,3.55-3.12,7.93-11.36,13.42-8.25-5.49-11.07-9.87-11.36-13.42V69c.31-3.71,2.88-5.64,5.11-5.85.37,0,.71,0,1,0,2.57,0,3.8,1,5.22,2.65,1.41-1.6,2.64-2.65,5.21-2.65m0,2.36c-1.47,0-2.09.43-3.31,1.81l-1.9,2.15V80.75c5.59-3.94,8.57-7.51,8.87-10.61v-1c-.24-2.47-1.84-3.51-2.87-3.6a7.33,7.33,0,0,0-.79,0Z"/><path class="cls-9" d="M425.56,65.47a7.46,7.46,0,0,0-.79,0c-1,.09-2.62,1.13-2.87,3.6v1c.3,3.1,3.29,6.67,8.88,10.61V69.43l-1.91-2.15c-1.22-1.38-1.83-1.81-3.31-1.81Z"/><polygon points="192.28 0.25 192.28 190.62 39.95 190.62 39.95 40.33 152.13 40.33 152.13 150.68 126.06 150.68 126.06 124.6 126.06 124.6 126.06 66.41 66.03 66.41 66.03 164.55 166.21 164.55 166.21 26.33 26.2 26.33 26.2 106.56 0.12 106.77 0.12 0.25 192.28 0.25"/><polygon points="403.01 39.33 403.01 65.4 402.79 65.4 402.79 190.62 212.63 190.62 212.63 0 255.72 0 255.72 25.59 238.72 25.59 238.72 164.55 376.72 164.55 376.72 65.4 282.82 65.4 282.82 125.15 325.16 125.15 325.16 151.23 256.75 151.23 256.75 39.33 403.01 39.33"/><rect class="cls-10" x="377.33" y="-0.09" width="25.58" height="25.76" transform="translate(377.33 402.91) rotate(-90)"/><rect class="cls-11" x="351.57" y="-0.09" width="25.58" height="25.76" transform="translate(351.57 377.15) rotate(-90)"/><rect class="cls-12" x="325.8" y="-0.09" width="25.58" height="25.76" transform="translate(325.8 351.39) rotate(-90)"/><rect class="cls-13" x="300.04" y="-0.09" width="25.58" height="25.76" transform="translate(300.04 325.63) rotate(-90)"/><rect class="cls-14" x="274.28" y="-0.09" width="25.58" height="25.76" transform="translate(274.28 299.86) rotate(-90)"/><rect class="cls-9" x="248.52" y="-0.09" width="25.58" height="25.76" transform="translate(248.52 274.1) rotate(-90)"/><rect class="cls-10" y="164.61" width="26.19" height="26.19"/><rect class="cls-11" y="138.42" width="26.19" height="26.19"/><rect class="cls-12" y="112.23" width="26.19" height="26.19"/><rect class="cls-13" y="86.04" width="26.19" height="26.19"/><rect class="cls-14" y="59.85" width="26.19" height="26.19"/><rect class="cls-9" y="33.66" width="26.19" height="26.19"/></g></g></g></svg>