<svg xmlns="http://www.w3.org/2000/svg" viewBox="0 0 475.78 299.5"><defs><style>.cls-1{fill:#f99f1d;}.cls-2,.cls-3,.cls-4,.cls-5{fill:none;stroke-linecap:round;stroke-linejoin:round;}.cls-2,.cls-3,.cls-5{stroke:#fff;}.cls-2{stroke-width:1.96px;}.cls-3{stroke-width:1.9px;}.cls-4{stroke:#000;stroke-width:1.57px;}.cls-5{stroke-width:1.83px;}.cls-6{fill:#d31247;}</style></defs><title>pair</title><g id="Layer_2" data-name="Layer 2"><g id="Our_story" data-name="Our story"><g id="whitebg"><rect class="cls-1" width="475.78" height="299.5"/><path class="cls-2" d="M71.14,273.83,79,198.53a.51.51,0,0,0-1-.18L66,239.88c-1,3.34-3.44,12.36-7,12.58-7.21.45-19.61-1.11-21.87-8.28C33.73,233.55,50.14,140.49,70.3,134c14.46-4.69,21.15-10.65,23.77-13.64a5.86,5.86,0,0,0,1.43-3.86V112a3.24,3.24,0,0,0-1.56-2.76L82.29,102.1a4.86,4.86,0,0,0-5-.09c-4.47,2.64-13.86,5.06-11.45-23.44a8.88,8.88,0,0,1,6.07-7.75c8.55-2.65,9.62,12.08,9.64,19.24a1.75,1.75,0,0,1-3,1.21C71.1,84,54.33,61.88,92.66,35.25a26.12,26.12,0,0,1,6.16-3.14c41.86-14.6,50.28,11.41,51.86,25.61a50.33,50.33,0,0,1,.27,8.33S139.68,91.7,151,98c16.94-20,6.45-32.2,2.24-32.52s-23.1,22.5,8.81,33.33"/><path class="cls-3" d="M151.47,100.68A159.2,159.2,0,0,1,136.91,112c-3.62,2.41-3.62,5.64-2.71,8.25a9.94,9.94,0,0,0,5.9,5.88l14.76,5.78c.38.15.76.32,1.14.5l13.61,6.81a8.9,8.9,0,0,1,3.25,2.78c6.5,9.08,29.29,61.92,31.53,93.1a5.46,5.46,0,0,1-5.66,5.81c-11.52-.37-18.48-1.84-22.34-3.05a7.65,7.65,0,0,1-5.11-5.29L159.47,192.2a.8.8,0,0,0-1.57.2s21.95,73,15.26,84.66"/><path class="cls-4" d="M118.44,177.14a104.93,104.93,0,0,1-8.72-8.94"/><line class="cls-4" x1="111.92" y1="181.11" x2="100.03" y2="174.16"/><line class="cls-4" x1="107.53" y1="189.39" x2="93.95" y2="188.06"/><path class="cls-4" d="M142.93,174.16s2-9.26,10.92-11.25"/><line class="cls-4" x1="148.72" y1="174.16" x2="157.1" y2="166.88"/><line class="cls-4" x1="153.85" y1="179.15" x2="162.79" y2="172.67"/><path class="cls-5" d="M328.54,272c-8.53-26,5.14-67.1,5.14-67.1.06-.54-.8-.69-1-.16l-7.69,28a7.93,7.93,0,0,1-7.22,5.41c-6.91.41-17.86,0-20-6.51-3.22-9.62,8.28-79.3,27.6-85.22,13.87-4.25,20.27-9.64,22.79-12.35a5.1,5.1,0,0,0,1.37-3.49v-4a2.89,2.89,0,0,0-1.49-2.49l-11.18-6.49a4.88,4.88,0,0,0-4.77-.08c-4.28,2.39-13.29,4.58-11-21.21a8.09,8.09,0,0,1,5.82-7c8.2-2.4,9.22,10.93,9.24,17.41a1.7,1.7,0,0,1-2.87,1.09c-7.17-6.56-23.25-26.59,13.5-50.69a25.34,25.34,0,0,1,5.91-2.83c40.12-13.22,48.19,10.31,49.7,23.17A42.4,42.4,0,0,1,402.7,85s-10.8,23.2.06,28.86C419,95.74,409,84.74,404.91,84.45s-22.14,20.36,8.44,30.16"/><path class="cls-3" d="M395.78,115.77a159.2,159.2,0,0,1-14.56,11.28c-3.63,2.41-3.63,5.63-2.72,8.25a10,10,0,0,0,5.9,5.88L399.16,147c.39.16.77.32,1.14.51l13.61,6.81a8.79,8.79,0,0,1,3.25,2.77c6.5,9.09,23.58,41,25.83,72.16a5.48,5.48,0,0,1-5.67,5.82c-11.52-.38-18.48-1.85-22.34-3.06a7.63,7.63,0,0,1-5.11-5.29l-6.09-19.39a.81.81,0,0,0-1.58.2L409.53,273"/><path d="M78.65,273.77a280.39,280.39,0,0,0,5.18-38q.63-9.39.6-18.81c0-5.56.06-11.23-.9-16.72-.91-5.14-3.23-10.19-8-12.83a2.9,2.9,0,0,0-3.46.44c-4,4.66-2.3,10.44-1,15.78a78.89,78.89,0,0,1,2.44,15.94,37.15,37.15,0,0,1-2.28,15.25c-1.72,4.25-5,9.25-9.59,10.7-4.38,1.38-8.65-1.19-11.19-4.71-3.31-4.58-3.63-10.19-2.58-15.61,1.25-6.41,3.84-12.49,5.86-18.68s3.83-12.6,5.35-19,2.75-12.85,3.72-19.35c.93-6.17,1.65-12.39,3.32-18.41,2.65-9.48,8.88-19.39,19.38-20.87,4.34-.61,9.23-.59,12.82-3.46a8,8,0,0,0,3-6c.13-3-1.54-5.79-3.49-8A27.3,27.3,0,0,0,83.1,103.2a29.24,29.24,0,0,0-4.28-.51,19.4,19.4,0,0,1-3.66-.19c-2.27-.55-2.08-4-2.2-5.79a82.75,82.75,0,0,1,0-9.58A36.15,36.15,0,0,1,74,78.39c.38-1.24,1-2.76,2.26-2,2,1.23,2.71,5,3.19,7A19.07,19.07,0,0,1,80,91.35c-.32,1.49-1.22,3.92-2.6,4.39-.42.15-.75.08-1.23-.39a5.9,5.9,0,0,1-1.28-2.84,19.55,19.55,0,0,1-.2-8.27,21.33,21.33,0,0,1,3-7.48l-4.49.58c3.81,4.92,3.84,12.81-.75,17.2l4.78,1.26a18.75,18.75,0,0,1,1-15.3l-4.49.58c4.76,5.39,4.27,14.33-.8,19.32h4a4.59,4.59,0,0,1-1.51-3.72,51.44,51.44,0,0,1,.37-6.91c.45-5,1.16-9.92,2-14.85C79,67,80,58.72,84.11,51.7c3.6-6.12,9.2-10,15.84-12.24a44.19,44.19,0,0,1,21.6-2,34.8,34.8,0,0,1,18.84,9.2c5.06,5,7.9,11.69,9.42,18.58a75.48,75.48,0,0,1,1.08,22.55,64.64,64.64,0,0,1-1.58,10.81,4.11,4.11,0,0,1-.79,1.72c-.28.34-.39.22-.57.19.48.07-.38-.32-.57-.5a6.36,6.36,0,0,1-1.32-2,13.51,13.51,0,0,1-.95-5.74,70.12,70.12,0,0,1,.42-8.45,28.71,28.71,0,0,1,1.44-7.6c.23-.57.83-1.1,1-1.63.54-1.56.25-.12.27-.23a.55.55,0,0,1-.49-.09.6.6,0,0,1,.24.28,23.13,23.13,0,0,0,1.22,2.84,24.58,24.58,0,0,1,.86,3.27,24.11,24.11,0,0,1,.3,6.46,23.83,23.83,0,0,1-4.53,12l4.49-.58a13.65,13.65,0,0,1,0-18.3l-4.48-.58a15.94,15.94,0,0,1,.1,15.43l4.49-.57a10.15,10.15,0,0,1-2.6-5.72c0-.25.15-1.58.12-1.62s-.93.31-.93.35.59.32.64.35c.47.27.93.58,1.38.89A39.51,39.51,0,0,1,158,97.47c5.28,6.89,9,14.85,13.18,22.41a135,135,0,0,0,34.62,40.18c14.19,11.25,30,20.26,46.24,28.13,8.11,3.92,16.35,7.57,24.65,11.08a101.5,101.5,0,0,0,23.07,7c17.61,3,36.58,2.45,53.52-3.58,2.17-.77,4.29-1.64,6.39-2.59a2.89,2.89,0,0,0,1-3.91,2.92,2.92,0,0,0-3.91-1c-16.31,7.4-35.68,8.54-53.22,6a94.18,94.18,0,0,1-23.09-6.36c-8.6-3.63-17.14-7.4-25.54-11.46-16.45-7.95-32.57-17-46.78-28.6a141.56,141.56,0,0,1-19.43-19,132.86,132.86,0,0,1-14.66-22.4c-4.24-7.9-8.4-16-14.45-22.71a41.19,41.19,0,0,0-4.84-4.59c-1.76-1.41-3.78-3.16-6-3.83a4.94,4.94,0,0,0-6.2,3.18,11,11,0,0,0,.11,6.76,16.67,16.67,0,0,0,3.71,6.51A2.89,2.89,0,0,0,151,98a21.89,21.89,0,0,0-.11-21.2,2.89,2.89,0,0,0-4.49-.58,19.47,19.47,0,0,0,0,26.38,2.9,2.9,0,0,0,4.49-.58,29.44,29.44,0,0,0,3.53-27.27C153.43,72.42,152.4,70,150,69a5.67,5.67,0,0,0-6.28,1.8,13.59,13.59,0,0,0-2.88,6.54,76.89,76.89,0,0,0-1.18,8.54c-.4,5-.72,10.36,1.51,15,1.83,3.79,6,6.93,10.21,4.44,3.93-2.35,4.12-8.08,4.66-12.13a99.71,99.71,0,0,0,1-13.37c0-9-1.31-18.16-5.07-26.4a36.68,36.68,0,0,0-17.43-17.82,46.19,46.19,0,0,0-25.75-4C100,32.73,90.92,35.78,84.51,42s-9.34,14.74-10.9,23.34c-1,5.72-2,11.45-2.78,17.21-.39,2.91-.71,5.82-.94,8.74a32.44,32.44,0,0,0,0,7.5,8.94,8.94,0,0,0,3,5.66,2.91,2.91,0,0,0,4,0c7.37-7.26,7.6-19.71.8-27.4a2.88,2.88,0,0,0-4.49.58,24.46,24.46,0,0,0-1.54,19.7,2.89,2.89,0,0,0,4.77,1.26c7-6.73,6.42-18,.75-25.28-1.18-1.52-3.62-.81-4.49.58a26.62,26.62,0,0,0-3.58,18.88c.52,2.91,1.73,6.15,4.4,7.74a6.82,6.82,0,0,0,7.6-.37c5.19-3.84,5.23-11.07,4.17-16.8C84.29,78.09,81,68.7,73.9,70.66c-6.12,1.69-6.3,10.25-6.63,15.27a81.94,81.94,0,0,0,0,11.08c.2,3.06.46,6.35,2.59,8.76,2.34,2.65,5.73,2.49,9,2.63a21.44,21.44,0,0,1,8.32,2.11,20.86,20.86,0,0,1,7,5.34,5.49,5.49,0,0,1,1.5,3.31,2.12,2.12,0,0,1-.84,1.77c-1.2,1.06-3.66,1.47-5.55,1.74a68.35,68.35,0,0,0-7.4,1.08A26.55,26.55,0,0,0,68,133.29c-8.56,10.85-9.14,24.91-11.37,38A262.08,262.08,0,0,1,45.39,213.4c-2.33,6.68-4.38,13.69-3.45,20.84a21.28,21.28,0,0,0,9,14.7,14.47,14.47,0,0,0,16.44.05c5-3.38,8.28-8.84,10.11-14.47,3.83-11.77,1.11-24.08-1.62-35.73-.49-2.09-1.21-5.12.34-6.95l-3.46.45c3.44,1.92,4.67,5.75,5.32,9.42.87,5,.69,10.18.7,15.2a272.75,272.75,0,0,1-2.22,35.44c-.86,6.67-2,13.31-3.36,19.9-.74,3.59,4.76,5.12,5.51,1.52Z"/><path d="M144.13,100.59l-9.49,10.82c-1.55,1.77-3,3.61-3.09,6.06a10.07,10.07,0,0,0,2,6.08c4.12,5.89,10.86,8.3,17.31,10.75a42,42,0,0,1,8.78,4.18,28.63,28.63,0,0,1,7.72,8.24,96.45,96.45,0,0,1,10.81,23.41c2.89,8.74,5.2,17.68,7.56,26.57q3.69,14,7.1,28c1,4,2.31,8.16,2.71,12.17.31,3,.17,6.18-2.92,7.5-6.36,2.7-13.66-1.93-17.46-7-4.94-6.6-6-15.33-7.09-23.27-1.07-8.15-2.19-16.5-6.23-23.81a32.6,32.6,0,0,0-3.52-5.05c-1.3-1.55-3.49-.76-4.49.58-3.47,4.66-3.13,10.77-2,16.18,1.23,6.11,3.05,12.11,4.37,18.21a311,311,0,0,1,5.91,38.76q1,11.06,1.17,22.14c.07,3.67,5.78,3.69,5.72,0a331.22,331.22,0,0,0-10.75-76.77c-1.32-5.08-2.83-11.09.56-15.64l-4.49.58c5.12,6.11,6.64,14.44,7.72,22.1,1.22,8.73,2,17.69,6.2,25.63,3.67,7,10.53,12.71,18.51,13.66,4,.48,8.72-.38,11.61-3.38s3.34-7.1,2.87-11a114.24,114.24,0,0,0-2.91-13.37q-1.73-7.07-3.51-14.11c-2.41-9.46-4.89-18.89-7.52-28.29a172.37,172.37,0,0,0-8.88-25.58c-3.58-7.84-8.2-16.07-15.42-21.09-5.65-3.93-12.67-5.28-18.54-8.38-2.78-1.47-5.35-3.28-6.73-6.09-.8-1.61-.29-2.45.82-3.73,1.6-1.84,3.22-3.66,4.82-5.5l4.83-5.5a2.93,2.93,0,0,0,0-4,2.88,2.88,0,0,0-4,0Z"/><path d="M84.5,80.38c12.26-10,29.61-12.86,44.59-8.49a45.7,45.7,0,0,1,12,5.48c3.11,2,6-3,2.89-4.93-14.9-9.57-34.45-10.72-50.67-3.88a52.29,52.29,0,0,0-12.87,7.78,2.87,2.87,0,0,0,0,4,2.92,2.92,0,0,0,4,0Z"/><path d="M67.89,83.25c-2.82,3.58-5.55,7.24-8.15,11-2.31,3.34-6.44,7.84-4.52,12.19.89,2,3,3.18,4.65,4.43q2.79,2.07,5.59,4.11c1.87,1.37,3.71,2.9,5.69,4.1a5.89,5.89,0,0,0,6.47-.16A44,44,0,0,0,88,108.67c.94-1.22.19-3.2-1-3.91a2.93,2.93,0,0,0-3.91,1,45.08,45.08,0,0,1-4.24,4.71c-.85.82-1.72,1.61-2.63,2.36a7.42,7.42,0,0,1-2.08,1.49c.45-.15.47.17,0-.23-.34-.26-.72-.5-1.07-.75-1.08-.77-2.15-1.55-3.21-2.32-1.94-1.41-3.87-2.82-5.8-4.25-1-.73-2-1.42-3-2.21,0,0-.62-.49-.6-.41-.21-.72,1-2.16,1.35-2.69.62-.94,1.24-1.87,1.87-2.79q4-5.85,8.34-11.41a3,3,0,0,0,0-4c-1-1-3.08-1.22-4,0Z"/><path d="M353.59,55.71a20.25,20.25,0,0,0-20.69-7.89c-3.93.9-7.86,3.3-9.51,7.13a9,9,0,0,0,2.83,10.94l-1-3.91c-1.82,3.49-6.67,4.2-10,6.13-4.19,2.4-8,7.13-6,12.18.38.94,1.07,1.91,1.35,2.81a.6.6,0,0,1,.05.46c-.13.47-.67.89-1,1.22a39.5,39.5,0,0,0-5,5.6c-2.81,4.05-4.31,9.5-1.45,13.94.53.82,1.2,1.54,1.71,2.37a2.55,2.55,0,0,1,.39.89c0-.18.2-.33,0,.15.15-.3-.12.25-.17.33-.85,1.37-3,2.39-4.44,3.48-4.06,3.07-7.63,7.73-6.36,13.11.53,2.29,2,4.13,3.47,5.92,1.21,1.5,2.21,2.82,2.29,4.81.1,2.51-.32,5.07.6,7.49a9.75,9.75,0,0,0,2.35,3.47,13.73,13.73,0,0,1,2.23,2.28c1.15,1.84.65,4.3.13,6.34-.6,2.37-1.55,4.64-1.94,7.06-.75,4.67-.12,10.58,4.75,12.82a3,3,0,0,0,3.91-1,2.88,2.88,0,0,0-1-3.91c-.29-.13-.94-.51-1-.54s-.37-.42-.32-.34a4,4,0,0,1-.8-2,12.65,12.65,0,0,1,.23-4.75c1-4.55,3.16-8.82,2.14-13.61-.55-2.55-2.15-4.34-4-6.07a4.35,4.35,0,0,1-1.42-1.95,10.38,10.38,0,0,1-.16-3.2,14.08,14.08,0,0,0-1.34-7.3c-1-1.83-2.57-3.33-3.67-5a4.39,4.39,0,0,1-.61-4.58,12,12,0,0,1,3.87-4.43c1.73-1.27,3.69-2.26,5.1-3.93a6.78,6.78,0,0,0,1.38-7.1c-.78-1.9-2.64-3.32-3.06-5.31A7.45,7.45,0,0,1,308.47,95a22.11,22.11,0,0,1,4.14-5.2c1.89-1.8,3.79-3.72,3.7-6.54a9.09,9.09,0,0,0-1.33-4,6.36,6.36,0,0,1-.61-1.33c-.13-.52,0,.24-.06-.27,0-.09,0-.74,0-.41.26-1.84,2.25-3.36,3.92-4.29,4.26-2.37,9.42-3.32,11.92-8.09a3,3,0,0,0-1-3.91,3,3,0,0,1-.8-2,4,4,0,0,1,.88-2.71c1.49-1.9,4.2-2.88,6.44-3.14a14.57,14.57,0,0,1,13,5.49,2.94,2.94,0,0,0,3.9,1,2.88,2.88,0,0,0,1-3.91Z"/><path d="M372.87,52.88c.88-4.73-1.36-9-5.23-11.73A13.62,13.62,0,0,0,354.71,40c-8.62,3.51-15.58,14.1-13.28,23.52,1.17,4.77,5.16,9.22,10.18,9.89L349.9,69.2l-12.85,17c-3.33,4.41-8.16,10.77-4.62,16.43a10.64,10.64,0,0,0,2.94,2.89l1,.72c.24.2.46.42.68.64-.22-.22,0,.34,0,0a8.5,8.5,0,0,1-1.43,3.19c-.8,1.37-1.67,2.69-2.58,4-3.5,5-7.55,9.61-9.95,15.25-2.61,6.17-3.4,13.52.31,19.43l.45-3.46c-9.58,7.44-7.53,24.86,3.38,30a2.94,2.94,0,0,0,3.91-1,2.88,2.88,0,0,0-1-3.91,10.24,10.24,0,0,1-4.56-4,11.45,11.45,0,0,1-1.33-2.76,18.19,18.19,0,0,1-.49-1.79c-.06-.27-.11-.56-.16-.84-.1-.61,0,.3-.05-.37a13.17,13.17,0,0,1,.73-6.52c0-.09.34-.82.13-.35.11-.26.24-.51.37-.76a13.89,13.89,0,0,1,.86-1.43c.35-.52-.14.13.23-.31a8.39,8.39,0,0,1,.56-.63,12.44,12.44,0,0,1,1.48-1.33,2.86,2.86,0,0,0,.45-3.46c-2.74-4.37-2-9.8,0-14.35,2.29-5.37,6.32-9.83,9.65-14.56a31.23,31.23,0,0,0,4.49-7.92c1-3.26-.65-5.83-3.18-7.69a8.85,8.85,0,0,1-2-1.61,3,3,0,0,1-.27-2.49c.57-2.48,2.19-4.6,3.69-6.59l14.05-18.6c1-1.35,0-4-1.7-4.2a7.19,7.19,0,0,1-5.83-4.71c-1.19-3.13-.45-6.65,1-9.55a18.29,18.29,0,0,1,6.4-7.28c2.52-1.57,5.56-2.33,8.2-1.3a8.09,8.09,0,0,1,3.38,2.59,5,5,0,0,1,1.05,3.73,3,3,0,0,0,2,3.52,2.89,2.89,0,0,0,3.52-2Z"/><path d="M380.93,57.56c.84-2.53,1.69-5.23,3.37-7.35a6.9,6.9,0,0,1,2.86-2.27,7.61,7.61,0,0,1,1.34-.38c.81-.14-.19,0,.63-.06,0,0,.85,0,.6,0,2.28.27,2.93,2.46,3.64,4.64,1,2.93,2.35,5.91,5.24,7.4a6.44,6.44,0,0,0,4.94.44,12,12,0,0,0,2.05-1,7.19,7.19,0,0,1,.67-.37c.21-.23.33.24-.13-.1.35.26-.32-.38-.07-.09.43.46-.2-.55.06.06.07.16.17.32.26.48.2.39-.19-.64,0,.08.08.23.17.47.24.71.16.5.3,1,.44,1.51.6,2.1,1.33,4.29,3,5.79,2.56,2.3,5.61,1.57,8.7,1.58a3.54,3.54,0,0,1,1.44.23c-.66-.25.87.61.21.14.1.07.57.65.16.1.14.19.23.4.36.59s.21.5,0,0a7.84,7.84,0,0,1,.29.94c.05.19.22,1.34.16.77.05.46.08.92.11,1.38.06,1.17.06,2.34.11,3.51a18.19,18.19,0,0,0,1.37,7c1.11,2.43,3.27,4,5.55,5.22a17.12,17.12,0,0,1,2.79,1.71,4.87,4.87,0,0,1,1.49,3c.55,2.83.46,5.69,1.9,8.3s4,4.1,5.29,6.67c1.1,2.28.93,5,.57,7.44-.51,3.52-1.47,7-1.84,10.5a36.57,36.57,0,0,0,.43,9.91,37.09,37.09,0,0,0,9,18.29,2.86,2.86,0,0,0,4-4,31.65,31.65,0,0,1-7.49-15.77,30.09,30.09,0,0,1-.2-8.58c.34-3,1.16-5.85,1.61-8.79.5-3.21.78-6.59-.27-9.73a13.83,13.83,0,0,0-2.38-4.34c-1-1.21-2.18-2.23-3.14-3.45-1.63-2.09-1.47-4.88-1.88-7.37a10.6,10.6,0,0,0-5-7.55c-1.09-.69-2.27-1.24-3.36-1.93a4.61,4.61,0,0,1-2-2.13c.23.45,0-.06-.07-.19s-.14-.43-.2-.65-.13-.54-.19-.82c0,0-.15-.94-.07-.36a31.77,31.77,0,0,1-.2-3.38c-.12-4.61-.4-10.09-5.57-11.85a11.1,11.1,0,0,0-4.48-.35c-.63,0-1.26.11-1.89.12.13,0-1-.06-.69,0-.06,0-.95-.36-.55-.1a2.13,2.13,0,0,1-.34-.33c-.52-.53.24.45-.14-.2-.13-.22-.25-.43-.37-.66-.36-.73.11.31-.06-.16-.36-1-.61-2-.9-2.94-.62-2.1-1.5-4.29-3.58-5.32a5.48,5.48,0,0,0-4.33-.17,15.23,15.23,0,0,0-2,1c-.55.28-.12.13-.7.32.15,0-.5-.09-.18,0a4.42,4.42,0,0,1-2.2-2.74c-.57-1.58-1-3.2-1.72-4.73a9,9,0,0,0-8.45-5.33,12.11,12.11,0,0,0-8.87,4.38c-2.4,2.86-3.67,6.37-4.84,9.87a2.86,2.86,0,1,0,5.51,1.52Z"/><path d="M398.8,117.93c-4.43,5.74-1.37,14.92,5.22,17.42a32,32,0,0,0,4.64,1.11c.43.08.85.18,1.27.3.13,0,1.05.4.76.26a6,6,0,0,1,.77.46c-.19-.13.12.16.19.3.66,1.32-.31,3-1,4.21a25,25,0,0,0-3,5.87c-.47,1.64.89,3.8,2.76,3.61.68-.07,1-.08,1.36.42-.08-.09.12.3.12.31a7.23,7.23,0,0,1,0,1.8c-.06,2.55-.13,5.1-.19,7.64l-.39,15.53c-.09,3.67,5.63,3.67,5.72,0l.45-18.48c.07-2.89.71-6.42-.52-9.11a6.71,6.71,0,0,0-6.56-3.82l2.75,3.62c.55-1.93,1.88-3.49,2.82-5.23a11.23,11.23,0,0,0,1.57-6c-.3-4.42-3.92-6.53-7.86-7.3-.82-.16-1.64-.3-2.45-.49l-.95-.25c-.21-.07-.41-.13-.61-.21.21.1.17.07-.14-.08a5.43,5.43,0,0,1-2.35-2.43,6.49,6.49,0,0,1-.6-1.71,5.2,5.2,0,0,1-.13-1.63,4.35,4.35,0,0,1,.3-1.57c.12-.33.13-.37,0-.15.09-.18.17-.35.27-.53a9.55,9.55,0,0,1,.67-1c.94-1.22.19-3.2-1-3.91a2.93,2.93,0,0,0-3.91,1Z"/><path d="M416.59,112a5.35,5.35,0,0,1,3,4.49c.35,2.65-.45,5-1.61,7.57-2.62,5.76-6.41,12.19-3.91,18.7a13,13,0,0,0,2.65,4.17c1,1.05,2.15,2,3,3.08,1.61,2.08,1.52,5,1.84,7.45a14.23,14.23,0,0,0,4.15,8.84c2,1.91,4,3.5,5.06,6.1,2.23,5.4.87,12.07-.37,17.72a2.93,2.93,0,0,0,2,3.52,2.89,2.89,0,0,0,3.51-2c1.31-6,2.44-12.31,1.07-18.39A17.7,17.7,0,0,0,432.7,165c-1.92-2.06-4.4-3.52-5.12-6.4s-.48-6.19-1.65-9.12a12.94,12.94,0,0,0-2.67-4.11,40,40,0,0,1-3-3.09c-1.75-2.36-1.33-5.48-.51-8.1,1-3.18,2.76-6.06,4-9.13a17.75,17.75,0,0,0,1.33-10.31,10.68,10.68,0,0,0-5.61-7.68,3,3,0,0,0-3.91,1,2.88,2.88,0,0,0,1,3.91Z"/><path d="M89.43,128.79a8.93,8.93,0,0,0,1.23,7.29,10.14,10.14,0,0,0,2.86,2.83,8.83,8.83,0,0,0,3.89,1.28,2.83,2.83,0,0,0,2-.84,3,3,0,0,0,.84-2,27.2,27.2,0,0,0-.34-4.59,9.71,9.71,0,0,0-1.6-4.05,8.9,8.9,0,0,0-4-3.1,6.32,6.32,0,0,0-4.41-.13,6.76,6.76,0,0,0-1,.41,3.13,3.13,0,0,0-1.34,1.77,4,4,0,0,0-.19,1.54A4.66,4.66,0,0,0,89,132.46a3.18,3.18,0,0,0,2,.83,2.85,2.85,0,0,0,2.86-2.85,2.74,2.74,0,0,0-.84-2,2.89,2.89,0,0,1-.35-.35l.45.58a2.61,2.61,0,0,1-.24-.43l.29.68a2,2,0,0,1-.12-.48l.1.76a2,2,0,0,1,0-.49l-.11.76c0-.12.06-.23.1-.35l-1.31,1.7.23-.1-.69.29a4.73,4.73,0,0,1,.82-.22l-.76.11a3.85,3.85,0,0,1,1,0l-.76-.11a4.94,4.94,0,0,1,1.18.33l-.69-.29a6.27,6.27,0,0,1,1.2.7l-.58-.45a6.62,6.62,0,0,1,1,1l-.45-.58a6.62,6.62,0,0,1,.82,1.44l-.28-.68a10.63,10.63,0,0,1,.63,2.48l-.1-.76a29.32,29.32,0,0,1,.17,3.38l2.85-2.86H97.3l.76.1a5.72,5.72,0,0,1-1.47-.4l.68.29a6.89,6.89,0,0,1-1.3-.78l.58.45A7.55,7.55,0,0,1,95.39,133l.45.58a7.59,7.59,0,0,1-.9-1.53l.29.69a6.75,6.75,0,0,1-.44-1.58l.1.76a6,6,0,0,1,0-1.52l-.1.76a7.1,7.1,0,0,1,.17-.8,2.86,2.86,0,1,0-5.51-1.52Z"/><path d="M99.4,138.56a7.05,7.05,0,0,0,2.47,5.57,7.41,7.41,0,0,0,6.46,1.74,2.71,2.71,0,0,0,1.85-1.65,2.9,2.9,0,0,0-.14-2.55,11.39,11.39,0,0,0-10.89-6,3.13,3.13,0,0,0-2,.84,2.92,2.92,0,0,0-.83,2,2.88,2.88,0,0,0,.83,2,2.77,2.77,0,0,0,2,.83,9.17,9.17,0,0,1,2,0l-.76-.1a9.12,9.12,0,0,1,2.12.58l-.68-.29a9.6,9.6,0,0,1,2,1.17l-.57-.44a9.23,9.23,0,0,1,1.47,1.46l-.44-.58a8.53,8.53,0,0,1,.85,1.35l1.7-4.2-.33.06.76-.1a4.27,4.27,0,0,1-1,0l.76.1a5.1,5.1,0,0,1-1.08-.3l.68.29a5.29,5.29,0,0,1-1.08-.62l.58.45a5.7,5.7,0,0,1-.89-.88l.45.58a4.43,4.43,0,0,1-.63-1.07l.29.69a4.25,4.25,0,0,1-.27-1l.1.76a5.27,5.27,0,0,1,0-.79,2.87,2.87,0,0,0-2.86-2.86,2.92,2.92,0,0,0-2.85,2.86Z"/><path d="M113.45,144.59a1.05,1.05,0,0,1,0-.19l.11.76a.6.6,0,0,1,0-.19l-.1.76a.84.84,0,0,1,0-.17l-.28.68a.56.56,0,0,1,.09-.17l-.45.58a2.18,2.18,0,0,1,.21-.22l-.58.45a2,2,0,0,1,.37-.21l-.68.28a2,2,0,0,1,.42-.1l-.76.1h.32l-.76-.1a2.44,2.44,0,0,1,.46.14l-.68-.29a10.94,10.94,0,0,1,1.3.82,5.35,5.35,0,0,0,1.74.78,6.41,6.41,0,0,0,4.24-.53,6.6,6.6,0,0,0,2.66-2.42,5.57,5.57,0,0,0,.73-1.7,6.34,6.34,0,0,0,0-2.53,2.75,2.75,0,0,0-2-2,9,9,0,0,0-2.68-.16,10.69,10.69,0,0,0-3.23.88,9.1,9.1,0,0,0-4,3.51,2.86,2.86,0,0,0,4.93,2.89c.11-.17.22-.34.34-.5l-.44.58a6,6,0,0,1,1.19-1.18l-.58.44a7.24,7.24,0,0,1,1.46-.83l-.69.28a7.64,7.64,0,0,1,1.62-.45l-.76.11a6.75,6.75,0,0,1,1.68,0l-.76-.1.36.06-2-2,0,.11-.11-.76a2.81,2.81,0,0,1,0,.71l.1-.76a3.11,3.11,0,0,1-.19.68l.29-.68a4.17,4.17,0,0,1-.46.79l.44-.58a4.5,4.5,0,0,1-.65.66l.57-.45a4.19,4.19,0,0,1-.89.53l.68-.29a3.38,3.38,0,0,1-.88.24l.76-.1a3.14,3.14,0,0,1-.81,0l.76.1a3.11,3.11,0,0,1-.68-.19l.68.29a10.17,10.17,0,0,1-1.37-.86,5,5,0,0,0-2.73-.85c-2.42,0-4.72,2.4-3.9,4.88a3,3,0,0,0,1.31,1.71,2.85,2.85,0,0,0,4.19-3.23Z"/><path d="M121.89,145.67a9.18,9.18,0,0,0,7.84,1.18,10.3,10.3,0,0,0,3.79-2.06A8.78,8.78,0,0,0,136,141.2a2.83,2.83,0,0,0-.29-2.2,2.87,2.87,0,0,0-1.7-1.31,15,15,0,0,0-13.61,3.61,2.88,2.88,0,0,0,0,4,2.91,2.91,0,0,0,4,0c.16-.15.32-.3.5-.44s.17-.14.25-.21c-.08.07-.49.36-.17.14s.78-.52,1.19-.75l.6-.31.3-.13c.33-.16-.56.21-.22.09s.88-.32,1.34-.44.88-.17,1.31-.27l-.26,0,.33,0q.33,0,.66,0a9.58,9.58,0,0,1,1.42,0c.1,0,.51.06,0,0s-.07,0,0,0c.25,0,.49.09.74.15l-2-3.52c.37-.91.08-.2,0,0s-.13.22-.2.33-.32.43,0,0-.15.15-.25.24-.39.48-.52.48.6-.43.27-.21l-.32.22c-.19.12-.38.22-.57.32l-.3.14c-.3.16.69-.26.26-.11-.22.08-.45.16-.68.22s-.43.1-.64.15c-.54.1.3,0,.3,0a2.69,2.69,0,0,1-.32,0c-.24,0-.48,0-.72,0s-.95-.21,0,0c-.42-.1-.83-.22-1.25-.33.75.2.47.21.21.08l-.29-.15c-.2-.12-.4-.26-.6-.4a2.82,2.82,0,0,0-2.2-.29,2.86,2.86,0,0,0-2,3.51,3.27,3.27,0,0,0,1.31,1.71Z"/><path d="M138.21,140.79a19.51,19.51,0,0,0,8-11.24,2.9,2.9,0,0,0-.74-2.78,3,3,0,0,0-2.78-.74,10.16,10.16,0,0,0-7.82,10.08,2.86,2.86,0,1,0,5.71,0,7,7,0,0,1,.05-1.21l-.1.76a7.73,7.73,0,0,1,.5-1.81l-.29.69a7.57,7.57,0,0,1,.64-1.19c.06-.09.13-.18.19-.28.17-.25-.49.59-.15.21.15-.17.29-.34.45-.5l.49-.46c.28-.25-.21.17-.26.19a1.65,1.65,0,0,0,.27-.19,7.48,7.48,0,0,1,1.24-.68l-.68.29a7,7,0,0,1,1.28-.39L140.69,128a18.12,18.12,0,0,1-.8,2.39l.29-.68a17,17,0,0,1-1,2c-.2.34-.41.67-.64,1-.11.16-.24.31-.35.48.48-.74.17-.23,0-.06a15.7,15.7,0,0,1-1.53,1.63c-.27.25-.55.49-.84.73l.23-.18-.24.18-.49.34a3.06,3.06,0,0,0-1.31,1.71,2.86,2.86,0,0,0,4.19,3.23Z"/><path d="M118.4,153.86a5.54,5.54,0,0,0-4,5.52,5.77,5.77,0,0,0,4.58,5.55c6,1.26,9.82-4.71,9.49-10-.18-2.86-1.43-5.62-4.24-6.72a9.9,9.9,0,0,0-8,.83c-4.77,2.49-7,8.61-3.7,13.18a8,8,0,0,0,6.62,3.48,8.48,8.48,0,0,0,6.52-4c2.69-4,2.85-9.58,1.24-14a18.55,18.55,0,0,0-3.78-6.29c-1.7-1.83-4.26-4-6.91-3.7-3.06.32-4.73,3.57-4.86,6.35a11.25,11.25,0,0,0,2.77,7.27c3.12,3.88,9.32,5.79,9.24,11.57a6.69,6.69,0,0,1-.29,1.93c-.14.5-.48,1-.62,1.44l2.49-.29.1.08c0,.31-.13-.37-.16-.48-.22-.84-.36-1.71-.51-2.57a52,52,0,0,1-.73-9.89c0-3.68-5.66-3.68-5.72,0a58.33,58.33,0,0,0,.33,7.12,40.15,40.15,0,0,0,1.2,7.15c.65,2.15,2.33,4.12,4.77,3.87s3.82-2.87,4.41-5.1A13.23,13.23,0,0,0,125.81,154c-2.41-2.78-6.28-4.32-8.07-7.63a5.71,5.71,0,0,1-.62-1.86c0-.21.11-1.64.41-1.51,0,0-.43.26-.44.26-.94.26-.79-.25-.33.16.24.21.65.39.86.55a13,13,0,0,1,1.75,1.67,12.17,12.17,0,0,1,2.88,8.57,9.25,9.25,0,0,1-1.17,4.09,4.39,4.39,0,0,1-1.23,1.36,1.59,1.59,0,0,1-1.19.28,2.92,2.92,0,0,1-2-2.35,3.6,3.6,0,0,1,1.61-3.09c1-.75,2.95-1.6,4.11-.89-.24-.15.16.27.11.15a6,6,0,0,1,.26,1,6.31,6.31,0,0,1-.26,2.7,3.41,3.41,0,0,1-1,1.68,1.64,1.64,0,0,1-1.26.26c.21,0-.46-.2,0,.11-.19-.13,0-.42,0,0,0-.49-.06,0,0,0-.16.06.18-.5,0,0,.16-.36-.12-.14,0-.18.36-.07-1,.39-.22.21,3.57-.89,2.06-6.4-1.52-5.51Z"/><path d="M321.67,92.54c-1.43,3.58-2.76,7.36-2.61,11.28a25.69,25.69,0,0,0,1.6,7.17c1.39,4.09,3.92,10.11,9.09,10.15,3.45,0,5.83-2.58,7.74-5.14a27.33,27.33,0,0,0,4.61-9.78c1.75-7,.47-15.11-5.73-19.62-2.39-1.74-5.57-2.43-8.24-1A13.8,13.8,0,0,0,322,91.85a3,3,0,0,0,1,3.91c1.2.71,3.29.4,3.91-1a8.49,8.49,0,0,1,4.88-4.57l-1.45.39c1.72-.2,3,.62,4.23,2A11,11,0,0,1,337,98.13c.67,4.41-.78,9.14-3,12.89a20.84,20.84,0,0,1-1.9,2.67,10.33,10.33,0,0,1-1.11,1.18c-.19.16-1.21.69-.67.46,0,0-.77.19-.29.11s-.05,0-.15,0c-.74.07.46,0-.25-.06-.37,0,.42.25.11,0-.12-.07-.24-.15-.36-.21-.35-.17.35.33.05.06l-.41-.38c-.14-.14-.27-.29-.4-.43-.28-.32.25.36,0,0s-.39-.55-.57-.84a21.28,21.28,0,0,1-1.1-2.12l-.12-.28c.12.3-.08-.22-.11-.28-.12-.33-.25-.66-.36-1-.25-.68-.47-1.38-.68-2.07a15.42,15.42,0,0,1-.86-5.59c.18-2.84,1.33-5.62,2.37-8.24a2.87,2.87,0,0,0-2-3.51A2.92,2.92,0,0,0,321.67,92.54Z"/><path d="M416.27,86.81c-.08,0-.42-.19-.16-.06a7.16,7.16,0,0,1-.66-.39,6.32,6.32,0,0,1-.65-.53c-.72-.66-1.37-1.39-2-2.1a12.93,12.93,0,0,0-5.14-3.59c-1.91-.66-3.43,1-3.61,2.76q-.84,7.92-1.41,15.87c-.25,3.45-.74,6.93-.73,10.4,0,3.24.48,7.32,3.53,9.2,3.38,2.07,8,.65,11.25-1.08,3.5-1.87,5.06-5,5.85-8.78a33.7,33.7,0,0,0,.62-11.75,25.11,25.11,0,0,0-4.74-11.38c-2.59-3.44-7.26-8.47-12-6.35-2.39,1.06-3.69,3.6-4.7,5.88a29.45,29.45,0,0,0-2.25,7.4,30.26,30.26,0,0,0,1.49,15.52,2.93,2.93,0,0,0,3.52,2,2.87,2.87,0,0,0,2-3.51,24.49,24.49,0,0,1,1.29-20.73c.73-1.31.79-1.67,2.13-.79a16.46,16.46,0,0,1,3.61,3.46,20.37,20.37,0,0,1,3.94,8.54,18.82,18.82,0,0,1,.34,4.87c0,.69-.12,1.38-.2,2.07-.09.85-.11,1-.23,1.74a21.82,21.82,0,0,1-1.09,4.44,3.71,3.71,0,0,1-1.6,2,11.14,11.14,0,0,1-3.72,1.56,4.54,4.54,0,0,1-1.6.2c-.17,0-.83-.09-.37,0a4.39,4.39,0,0,1-.52-.13c.42.14,0,0,0,0s-.48-.19-.05,0-.06-.24.06.05-.16-.26-.22-.36c-.32-.51,0,.13-.14-.33-.07-.29-.17-.59-.23-.89,0-.13-.15-1-.1-.49,0-.35-.06-.69-.08-1,0-.73,0-1.45,0-2.18.1-3.32.52-6.64.76-10q.56-7.69,1.37-15.37l-3.61,2.75c.11,0,.38.21.16.06.21.14.45.25.66.39a5.16,5.16,0,0,1,.65.53c.72.66,1.37,1.39,2,2.1a12.9,12.9,0,0,0,5.14,3.58,2.85,2.85,0,1,0,1.51-5.5Z"/><path class="cls-6" d="M128.44,187.23c-1.89-1.51-3.84-3.07-6.18-3.68s-5.17,0-6.46,2c-1.87,3,.36,6.73,2.5,9.49l14.59,18.83c-.78-2.82,1.64-5.4,3.73-7.45,3.37-3.29,6.52-7,7.82-11.57s.33-10-3.37-12.89-10.18-1.94-12,2.43a13,13,0,0,0-.7,4.3"/><path d="M130.46,185.21c-3.56-2.86-7.61-5.66-12.42-4.44s-6.85,6.27-5.11,10.76a24.35,24.35,0,0,0,3.65,6l4.71,6.07,9.58,12.36a2.87,2.87,0,0,0,3.46.44,2.94,2.94,0,0,0,1.31-3.22c-.29-1.27,1.17-2.81,2.17-3.84,1.54-1.58,3.12-3.1,4.51-4.82,2.93-3.66,5.18-7.82,5.49-12.58a14.55,14.55,0,0,0-4.06-11.35,11.44,11.44,0,0,0-10.72-2.7A9.89,9.89,0,0,0,127.9,181c-1.83,2.22-2.2,4.92-2.34,7.71a2.86,2.86,0,1,0,5.71,0,12.41,12.41,0,0,1,.32-2.72,3.64,3.64,0,0,1,.24-.68,3.15,3.15,0,0,1,.3-.5c-.16.24,0,0,.08-.1l.3-.31s.49-.42.26-.24.42-.26.55-.34.58-.3.31-.18.21-.07.21-.07a7.41,7.41,0,0,1,1.14-.32c.48-.1-.07,0,.43,0,.35,0,.7,0,1.05,0l.46,0c-.42,0,.07,0,.13,0a9.06,9.06,0,0,1,1.16.33c-.32-.12.32.15.41.2a7.56,7.56,0,0,1,.73.46,7.89,7.89,0,0,1,1.24,1.34,10.15,10.15,0,0,1,1.14,8.35c-1,3.55-3.3,6.54-5.81,9.15-3.11,3.25-6.92,6.56-5.79,11.56l4.78-2.78-7.6-9.81c-2.46-3.17-5.07-6.27-7.37-9.56a9.57,9.57,0,0,1-2-4.16,1.76,1.76,0,0,1,1-1.87,4.21,4.21,0,0,1,3.37.08,16.56,16.56,0,0,1,4.11,2.69,2.93,2.93,0,0,0,4,0,2.88,2.88,0,0,0,0-4Z"/><path class="cls-6" d="M373.18,189.09a13,13,0,0,0-1.34-4.15c-2.41-4-9-4-12.18-.59s-3.36,9-1.4,13.24,5.65,7.52,9.48,10.27c2.37,1.7,5.15,3.89,4.81,6.79,3.86-6.93,14.22-11,17-18.42,2-5.36-.64-8.78-2.93-11.43-1.58-1.82-3.8-3.05-8.09-1.74C376.18,183.76,373.18,189.09,373.18,189.09Z"/><path d="M375.72,188.39A12.32,12.32,0,0,0,372.9,182a9.15,9.15,0,0,0-4.67-2.56,11.3,11.3,0,0,0-10.43,3c-3.08,3.26-3.88,7.82-3.18,12.13s3.4,8.24,6.54,11.25a60.8,60.8,0,0,0,5.82,4.68c1.43,1.06,3.07,2.36,2.94,4.1-.21,2.67,3.66,3.5,4.9,1.33,4-7,13.07-10,16.61-17.57A12.71,12.71,0,0,0,390,184.87a12.93,12.93,0,0,0-4.22-4,10.28,10.28,0,0,0-7.1-.55c-3.66.87-6,4.38-7.77,7.48s2.87,5.61,4.54,2.66q.65-1.12,1.38-2.19a14.09,14.09,0,0,1,1.18-1.51c.25-.28.51-.54.78-.8,0,0,.39-.32.06-.08l.49-.31c.32-.18-.6.1.07,0,.22,0,.45-.13.66-.18a7,7,0,0,1,1.27-.2c.17,0,1,0,.94,0,.19,0,.38.09.57.14.38.1.08,0,.28.08a3,3,0,0,1,1.33,1,18,18,0,0,1,1.37,1.64,8,8,0,0,1,1.74,4.17,8.4,8.4,0,0,1-1.41,4.93c-1.76,2.85-4.72,5.14-7.37,7.31-3.18,2.6-6.44,5.28-8.51,8.9l4.9,1.32c.3-4-2.92-6.73-5.83-8.85s-5.84-4.48-7.77-7.59a11.52,11.52,0,0,1-1.66-9,6.66,6.66,0,0,1,2.26-3.64A7.09,7.09,0,0,1,365,184.5a5.07,5.07,0,0,1,3.6.75,4.69,4.69,0,0,1,.57.5,2.21,2.21,0,0,1,.5.71,12,12,0,0,1,1,3.33,2.65,2.65,0,0,0,3.23,1.84A2.69,2.69,0,0,0,375.72,188.39Z"/><path d="M392,183.32l10-7a1,1,0,0,0,.35-1.31,1,1,0,0,0-1.31-.34l-9.95,7a1,1,0,0,0-.34,1.31,1,1,0,0,0,1.3.34Z"/><path d="M388.81,180.34q4.53-4.26,9.37-8.16a1,1,0,1,0-1.35-1.35q-4.83,3.9-9.36,8.16c-.9.84.45,2.18,1.34,1.35Z"/><path d="M384.73,178.65a36.23,36.23,0,0,1,8.09-8.8,1,1,0,0,0,0-1.34,1,1,0,0,0-1.35,0,37.39,37.39,0,0,0-8.38,9.18c-.67,1,1,2,1.64,1Z"/><path d="M357.22,180.91c-.34-2.73-2.9-3.93-5.15-4.95q-4.38-2-8.93-3.53c-1.16-.4-1.66,1.44-.5,1.83,2.64.91,5.25,1.92,7.81,3.05a26.41,26.41,0,0,1,3.16,1.55,3.21,3.21,0,0,1,1.7,2,1,1,0,0,0,1,1,1,1,0,0,0,1-1Z"/><path d="M353.44,182.62a24.1,24.1,0,0,0-11.16-1.41,1,1,0,0,0-.95,1,1,1,0,0,0,.95,1,22.76,22.76,0,0,1,10.66,1.33,1,1,0,0,0,1.17-.66,1,1,0,0,0-.67-1.17Z"/><path d="M353.43,185.31a15.85,15.85,0,0,0-11.56,1.84,1,1,0,0,0,1,1.65,13.9,13.9,0,0,1,10.1-1.66c1.19.27,1.7-1.57.5-1.83Z"/><path d="M327,114.33c-7.41,11.23-17,20.75-27.48,29.12-5.2,4.15-10.63,8-16.13,11.74-5.87,4-11.8,7.87-17.94,11.42-23.85,13.8-50.45,23.71-77.73,27.86-14.84,2.26-30.15,3.24-45.11,1.7a2.88,2.88,0,0,0-2.86,2.86,2.92,2.92,0,0,0,2.86,2.85c13.74,1.42,27.71.64,41.38-1.16a212,212,0,0,0,39.16-9A244.69,244.69,0,0,0,264.08,174a285,285,0,0,0,35.36-23.24c12.47-9.51,23.85-20.36,32.52-33.51,2-3.07-2.91-5.94-4.93-2.88Z"/><path class="cls-3" d="M353.3,60.3A17.24,17.24,0,0,0,335,54c-2.73.79-5.37,1.42-6.66,3.95s-.83,7.06,1.52,8.68c-1.77,3.58-6.1,4.85-9.74,6.48s-7.43,5.13-6.26,8.94c.5,1.63,1.88,3,1.79,4.73-.07,1.53-1.31,2.72-2.44,3.76-4.32,4-8.58,10.18-5.6,15.24.92,1.55,2.47,2.84,2.65,4.64.26,2.59-2.41,4.38-4.6,5.79-3.85,2.47-7.62,6.65-6.44,11.07.9,3.4,4.45,5.56,5.47,8.93,1,3.19-.51,7,1.21,9.81.88,1.47,2.46,2.38,3.5,3.74,2.86,3.69,1,8.95-.42,13.4s-1.53,10.59,2.77,12.41"/><path d="M336.5,268.91a106.89,106.89,0,0,1-3.89-35.45,89.48,89.48,0,0,1,2.57-17.15c1.08-4.17,2.59-8.23,3.53-12.43a40.93,40.93,0,0,0,0-16.93,2.82,2.82,0,0,0-3.13-2,2.89,2.89,0,0,0-2.48,2.8,58.22,58.22,0,0,1-2.56,13.41,75.62,75.62,0,0,1-4.62,10.52c-1.12,2.23-2.25,4.45-3.34,6.69a32.7,32.7,0,0,1-3.31,6c-2.67,3.42-6.39,3.21-9.35.35-3.24-3.13-3.71-8.11-3.55-12.4.19-5.16,1.44-10.19,2.48-15.23,1.09-5.31,1.79-10.69,3.06-16a56.59,56.59,0,0,1,5.69-14.07,69.59,69.59,0,0,1,6.6-10.13,34.51,34.51,0,0,1,8.05-7.34,30.4,30.4,0,0,1,10.58-4.2c3.57-.75,7.38-.73,10.93-2a10.29,10.29,0,0,0,5.26-3.7c1.36-2.06,1.39-4.82.87-7.15a15.94,15.94,0,0,0-8-10.24c-3.41-1.83-7-3.22-10.56-4.79a45,45,0,0,1-9.79-5.52,14.61,14.61,0,0,1-5.48-8.36c0-.19-.07-.37-.1-.56-.08-.46,0,.7,0-.08,0-.33-.05-.66-.06-1s0-.84,0-1.27c0-.23.17-1.34.06-.76.13-.73.34-1.42.54-2.13.14-.5,0-.08,0,0,.08-.17.16-.34.25-.5s.19-.3.28-.46c.27-.52-.25.46.05-.07.06-.1.21-.19.28-.27-.52.58-.26.1-.12.1s.66-.3.16-.11.16,0,.2,0-.76,0-.17,0,0,0-.12,0c.19,0,.37.09.56.13l.35.12c-.23-.1-.26-.1-.07,0a6.61,6.61,0,0,1,1.95,1.46c.07.06.47.56.23.24.12.16.22.33.33.5s.19.34.28.51c.28.54,0-.13.17.39a9.86,9.86,0,0,1,.27,4.8,28.6,28.6,0,0,1-1.68,5.56,44.74,44.74,0,0,1-2.42,4.7h4.94a16.08,16.08,0,0,1,.9-20.24l-4.49-.57A19.33,19.33,0,0,1,331,101c.33,2.31.2,4.67-1.18,6.29a1.87,1.87,0,0,1-.82.71c-.78.44.47-.24-.3.1s.48-.3-.24,0c-.11.05-.57-.11,0,0a4.56,4.56,0,0,1-.72-.21c.58.23-.18-.14-.25-.18-.48-.3.18.21-.28-.22a6.13,6.13,0,0,1-1.39-2,10,10,0,0,1-.4-1.42c0-.16-.1-.81,0,0,0-.25-.05-.51-.07-.76a21,21,0,0,1,0-2.63c0-.27,0-.53.06-.8,0,0,.1-.85,0-.44s.09-.48.08-.44c.06-.36.14-.72.22-1.07s.23-.88.38-1.3c0-.06.34-.87.09-.3.08-.19.18-.38.27-.57s.81-1.2.42-.74c.12-.15.26-.28.39-.42.42-.5-.21,0,.21-.19.12-.07.76-.34.11-.11a3.59,3.59,0,0,0,.43-.14c.42-.27-.36-.06.2,0a5.77,5.77,0,0,0,.72,0c.5,0,0,0-.11,0a5.29,5.29,0,0,0,.57.15c-.64-.12-.28-.17,0,0,.48.38-.46-.46-.05,0s-.26-.59,0-.08a3.09,3.09,0,0,0,.24.44c-.41-.7-.07,0,0,.33.19.57,0-.64,0,0,0,.13,0,.27,0,.4a12.07,12.07,0,0,1-.08,1.47c.08-.75-.12.58-.18.81-.1.47-.22.92-.36,1.38s-.29.91-.45,1.36c-.08.22-.16.45-.25.67,0,.07-.36.88-.2.52s-.13.27-.13.28c-.12.26-.24.53-.37.79s-.36.72-.55,1.07-.35.61-.53.91-.87,1.19-.18.32l4.88,2c.32-10.1,2.58-20.76,7.29-29.75,4.83-9.21,12.2-16.28,22.62-18a30.89,30.89,0,0,1,4-.35,35.78,35.78,0,0,1,4.51.15,31.85,31.85,0,0,1,3.93.68,35.84,35.84,0,0,1,4.18,1.25,41.31,41.31,0,0,1,14,9,55.08,55.08,0,0,1,16.08,30.39c.43,2.54.67,5.29,2.09,7.52,1.92,3,5.35,3.17,7.94.88,5.58-4.91,3.64-12.61,1.2-18.58-.6-1.47-1.24-2.92-1.86-4.38a2.87,2.87,0,0,0-4.49-.58c-6.26,7.77-5,18.21-.47,26.52,1.24,2.25,4.49,1.56,5.22-.68a46.68,46.68,0,0,0,2.79-13.8c0-4.21-1.29-9.68-6-10.91-4.51-1.18-7.92,3-9.31,6.71a24,24,0,0,0-.86,10.74A49.25,49.25,0,0,0,406.68,115a2.9,2.9,0,0,0,4.78,1.26A22.7,22.7,0,0,0,419.2,103a19.47,19.47,0,0,0-3.74-14.91c-1.7-2.23-5.13-1.56-5.33,1.44-.63,9.81-6.31,18-12.93,25.07-3.39,3.61-7,7-10.59,10.39-1.6,1.53-4.09,3.25-4.58,5.51-.59,2.66,1.16,5.1,2.78,7a21.17,21.17,0,0,0,5.25,4.65c2.22,1.34,4.65,2.28,6.91,3.55a67,67,0,0,1,14.27,11.46,62.89,62.89,0,0,1,17.08,30.59c2.93,13.27,1.72,27.08.35,40.46l2.1-2.75c-3.35,1.41-6.58.89-9.75-1a18.92,18.92,0,0,1-7.35-8.56,15.62,15.62,0,0,1-.66-1.8c-.09-.32-.17-.64-.23-1s-.2-1.34-.12-.64c-.18-1.66-.32-3.31-.56-5a45.65,45.65,0,0,0-3.49-12c-1.74-3.86-4.26-7.33-6.54-10.88a2.88,2.88,0,0,0-3.57-1.17,2.93,2.93,0,0,0-1.65,3.37,102.24,102.24,0,0,0,3,14.48c1.1,3.8,2.41,7.52,3.53,11.31a112.09,112.09,0,0,1,3.29,14.85c.89,5.9,1.2,11.88,1.51,17.83.38,7.05.78,14.08,1.82,21.06.23,1.53,2.16,2.37,3.51,2a2.92,2.92,0,0,0,2-3.51c-1.8-12.08-1.39-24.36-3-36.46a115,115,0,0,0-3.21-15.83c-1.06-3.79-2.36-7.49-3.5-11.25a102.94,102.94,0,0,1-3.45-16l-5.22,2.2a100.25,100.25,0,0,1,6.22,10.2,33.5,33.5,0,0,1,1.89,5.21c.3,1.07.57,2.16.82,3.24.11.53.22,1.06.32,1.6l.15.89c0,.1.1.75.06.37.21,1.7.29,3.41.58,5.1a18.79,18.79,0,0,0,1.71,4.92,24.07,24.07,0,0,0,8.94,10.1c4.26,2.63,9.72,3.74,14.46,1.75a3.06,3.06,0,0,0,2.09-2.76c1.26-12.27,2.19-24.63.38-36.89a67.2,67.2,0,0,0-14.85-33.06,82.36,82.36,0,0,0-13.63-13,50.05,50.05,0,0,0-7.36-5,59.11,59.11,0,0,1-6.87-3.61,17.37,17.37,0,0,1-3.83-4l-.4-.65c-.46-.78.17.22-.11-.2s.14-.42-.09-.08c.24-.37,0,0-.1.23s-.52.59,0,.11c.21-.18.41-.4.61-.6l1.36-1.33c3.59-3.47,7.27-6.84,10.74-10.44,8.11-8.39,14.82-18.17,15.6-30.15L410.52,91a14.22,14.22,0,0,1,3.11,10.85,17.69,17.69,0,0,1-6.21,10.4l4.77,1.26c-1.87-5.22-3.12-10.75-2.4-16.24-.05.35.07-.37.08-.47.06-.3.13-.6.2-.9s.18-.67.29-1c0-.13.35-.9.18-.53a9.38,9.38,0,0,1,.9-1.57c.2-.27,0,0,0,0a6.15,6.15,0,0,1,.49-.53,7.36,7.36,0,0,1,.65-.49c-.12.08.3-.08.28-.08s-.37,0,.13,0c-.42-.06.24.23-.06,0a2.77,2.77,0,0,1,.93,1,8.82,8.82,0,0,1,.73,4.33c-.05,4.2-1.28,8.32-2.57,12.28l5.22-.68c-3.2-5.84-4.94-14-.43-19.6l-4.48-.57a56.16,56.16,0,0,1,3.07,8.23,12,12,0,0,1,.46,4.11,5.53,5.53,0,0,1-.32,1.47,4.45,4.45,0,0,1-.74,1.26,11.75,11.75,0,0,1-.91,1c.05-.05.15-.2,0,0s0-.09.13,0-.6,0,0,0a5.65,5.65,0,0,1,.58,0s.55.26.26.13.36.35.12.09.1.16.11.17-.17-.25-.25-.38-.32-.66-.14-.23a11.84,11.84,0,0,1-.55-1.75c-.65-2.65-.89-5.38-1.56-8A60.43,60.43,0,0,0,393.93,64.1c-9.45-8.15-21.55-12.48-34-10.51C349,55.32,340.31,62.75,334.81,72s-8.28,20.36-9.13,31.16c-.1,1.24-.17,2.49-.21,3.74-.07,2.3,3.31,4,4.88,2a24.73,24.73,0,0,0,4.87-12.15,8,8,0,0,0-1.73-6.48,7.24,7.24,0,0,0-7.39-1.51c-5.45,1.92-6.74,9.1-6.47,14.17a12.62,12.62,0,0,0,3.16,8.16,7.54,7.54,0,0,0,8.86,1.89c3.68-1.86,5.24-6.35,5.2-10.23a24.33,24.33,0,0,0-3.32-11.63,2.88,2.88,0,0,0-4.49-.57c-6.74,7.27-7.73,19.08-1.8,27.16,1.24,1.67,3.77,2,4.94,0,4.05-6.94,8.58-18.4.86-24.6a8.8,8.8,0,0,0-6-2.32A6.53,6.53,0,0,0,322.05,94c-2,3.08-2.24,7.36-1.56,10.89,1.7,8.81,9.95,13.93,17.5,17.32,3.76,1.69,7.63,3.15,11.26,5.12a9.6,9.6,0,0,1,3.9,3.75c1,1.74,1.77,3.73,1.07,5.5.2-.5,0-.13,0,0-.38.63.38-.33-.16.2l-.38.35c.39-.33-.07,0-.18.1a8.19,8.19,0,0,1-2.4,1,23.9,23.9,0,0,1-2.76.62l-1.21.19c.62-.09-.65.07-.85.09a42.56,42.56,0,0,0-13.6,3.71c-7.84,3.76-13.58,10.56-18,17.87a71.31,71.31,0,0,0-6.93,14.21c-1.88,5.67-2.71,11.61-3.78,17.46-1,5.48-2.38,10.88-3,16.42s-.46,11.46,2.21,16.41c2.47,4.56,7.68,8.07,13,7.37,5.81-.76,8.77-5.94,11.09-10.74,4-8.36,8.75-16.43,10.48-25.66a82.54,82.54,0,0,0,1.1-8.44l-5.61.76a34.33,34.33,0,0,1,.09,13.58c-.9,4.19-2.41,8.22-3.5,12.36a103.23,103.23,0,0,0-2.59,35.46A113.16,113.16,0,0,0,331,270.43c1,3.53,6.52,2,5.51-1.52Z"/><path class="cls-3" d="M370.26,67.83c1.18-3.54,2.46-7.24,5.19-9.77s7.41-3.41,10.13-.86c1.88,1.77,2.3,4.55,3.25,7s3.19,4.85,5.69,4.2c1.35-.34,2.42-1.53,3.81-1.6,4-.2,2.82,7.09,6.05,9.46,2.39,1.76,5.9-.1,8.68.93,5.89,2.19,1.49,12.08,5.29,17.08,2,2.67,6,3.27,8,6,2.16,3,1.13,7.23,2.73,10.52,1.13,2.32,3.43,3.85,4.87,6,3.59,5.36.92,12.45-.07,18.82a34.16,34.16,0,0,0,8.35,27.76"/></g></g></g></svg>