<svg xmlns="http://www.w3.org/2000/svg" viewBox="0 0 248 229.99"><defs><style>.cls-1{fill:#f06524;}.cls-2{fill:#fff;}.cls-3{fill:#007f7f;}.cls-4{fill:#2b999a;}.cls-5{fill:#f99f1d;}.cls-6{fill:#ce2029;}.cls-7{fill:#ab1f24;}</style></defs><title>quote2_1</title><g id="Layer_2" data-name="Layer 2"><g id="BoughtTickets"><rect class="cls-1" y="25.3" width="248" height="204.68"/><path class="cls-2" d="M24.1,67.91l.58-3.57a.91.91,0,0,1,.28-.55.88.88,0,0,1,.57-.18H26l-.12,4.3Zm3.66,0,.57-3.57a.92.92,0,0,1,.29-.55.86.86,0,0,1,.56-.18h.49l-.12,4.3Z"/><path class="cls-2" d="M42.57,63.61v1.77H37.79V78h-2V65.38H31.05V63.61Z"/><path class="cls-2" d="M46.32,78H44.43V62.73h1.89v4.86a9.76,9.76,0,0,1,2.06-.87,7.53,7.53,0,0,1,2-.28,3.86,3.86,0,0,1,2.84.94,3.74,3.74,0,0,1,1,2.78V78H52.32V70.39a2.16,2.16,0,0,0-.61-1.71,2.79,2.79,0,0,0-1.89-.54,7.27,7.27,0,0,0-1.76.23,8.62,8.62,0,0,0-1.74.64Z"/><path class="cls-2" d="M65.68,75.82v1.59a6.78,6.78,0,0,1-1.75.56,11.67,11.67,0,0,1-2.36.24,4.72,4.72,0,0,1-3.82-1.38c-.77-.92-1.15-2.44-1.15-4.55a6.75,6.75,0,0,1,1.2-4.45,4.75,4.75,0,0,1,3.81-1.39,4.72,4.72,0,0,1,3.5,1.09,5.17,5.17,0,0,1,1.06,3.65c0,.3,0,.59,0,.85s0,.57-.09.94H58.51a3.94,3.94,0,0,0,.77,2.69,3.42,3.42,0,0,0,2.59.8,12.6,12.6,0,0,0,2.07-.18A8.26,8.26,0,0,0,65.68,75.82Zm-1.24-4.9a3,3,0,0,0-.66-2.15,3,3,0,0,0-2.17-.63,3.28,3.28,0,0,0-2.4.72,3.62,3.62,0,0,0-.7,2.54h5.91s0-.1,0-.21S64.44,71,64.44,70.92Z"/><path class="cls-2" d="M74.43,81.52H72.54V66.67h1.63l.12,1h.07a4.88,4.88,0,0,1,1.7-.92,6.61,6.61,0,0,1,2.11-.32,3.84,3.84,0,0,1,3.33,1.38,7.88,7.88,0,0,1,1,4.5c0,2.09-.41,3.59-1.22,4.51s-2.17,1.38-4.07,1.38a10.36,10.36,0,0,1-1.55-.11,5,5,0,0,1-1.23-.35Zm6.18-9.2A6,6,0,0,0,80,69.06a2.84,2.84,0,0,0-2.45-.92,5.5,5.5,0,0,0-1.63.24,5.39,5.39,0,0,0-1.45.7V76a5.94,5.94,0,0,0,1.18.35,7.11,7.11,0,0,0,1.37.11,3.67,3.67,0,0,0,2.88-.88A5.21,5.21,0,0,0,80.61,72.32Z"/><path class="cls-2" d="M93.51,75.82v1.59a6.74,6.74,0,0,1-1.76.56,11.57,11.57,0,0,1-2.35.24,4.72,4.72,0,0,1-3.82-1.38c-.77-.92-1.15-2.44-1.15-4.55a6.75,6.75,0,0,1,1.2-4.45,6,6,0,0,1,7.31-.3A5.17,5.17,0,0,1,94,71.18c0,.3,0,.59,0,.85s0,.57-.09.94H86.34a3.94,3.94,0,0,0,.77,2.69,3.42,3.42,0,0,0,2.59.8,12.6,12.6,0,0,0,2.07-.18A8.26,8.26,0,0,0,93.51,75.82Zm-1.24-4.9a2.38,2.38,0,0,0-2.83-2.78,3.28,3.28,0,0,0-2.4.72,3.62,3.62,0,0,0-.7,2.54h5.91s0-.1,0-.21S92.27,71,92.27,70.92Z"/><path class="cls-2" d="M98.32,78H96.43V66.67h1.73l.09,1h.09a8.3,8.3,0,0,1,1.8-.79,6.14,6.14,0,0,1,1.77-.27h.49a.53.53,0,0,1,.2,0v1.81a1.5,1.5,0,0,0-.4,0h-.75a6.77,6.77,0,0,0-1.62.19,6.32,6.32,0,0,0-1.51.59Z"/><path class="cls-2" d="M105.22,68.28h-1.7V66.67h1.7v-.28a3.94,3.94,0,0,1,1-2.93,4,4,0,0,1,3-1c.34,0,.68,0,1,0a8.47,8.47,0,0,1,.94.14V64.3a4.7,4.7,0,0,0-.75-.11q-.47,0-.93,0a2.73,2.73,0,0,0-1.82.47,2.36,2.36,0,0,0-.5,1.72v.32h3.65v1.61h-3.65V78h-1.89Z"/><path class="cls-2" d="M120.79,75.82v1.59A6.87,6.87,0,0,1,119,78a11.57,11.57,0,0,1-2.35.24,4.71,4.71,0,0,1-3.82-1.38c-.77-.92-1.15-2.44-1.15-4.55a6.81,6.81,0,0,1,1.19-4.45,4.77,4.77,0,0,1,3.82-1.39,4.72,4.72,0,0,1,3.5,1.09,5.17,5.17,0,0,1,1.06,3.65c0,.3,0,.59,0,.85s0,.57-.09.94h-7.54a3.94,3.94,0,0,0,.77,2.69,3.39,3.39,0,0,0,2.58.8,12.6,12.6,0,0,0,2.07-.18A8.38,8.38,0,0,0,120.79,75.82Zm-1.24-4.9a3,3,0,0,0-.67-2.15,3,3,0,0,0-2.16-.63,3.28,3.28,0,0,0-2.4.72,3.62,3.62,0,0,0-.7,2.54h5.91s0-.1,0-.21S119.55,71,119.55,70.92Z"/><path class="cls-2" d="M131.65,75.77v1.59a5.27,5.27,0,0,1-1.72.61,11.43,11.43,0,0,1-2.38.24,3.94,3.94,0,0,1-3.39-1.31c-.65-.87-1-2.4-1-4.58s.43-3.64,1.27-4.54,2.28-1.34,4.3-1.34c.45,0,.85,0,1.21,0s.82.07,1.39.15V68.3c-.57-.08-1-.12-1.39-.14l-1.21,0a3.77,3.77,0,0,0-2.92.88,5.21,5.21,0,0,0-.76,3.3,6.19,6.19,0,0,0,.6,3.28,2.61,2.61,0,0,0,2.3.86,10.21,10.21,0,0,0,1.95-.19A8.78,8.78,0,0,0,131.65,75.77Z"/><path class="cls-2" d="M140.48,76.26v1.59a4.9,4.9,0,0,1-1,.26,7.31,7.31,0,0,1-1.21.1,3.94,3.94,0,0,1-3-.92,4.52,4.52,0,0,1-.89-3.17V68.28h-1.7V66.67h1.72l.3-2.76h1.57v2.76h4.05v1.61h-4.05v5.77a2.66,2.66,0,0,0,.52,1.91,2.56,2.56,0,0,0,1.82.5,8.8,8.8,0,0,0,1-.06Z"/><path class="cls-2" d="M148.16,78h-1.89V66.67H148l.09.87h.07A10.62,10.62,0,0,1,150,66.7a5.28,5.28,0,0,1,1.66-.26,4.12,4.12,0,0,1,1.65.3,2.37,2.37,0,0,1,1.08.89h.07a8,8,0,0,1,1.95-.88,6.91,6.91,0,0,1,2.06-.31,3.29,3.29,0,0,1,2.47.86,3.49,3.49,0,0,1,.84,2.54V78h-1.89v-8a1.83,1.83,0,0,0-.53-1.46,2.5,2.5,0,0,0-1.68-.47,5,5,0,0,0-1.35.19,7.1,7.1,0,0,0-1.43.57,3.4,3.4,0,0,1,.06.46c0,.15,0,.31,0,.48V78h-1.89v-8a1.83,1.83,0,0,0-.53-1.46,2.49,2.49,0,0,0-1.67-.47,4.17,4.17,0,0,0-1.22.19,8.21,8.21,0,0,0-1.5.66Z"/><path class="cls-2" d="M173.25,75.82v1.59a6.87,6.87,0,0,1-1.76.56,11.57,11.57,0,0,1-2.35.24,4.72,4.72,0,0,1-3.82-1.38c-.77-.92-1.15-2.44-1.15-4.55a6.81,6.81,0,0,1,1.19-4.45,4.77,4.77,0,0,1,3.82-1.39,4.72,4.72,0,0,1,3.5,1.09,5.17,5.17,0,0,1,1.06,3.65c0,.3,0,.59,0,.85s0,.57-.09.94h-7.54a3.94,3.94,0,0,0,.77,2.69,3.42,3.42,0,0,0,2.59.8,12.79,12.79,0,0,0,2.07-.18A8.26,8.26,0,0,0,173.25,75.82ZM172,70.92a3,3,0,0,0-.67-2.15,3,3,0,0,0-2.16-.63,3.28,3.28,0,0,0-2.4.72,3.62,3.62,0,0,0-.7,2.54H172s0-.1,0-.21S172,71,172,70.92Z"/><path class="cls-2" d="M178.06,62.73V78h-1.89V62.73Z"/><path class="cls-2" d="M188.62,62.73h1.88V78h-1.63L188.73,77h0a4.29,4.29,0,0,1-1.63.93,6.93,6.93,0,0,1-2.19.31,3.81,3.81,0,0,1-3.32-1.38,7.8,7.8,0,0,1-1-4.51,6.75,6.75,0,0,1,1.22-4.5,5.21,5.21,0,0,1,4.07-1.38,9,9,0,0,1,1.51.12,7.43,7.43,0,0,1,1.28.36Zm-2.56,5.41a3.64,3.64,0,0,0-2.88.9,5.26,5.26,0,0,0-.75,3.28,5.8,5.8,0,0,0,.66,3.24,2.84,2.84,0,0,0,2.45.9,6.28,6.28,0,0,0,1.63-.21,5.44,5.44,0,0,0,1.45-.66v-7a6.22,6.22,0,0,0-1.18-.35A8.21,8.21,0,0,0,186.06,68.14Z"/><path class="cls-2" d="M30.38,96.44a3.81,3.81,0,0,1,3.32,1.37,7.69,7.69,0,0,1,1,4.47c0,2.11-.41,3.63-1.24,4.55s-2.21,1.38-4.16,1.38a19,19,0,0,1-2.46-.15,11.78,11.78,0,0,1-2.09-.45V92.73h1.88v4.72a7.27,7.27,0,0,1,3.75-1Zm2.44,5.84a5.74,5.74,0,0,0-.66-3.23,2.82,2.82,0,0,0-2.45-.91,6,6,0,0,0-1.63.22,5.41,5.41,0,0,0-1.45.61v7.2a8.19,8.19,0,0,0,1.15.21,10.26,10.26,0,0,0,1.4.08,3.65,3.65,0,0,0,2.89-.89A5.31,5.31,0,0,0,32.82,102.28Z"/><path class="cls-2" d="M45.72,105.82v1.59A6.87,6.87,0,0,1,44,108a11.59,11.59,0,0,1-2.36.24,4.7,4.7,0,0,1-3.81-1.38c-.77-.92-1.15-2.44-1.15-4.55a6.75,6.75,0,0,1,1.19-4.45,4.77,4.77,0,0,1,3.82-1.39,4.72,4.72,0,0,1,3.5,1.09,5.17,5.17,0,0,1,1.05,3.65c0,.3,0,.59,0,.85s0,.57-.09.94H38.55a3.94,3.94,0,0,0,.77,2.69,3.39,3.39,0,0,0,2.58.8,12.6,12.6,0,0,0,2.07-.18A8.38,8.38,0,0,0,45.72,105.82Zm-1.24-4.9a3,3,0,0,0-.67-2.15,3,3,0,0,0-2.16-.63,3.25,3.25,0,0,0-2.4.72,3.62,3.62,0,0,0-.7,2.54h5.91s0-.1,0-.21S44.48,101,44.48,100.92Z"/><path class="cls-2" d="M55.2,106.26v1.59a4.9,4.9,0,0,1-1,.26,7.49,7.49,0,0,1-1.21.1,4,4,0,0,1-3-.92,4.52,4.52,0,0,1-.88-3.17V98.28h-1.7V96.67h1.72l.3-2.76H51v2.76h4v1.61H51v5.77a2.71,2.71,0,0,0,.52,1.91,2.6,2.6,0,0,0,1.83.5,8.63,8.63,0,0,0,.95-.06Z"/><path class="cls-2" d="M69.41,96.67h2L68.31,108H66.1l-2.49-8.86L61.29,108H59.08L55.93,96.67H58l2.21,9.59,2.46-9.59h1.89l2.62,9.59Z"/><path class="cls-2" d="M81.78,105.82v1.59A6.74,6.74,0,0,1,80,108a11.5,11.5,0,0,1-2.35.24,4.72,4.72,0,0,1-3.82-1.38c-.77-.92-1.15-2.44-1.15-4.55a6.75,6.75,0,0,1,1.2-4.45,4.75,4.75,0,0,1,3.81-1.39,4.72,4.72,0,0,1,3.5,1.09,5.17,5.17,0,0,1,1.06,3.65c0,.3,0,.59,0,.85s0,.57-.09.94H74.61a3.94,3.94,0,0,0,.77,2.69,3.42,3.42,0,0,0,2.59.8,12.6,12.6,0,0,0,2.07-.18A8.26,8.26,0,0,0,81.78,105.82Zm-1.24-4.9a2.37,2.37,0,0,0-2.83-2.78,3.28,3.28,0,0,0-2.4.72,3.62,3.62,0,0,0-.7,2.54h5.91s0-.1,0-.21S80.54,101,80.54,100.92Z"/><path class="cls-2" d="M93.24,105.82v1.59a7,7,0,0,1-1.76.56,11.67,11.67,0,0,1-2.36.24,4.72,4.72,0,0,1-3.82-1.38,7.17,7.17,0,0,1-1.15-4.55,6.75,6.75,0,0,1,1.2-4.45,4.77,4.77,0,0,1,3.82-1.39,4.69,4.69,0,0,1,3.49,1.09,5.12,5.12,0,0,1,1.06,3.65c0,.3,0,.59,0,.85s0,.57-.09.94H86.06a4.05,4.05,0,0,0,.77,2.69,3.42,3.42,0,0,0,2.59.8,12.6,12.6,0,0,0,2.07-.18A8.55,8.55,0,0,0,93.24,105.82ZM92,100.92a2.38,2.38,0,0,0-2.83-2.78,3.29,3.29,0,0,0-2.41.72,3.67,3.67,0,0,0-.7,2.54H92s0-.1,0-.21S92,101,92,100.92Z"/><path class="cls-2" d="M98.05,108H96.16V96.67h1.63l.09,1.1H98a6.58,6.58,0,0,1,1.92-1,7.2,7.2,0,0,1,2.25-.32,4,4,0,0,1,2.86.94,3.71,3.71,0,0,1,1,2.78V108h-1.89v-7.64a2.12,2.12,0,0,0-.64-1.7,3,3,0,0,0-2-.55,5.94,5.94,0,0,0-1.69.26,8.11,8.11,0,0,0-1.71.77Z"/><path class="cls-2" d="M119.11,106.26v1.59a4.73,4.73,0,0,1-1,.26,7.28,7.28,0,0,1-1.2.1,4,4,0,0,1-3-.92,4.52,4.52,0,0,1-.89-3.17V98.28h-1.7V96.67h1.73l.3-2.76H115v2.76h4v1.61h-4v5.77a2.66,2.66,0,0,0,.52,1.91,2.57,2.57,0,0,0,1.83.5,8.78,8.78,0,0,0,1-.06Z"/><path class="cls-2" d="M133.33,96.67h2L132.22,108H130l-2.48-8.86L125.21,108H123l-3.15-11.36h2.07l2.21,9.59,2.46-9.59h1.88l2.62,9.59Z"/><path class="cls-2" d="M147.15,102.32c0,2.15-.4,3.67-1.19,4.56s-2.14,1.33-4.06,1.33-3.35-.43-4.11-1.28-1.15-2.4-1.15-4.61.39-3.68,1.18-4.56,2.15-1.32,4.08-1.32,3.35.43,4.11,1.29S147.15,100.12,147.15,102.32Zm-8.63,0a5.77,5.77,0,0,0,.67,3.35,3.45,3.45,0,0,0,2.71.81,3.28,3.28,0,0,0,2.67-.86,5.56,5.56,0,0,0,.69-3.3,5.85,5.85,0,0,0-.65-3.34c-.44-.55-1.34-.82-2.71-.82a3.35,3.35,0,0,0-2.69.85A5.58,5.58,0,0,0,138.52,102.3Z"/><path class="cls-2" d="M32.29,122.73h1.89V138H32.54L32.4,137h0a4.33,4.33,0,0,1-1.62.93,7,7,0,0,1-2.2.31,3.81,3.81,0,0,1-3.32-1.38,7.81,7.81,0,0,1-1-4.51c0-2.08.4-3.58,1.21-4.5s2.17-1.38,4.08-1.38a8.85,8.85,0,0,1,1.5.12,7.18,7.18,0,0,1,1.28.36Zm-2.55,5.41a3.65,3.65,0,0,0-2.89.9,5.26,5.26,0,0,0-.75,3.28,5.8,5.8,0,0,0,.66,3.24,2.84,2.84,0,0,0,2.45.9,6.28,6.28,0,0,0,1.63-.21,5.44,5.44,0,0,0,1.45-.66v-7a6.34,6.34,0,0,0-1.17-.35A8.39,8.39,0,0,0,29.74,128.14Z"/><path class="cls-2" d="M39.17,124.69h-2v-2h2ZM39.1,138H37.21V126.67H39.1Z"/><path class="cls-2" d="M42.8,128.28H41.1v-1.61h1.7v-.28a3.94,3.94,0,0,1,1-2.93,4,4,0,0,1,3-1c.34,0,.68,0,1,0a8.31,8.31,0,0,1,.95.14v1.61a5.09,5.09,0,0,0-.75-.11l-.93,0a2.71,2.71,0,0,0-1.82.47,2.31,2.31,0,0,0-.5,1.72v.32h3.65v1.61H44.69V138H42.8Z"/><path class="cls-2" d="M50.87,128.28h-1.7v-1.61h1.7v-.28a3.94,3.94,0,0,1,1-2.93,4,4,0,0,1,3-1c.33,0,.67,0,1,0a8.47,8.47,0,0,1,.94.14v1.61a4.7,4.7,0,0,0-.75-.11q-.46,0-.93,0a2.73,2.73,0,0,0-1.82.47,2.36,2.36,0,0,0-.5,1.72v.32h3.66v1.61H52.76V138H50.87Z"/><path class="cls-2" d="M66.44,135.82v1.59a6.74,6.74,0,0,1-1.76.56,11.57,11.57,0,0,1-2.35.24,4.72,4.72,0,0,1-3.82-1.38c-.77-.92-1.15-2.44-1.15-4.55a6.81,6.81,0,0,1,1.19-4.45,4.79,4.79,0,0,1,3.82-1.39,4.72,4.72,0,0,1,3.5,1.09,5.17,5.17,0,0,1,1.06,3.65c0,.3,0,.59,0,.85s0,.57-.09.94H59.27a3.94,3.94,0,0,0,.77,2.69,3.42,3.42,0,0,0,2.59.8,12.69,12.69,0,0,0,2.07-.18A8.26,8.26,0,0,0,66.44,135.82Zm-1.24-4.9a3,3,0,0,0-.67-2.15,3,3,0,0,0-2.16-.63,3.28,3.28,0,0,0-2.4.72,3.62,3.62,0,0,0-.7,2.54h5.91s0-.1,0-.21S65.2,131,65.2,130.92Z"/><path class="cls-2" d="M71.25,138H69.36V126.67h1.73l.09,1h.09a8.3,8.3,0,0,1,1.8-.79,6.14,6.14,0,0,1,1.77-.27h.49a.53.53,0,0,1,.2,0v1.81a1.5,1.5,0,0,0-.4,0h-.75a6.77,6.77,0,0,0-1.62.19,6.32,6.32,0,0,0-1.51.59Z"/><path class="cls-2" d="M85.72,135.82v1.59A7,7,0,0,1,84,138a11.67,11.67,0,0,1-2.36.24,4.72,4.72,0,0,1-3.82-1.38,7.17,7.17,0,0,1-1.15-4.55,6.75,6.75,0,0,1,1.2-4.45,4.77,4.77,0,0,1,3.82-1.39,4.69,4.69,0,0,1,3.49,1.09,5.12,5.12,0,0,1,1.06,3.65c0,.3,0,.59,0,.85s-.05.57-.09.94H78.54a4.05,4.05,0,0,0,.77,2.69,3.42,3.42,0,0,0,2.59.8,12.6,12.6,0,0,0,2.07-.18A8.55,8.55,0,0,0,85.72,135.82Zm-1.24-4.9a2.38,2.38,0,0,0-2.83-2.78,3.29,3.29,0,0,0-2.41.72,3.67,3.67,0,0,0-.7,2.54h5.91s0-.1,0-.21S84.48,131,84.48,130.92Z"/><path class="cls-2" d="M90.53,138H88.64V126.67h1.63l.1,1.1h.06a6.58,6.58,0,0,1,1.92-1,7.2,7.2,0,0,1,2.25-.32,4,4,0,0,1,2.86.94,3.71,3.71,0,0,1,1,2.78V138H96.55v-7.64a2.12,2.12,0,0,0-.64-1.7,3,3,0,0,0-2-.55,5.94,5.94,0,0,0-1.69.26,8.34,8.34,0,0,0-1.71.77Z"/><path class="cls-2" d="M107.91,136.26v1.59a4.73,4.73,0,0,1-1,.26,7.28,7.28,0,0,1-1.2.1,4,4,0,0,1-3-.92,4.52,4.52,0,0,1-.89-3.17v-5.84h-1.7v-1.61h1.73l.3-2.76h1.56v2.76h4v1.61h-4v5.77a2.66,2.66,0,0,0,.52,1.91,2.57,2.57,0,0,0,1.83.5,8.78,8.78,0,0,0,1-.06Z"/><path class="cls-2" d="M122.24,135.82v1.59a6.87,6.87,0,0,1-1.76.56,11.59,11.59,0,0,1-2.36.24,4.68,4.68,0,0,1-3.81-1.38c-.77-.92-1.15-2.44-1.15-4.55a6.75,6.75,0,0,1,1.19-4.45,4.77,4.77,0,0,1,3.82-1.39,4.72,4.72,0,0,1,3.5,1.09,5.17,5.17,0,0,1,1,3.65c0,.3,0,.59,0,.85s0,.57-.09.94h-7.55a4,4,0,0,0,.78,2.69,3.39,3.39,0,0,0,2.58.8,12.6,12.6,0,0,0,2.07-.18A8.38,8.38,0,0,0,122.24,135.82Zm-1.24-4.9a2.38,2.38,0,0,0-2.83-2.78,3.25,3.25,0,0,0-2.4.72,3.62,3.62,0,0,0-.71,2.54H121s0-.1,0-.21S121,131,121,130.92Z"/><path class="cls-2" d="M127.05,138h-1.89V126.67h1.73l.09,1h.09a8.44,8.44,0,0,1,1.79-.79,6.15,6.15,0,0,1,1.78-.27h.49a.56.56,0,0,1,.2,0v1.81a1.58,1.58,0,0,0-.41,0h-.74a6.79,6.79,0,0,0-1.63.19,6.24,6.24,0,0,0-1.5.59Z"/><path class="cls-2" d="M135.56,138.21a3.46,3.46,0,0,1-2.57-.84,3.7,3.7,0,0,1-.81-2.65,3.1,3.1,0,0,1,1-2.61,5.51,5.51,0,0,1,3.35-.77c.53,0,1,0,1.54.06a14,14,0,0,1,1.43.21v-1.1a2.27,2.27,0,0,0-.64-1.82,3.15,3.15,0,0,0-2.07-.55c-.71,0-1.33,0-1.87.08a13.14,13.14,0,0,0-1.61.26v-1.63a13.18,13.18,0,0,1,1.88-.32c.63-.06,1.36-.09,2.17-.09a4.26,4.26,0,0,1,3,1,4,4,0,0,1,1,3V138h-1.73l-.09-1.06h-.05a5.4,5.4,0,0,1-1.78.9A7.17,7.17,0,0,1,135.56,138.21Zm1.17-5.33a4.31,4.31,0,0,0-2.17.38,1.44,1.44,0,0,0-.61,1.34,1.88,1.88,0,0,0,.5,1.46,2.48,2.48,0,0,0,1.66.45,6.33,6.33,0,0,0,1.84-.28,5.13,5.13,0,0,0,1.54-.69v-2.43c-.5-.08-1-.14-1.41-.18S137.19,132.88,136.73,132.88Z"/><path class="cls-2" d="M148.23,128.14a4.2,4.2,0,0,0-2,.34,1.52,1.52,0,0,0-.57,1.41,1.21,1.21,0,0,0,.27.84,1.43,1.43,0,0,0,.84.38l2.92.43a3,3,0,0,1,1.93.87,3.12,3.12,0,0,1,.55,2.05,3.78,3.78,0,0,1-.94,2.87,4.5,4.5,0,0,1-3.13.88,18.66,18.66,0,0,1-2.44-.14,11,11,0,0,1-1.86-.36v-1.77a10.87,10.87,0,0,0,1.8.37,14.52,14.52,0,0,0,2.2.15,3.34,3.34,0,0,0,2-.41,1.79,1.79,0,0,0,.53-1.47,1.37,1.37,0,0,0-.3-1,1.82,1.82,0,0,0-1.08-.42l-2.93-.44a2.44,2.44,0,0,1-1.64-.85,3.26,3.26,0,0,1-.56-2,3.08,3.08,0,0,1,1.07-2.62,5.31,5.31,0,0,1,3.3-.83c.61,0,1.17,0,1.66,0a13.29,13.29,0,0,1,1.58.19v1.68a12.28,12.28,0,0,0-1.4-.15C149.42,128.16,148.84,128.14,148.23,128.14Z"/><path class="cls-2" d="M155.84,138H154v-1.91h1.88Z"/><path class="cls-2" d="M159.85,138H158v-1.91h1.89Z"/><path class="cls-2" d="M163.85,138H162v-1.91h1.89Z"/><path class="cls-2" d="M166,123.61l-.57,3.56a.94.94,0,0,1-.29.56.84.84,0,0,1-.56.18h-.49l.12-4.3Zm3.66,0-.57,3.56a1,1,0,0,1-.29.56.88.88,0,0,1-.57.18h-.48l.12-4.3Z"/><rect class="cls-3" x="128.9" y="-0.09" width="25.58" height="25.76" transform="translate(128.9 154.49) rotate(-90)"/><rect class="cls-4" x="103.14" y="-0.09" width="25.58" height="25.76" transform="translate(103.14 128.72) rotate(-90)"/><rect class="cls-5" x="77.38" y="-0.09" width="25.58" height="25.76" transform="translate(77.38 102.96) rotate(-90)"/><rect class="cls-1" x="51.61" y="-0.09" width="25.58" height="25.76" transform="translate(51.61 77.2) rotate(-90)"/><rect class="cls-6" x="25.85" y="-0.09" width="25.58" height="25.76" transform="translate(25.85 51.44) rotate(-90)"/><rect class="cls-7" x="0.09" y="-0.09" width="25.58" height="25.76" transform="translate(0.09 25.67) rotate(-90)"/></g></g></svg>