<svg xmlns="http://www.w3.org/2000/svg" viewBox="0 0 248.85 230.45"><defs><style>.cls-1{fill:#ce2029;}.cls-2{fill:#fff;}.cls-3{fill:#007f7f;}.cls-4{fill:#2b999a;}.cls-5{fill:#f99f1d;}.cls-6{fill:#f06524;}.cls-7{fill:#ab1f24;}</style></defs><title>quote1.svg</title><g id="Layer_2" data-name="Layer 2"><g id="BoughtTickets"><rect class="cls-1" y="25.64" width="248.85" height="204.82"/><path class="cls-2" d="M36.25,67.92l.57-3.56a.89.89,0,0,1,.29-.55.81.81,0,0,1,.56-.19h.49L38,67.92Zm3.65,0,.58-3.56a.89.89,0,0,1,.29-.55.79.79,0,0,1,.56-.19h.48l-.11,4.3Z"/><path class="cls-2" d="M44,78H41.93l5.7-14.42h2L55.29,78H53.22l-1.31-3.47h-6.6Zm4.6-12.62c-.15.53-.33,1.1-.54,1.7l-.63,1.79L46,72.84h5.32l-1.48-3.93q-.45-1.26-.72-2C48.89,66.34,48.74,65.86,48.6,65.42Z"/><path class="cls-2" d="M66.1,72l-3.49-.82A3.58,3.58,0,0,1,60.51,70a3.75,3.75,0,0,1-.64-2.33,4,4,0,0,1,1.25-3.22,6.08,6.08,0,0,1,3.9-1,16.9,16.9,0,0,1,2,.11,9.75,9.75,0,0,1,1.64.31v1.77a12.93,12.93,0,0,0-1.84-.32,15.09,15.09,0,0,0-1.81-.1,4.48,4.48,0,0,0-2.49.52,2.13,2.13,0,0,0-.71,1.83,2,2,0,0,0,.33,1.25,1.89,1.89,0,0,0,1.1.61l3.47.83a4.29,4.29,0,0,1,2.45,1.23,5.21,5.21,0,0,1-.62,5.81,6.21,6.21,0,0,1-3.9,1,18.07,18.07,0,0,1-2.7-.19,9.24,9.24,0,0,1-2.06-.48V75.72a17.26,17.26,0,0,0,2.3.5,18.26,18.26,0,0,0,2.46.17A4.21,4.21,0,0,0,67,75.88a2.3,2.3,0,0,0,.69-1.95,2,2,0,0,0-.33-1.3A2.41,2.41,0,0,0,66.1,72Z"/><path class="cls-2" d="M73.88,78H72V62.75h1.89V67.6a9.43,9.43,0,0,1,2.05-.86,7.61,7.61,0,0,1,2-.29,3.92,3.92,0,0,1,2.84.94,3.74,3.74,0,0,1,1,2.79V78H79.88V70.41a2.22,2.22,0,0,0-.61-1.72,2.82,2.82,0,0,0-1.9-.54,7.34,7.34,0,0,0-1.76.23,8.79,8.79,0,0,0-1.73.65Z"/><path class="cls-2" d="M87.28,78.23a3.43,3.43,0,0,1-2.56-.84,3.73,3.73,0,0,1-.82-2.66,3.12,3.12,0,0,1,1-2.61,5.61,5.61,0,0,1,3.36-.77c.52,0,1,0,1.54.07a12,12,0,0,1,1.43.21V70.52a2.25,2.25,0,0,0-.65-1.81,3.14,3.14,0,0,0-2.07-.56c-.7,0-1.32,0-1.86.08A15,15,0,0,0,85,68.5V66.87a11.81,11.81,0,0,1,1.87-.33c.64-.06,1.37-.09,2.18-.09a4.19,4.19,0,0,1,3,1,3.92,3.92,0,0,1,1,3V78H91.38L91.29,77h-.05a5.59,5.59,0,0,1-1.78.89A7.25,7.25,0,0,1,87.28,78.23Zm1.18-5.34a4.47,4.47,0,0,0-2.18.38,1.47,1.47,0,0,0-.61,1.35,1.86,1.86,0,0,0,.51,1.46,2.48,2.48,0,0,0,1.66.45,6.74,6.74,0,0,0,1.84-.28,5.25,5.25,0,0,0,1.54-.69V73.12c-.51-.08-1-.13-1.42-.17S88.92,72.89,88.46,72.89Z"/><path class="cls-2" d="M97.93,73.12V78H96.05V62.75h1.88v8.74h1.36l4-4.81h2.27l-4.71,5.52,5,5.84h-2.37l-4-4.92Z"/><path class="cls-2" d="M115.27,75.84v1.58a6.69,6.69,0,0,1-1.76.57,11.5,11.5,0,0,1-2.35.24,4.72,4.72,0,0,1-3.82-1.38c-.77-.92-1.15-2.44-1.15-4.56a6.81,6.81,0,0,1,1.19-4.45,4.82,4.82,0,0,1,3.82-1.39,4.76,4.76,0,0,1,3.5,1.09,5.18,5.18,0,0,1,1.06,3.65c0,.31,0,.59,0,.85s0,.58-.09.94H108.1a3.93,3.93,0,0,0,.77,2.69,3.42,3.42,0,0,0,2.59.81,12.69,12.69,0,0,0,2.07-.18A8.92,8.92,0,0,0,115.27,75.84ZM114,70.94a2.38,2.38,0,0,0-2.83-2.79,3.24,3.24,0,0,0-2.4.73,3.61,3.61,0,0,0-.7,2.54H114s0-.1,0-.22S114,71,114,70.94Z"/><path class="cls-2" d="M122.11,68.15a4.22,4.22,0,0,0-2,.35,1.51,1.51,0,0,0-.56,1.4,1.18,1.18,0,0,0,.26.84,1.43,1.43,0,0,0,.84.38l2.92.44a3,3,0,0,1,1.93.86,3.15,3.15,0,0,1,.56,2.06,3.76,3.76,0,0,1-1,2.86,4.5,4.5,0,0,1-3.13.89,20.4,20.4,0,0,1-2.43-.14,10.8,10.8,0,0,1-1.87-.37V76a12,12,0,0,0,1.81.38,15.69,15.69,0,0,0,2.19.15,3.37,3.37,0,0,0,2-.41,1.8,1.8,0,0,0,.53-1.48,1.34,1.34,0,0,0-.3-1,1.88,1.88,0,0,0-1.08-.43l-2.92-.44a2.41,2.41,0,0,1-1.65-.85,3.24,3.24,0,0,1-.56-2,3.12,3.12,0,0,1,1.07-2.62,5.37,5.37,0,0,1,3.3-.83c.61,0,1.17,0,1.67,0a15.44,15.44,0,0,1,1.57.18v1.68c-.4-.06-.86-.11-1.4-.15S122.72,68.15,122.11,68.15Z"/><path class="cls-2" d="M130.18,81.54h-1.89V66.68h1.64l.11,1h.07a5,5,0,0,1,1.7-.92,7,7,0,0,1,2.12-.32,3.83,3.83,0,0,1,3.32,1.38,7.81,7.81,0,0,1,1,4.51c0,2.09-.41,3.59-1.22,4.51s-2.17,1.38-4.07,1.38a9.21,9.21,0,0,1-1.55-.12,5,5,0,0,1-1.23-.34Zm6.19-9.2a5.92,5.92,0,0,0-.66-3.27,2.83,2.83,0,0,0-2.45-.92,5.38,5.38,0,0,0-1.62.24,6,6,0,0,0-1.46.71V76a6.12,6.12,0,0,0,1.18.34,7.13,7.13,0,0,0,1.37.12,3.69,3.69,0,0,0,2.89-.89A5.18,5.18,0,0,0,136.37,72.34Z"/><path class="cls-2" d="M149.27,75.84v1.58a7,7,0,0,1-1.76.57,11.67,11.67,0,0,1-2.36.24,4.72,4.72,0,0,1-3.82-1.38c-.77-.92-1.15-2.44-1.15-4.56a6.75,6.75,0,0,1,1.2-4.45,4.81,4.81,0,0,1,3.82-1.39,4.74,4.74,0,0,1,3.49,1.09,5.14,5.14,0,0,1,1.06,3.65c0,.31,0,.59,0,.85s0,.58-.1.94h-7.54a4,4,0,0,0,.77,2.69,3.42,3.42,0,0,0,2.59.81,12.6,12.6,0,0,0,2.07-.18A9.25,9.25,0,0,0,149.27,75.84ZM148,70.94a2.39,2.39,0,0,0-2.83-2.79,3.25,3.25,0,0,0-2.41.73,3.61,3.61,0,0,0-.7,2.54H148s0-.1,0-.22S148,71,148,70.94Z"/><path class="cls-2" d="M154.76,78.23a3.43,3.43,0,0,1-2.56-.84,3.73,3.73,0,0,1-.82-2.66,3.12,3.12,0,0,1,1-2.61,5.61,5.61,0,0,1,3.36-.77c.52,0,1,0,1.54.07a12,12,0,0,1,1.43.21V70.52a2.25,2.25,0,0,0-.65-1.81,3.14,3.14,0,0,0-2.07-.56c-.7,0-1.32,0-1.86.08a15,15,0,0,0-1.61.27V66.87a11.81,11.81,0,0,1,1.87-.33c.64-.06,1.37-.09,2.18-.09a4.19,4.19,0,0,1,3,1,3.92,3.92,0,0,1,1,3V78h-1.72L158.77,77h-.05a5.59,5.59,0,0,1-1.78.89A7.25,7.25,0,0,1,154.76,78.23Zm1.18-5.34a4.47,4.47,0,0,0-2.18.38,1.47,1.47,0,0,0-.61,1.35,1.86,1.86,0,0,0,.51,1.46,2.48,2.48,0,0,0,1.66.45,6.74,6.74,0,0,0,1.84-.28,5.13,5.13,0,0,0,1.54-.69V73.12c-.51-.08-1-.13-1.42-.17S156.4,72.89,155.94,72.89Z"/><path class="cls-2" d="M165.41,78h-1.88V66.68h1.72l.09,1h.1a7.82,7.82,0,0,1,1.79-.8,6.48,6.48,0,0,1,1.77-.26h.5l.19,0v1.82a2,2,0,0,0-.4-.06h-.75a6.78,6.78,0,0,0-1.62.2,6.29,6.29,0,0,0-1.51.58Z"/><path class="cls-2" d="M179.88,75.84v1.58a6.82,6.82,0,0,1-1.76.57,11.59,11.59,0,0,1-2.36.24A4.7,4.7,0,0,1,172,76.85c-.77-.92-1.15-2.44-1.15-4.56A6.81,6.81,0,0,1,172,67.84a6,6,0,0,1,7.32-.3,5.18,5.18,0,0,1,1.06,3.65c0,.31,0,.59,0,.85s-.05.58-.09.94h-7.54a3.93,3.93,0,0,0,.77,2.69,3.39,3.39,0,0,0,2.58.81,12.6,12.6,0,0,0,2.07-.18A9,9,0,0,0,179.88,75.84Zm-1.24-4.9a2.39,2.39,0,0,0-2.83-2.79,3.24,3.24,0,0,0-2.4.73,3.61,3.61,0,0,0-.7,2.54h5.91s0-.1,0-.22S178.64,71,178.64,70.94Z"/><path class="cls-2" d="M185.38,78.23a3.46,3.46,0,0,1-2.57-.84,3.73,3.73,0,0,1-.81-2.66,3.12,3.12,0,0,1,1-2.61,5.6,5.6,0,0,1,3.35-.77c.53,0,1,0,1.54.07a11.67,11.67,0,0,1,1.43.21V70.52a2.25,2.25,0,0,0-.64-1.81,3.14,3.14,0,0,0-2.07-.56c-.71,0-1.33,0-1.87.08a14.84,14.84,0,0,0-1.6.27V66.87a11.61,11.61,0,0,1,1.87-.33c.63-.06,1.36-.09,2.17-.09a4.22,4.22,0,0,1,3,1,3.92,3.92,0,0,1,1,3V78h-1.73L189.38,77h0a5.48,5.48,0,0,1-1.78.89A7.18,7.18,0,0,1,185.38,78.23Zm1.17-5.34a4.45,4.45,0,0,0-2.17.38,1.45,1.45,0,0,0-.61,1.35,1.86,1.86,0,0,0,.51,1.46,2.43,2.43,0,0,0,1.65.45,6.69,6.69,0,0,0,1.84-.28,5.13,5.13,0,0,0,1.54-.69V73.12c-.5-.08-1-.13-1.41-.17S187,72.89,186.55,72.89Z"/><path class="cls-2" d="M196,78h-1.89V66.68h1.64l.09,1.11h.07a6.6,6.6,0,0,1,1.92-1,7.39,7.39,0,0,1,2.24-.32,4,4,0,0,1,2.86.94,3.72,3.72,0,0,1,1,2.79V78h-1.89V70.41a2.1,2.1,0,0,0-.64-1.7,3,3,0,0,0-2-.56,5.67,5.67,0,0,0-1.69.27,7.39,7.39,0,0,0-1.71.77Z"/><path class="cls-2" d="M38.8,111.54H36.91V96.68h1.64l.11,1h.07a5.15,5.15,0,0,1,1.7-.92,7,7,0,0,1,2.12-.32,3.81,3.81,0,0,1,3.32,1.38,7.81,7.81,0,0,1,1,4.51c0,2.09-.4,3.59-1.22,4.51s-2.17,1.38-4.07,1.38a9.29,9.29,0,0,1-1.55-.12,5,5,0,0,1-1.23-.34Zm6.19-9.2a5.92,5.92,0,0,0-.66-3.27,2.83,2.83,0,0,0-2.45-.92,5.38,5.38,0,0,0-1.62.24,6,6,0,0,0-1.46.71V106a6.12,6.12,0,0,0,1.18.34,7.2,7.2,0,0,0,1.37.12,3.69,3.69,0,0,0,2.89-.89A5.18,5.18,0,0,0,45,102.34Z"/><path class="cls-2" d="M57.89,105.84v1.58a7,7,0,0,1-1.76.57,11.59,11.59,0,0,1-2.36.24A4.68,4.68,0,0,1,50,106.85c-.77-.92-1.16-2.44-1.16-4.56A6.75,6.75,0,0,1,50,97.84a4.81,4.81,0,0,1,3.82-1.39,4.74,4.74,0,0,1,3.49,1.09,5.14,5.14,0,0,1,1.06,3.65c0,.31,0,.59,0,.85s-.05.58-.09.94H50.71a4,4,0,0,0,.77,2.69,3.42,3.42,0,0,0,2.59.81,12.6,12.6,0,0,0,2.07-.18A9,9,0,0,0,57.89,105.84Zm-1.24-4.9a2.39,2.39,0,0,0-2.83-2.79,3.25,3.25,0,0,0-2.41.73,3.66,3.66,0,0,0-.7,2.54h5.92s0-.1,0-.22S56.65,101,56.65,100.94Z"/><path class="cls-2" d="M62.7,108H60.81V96.68h1.73l.09,1h.09a8,8,0,0,1,1.79-.8,6.5,6.5,0,0,1,1.78-.26h.49l.19,0v1.82a1.89,1.89,0,0,0-.4-.06h-.75a6.78,6.78,0,0,0-1.62.2,6.06,6.06,0,0,0-1.5.58Z"/><path class="cls-2" d="M69.6,98.29H67.89V96.68H69.6v-.27a4,4,0,0,1,1-2.94,4.12,4.12,0,0,1,3-1c.34,0,.68,0,1,0a8.13,8.13,0,0,1,.94.14v1.61a4.92,4.92,0,0,0-.74-.1c-.32,0-.63,0-.94,0a2.64,2.64,0,0,0-1.81.48,2.27,2.27,0,0,0-.51,1.71v.32h3.66v1.61H71.48V108H69.6Z"/><path class="cls-2" d="M86.62,102.34c0,2.15-.4,3.66-1.19,4.55s-2.14,1.34-4.06,1.34-3.35-.43-4.11-1.29-1.15-2.39-1.15-4.6.39-3.68,1.18-4.57,2.15-1.32,4.08-1.32,3.35.43,4.11,1.29S86.62,100.13,86.62,102.34Zm-8.63,0a5.65,5.65,0,0,0,.67,3.34,3.41,3.41,0,0,0,2.71.82,3.32,3.32,0,0,0,2.67-.86,5.61,5.61,0,0,0,.69-3.3A5.87,5.87,0,0,0,84.08,99a3.43,3.43,0,0,0-2.71-.82,3.39,3.39,0,0,0-2.69.85A5.62,5.62,0,0,0,78,102.32Z"/><path class="cls-2" d="M91,108H89.12V96.68h1.73l.09,1H91a7.89,7.89,0,0,1,1.8-.8,6.48,6.48,0,0,1,1.77-.26h.49l.2,0v1.82a2,2,0,0,0-.41-.06h-.74a6.72,6.72,0,0,0-1.62.2,6.13,6.13,0,0,0-1.51.58Z"/><path class="cls-2" d="M99.13,108H97.24V96.68H99l.09.87h.07a9.54,9.54,0,0,1,1.84-.83,5.29,5.29,0,0,1,1.66-.27,4.12,4.12,0,0,1,1.65.3,2.39,2.39,0,0,1,1.08.9h.07a7.81,7.81,0,0,1,1.95-.89,6.89,6.89,0,0,1,2.05-.31,3.33,3.33,0,0,1,2.48.86,3.56,3.56,0,0,1,.83,2.54V108h-1.88v-8a1.9,1.9,0,0,0-.53-1.47,2.5,2.5,0,0,0-1.68-.47,5.21,5.21,0,0,0-1.36.2,7.61,7.61,0,0,0-1.42.56,3.87,3.87,0,0,1,.06.46c0,.16,0,.32,0,.48V108h-1.89v-8a1.86,1.86,0,0,0-.53-1.47,2.5,2.5,0,0,0-1.68-.47,4.14,4.14,0,0,0-1.21.2,8.83,8.83,0,0,0-1.5.65Z"/><path class="cls-2" d="M118.26,108.23a3.43,3.43,0,0,1-2.56-.84,3.73,3.73,0,0,1-.82-2.66,3.12,3.12,0,0,1,1-2.61,5.61,5.61,0,0,1,3.36-.77c.52,0,1,0,1.54.07a12,12,0,0,1,1.43.21v-1.11a2.25,2.25,0,0,0-.65-1.81,3.14,3.14,0,0,0-2.07-.56c-.7,0-1.32,0-1.86.08a15,15,0,0,0-1.61.27V96.87a11.81,11.81,0,0,1,1.87-.33c.64-.06,1.37-.09,2.18-.09a4.19,4.19,0,0,1,3,1,3.92,3.92,0,0,1,1,3V108h-1.72l-.09-1.05h0a5.59,5.59,0,0,1-1.78.89A7.25,7.25,0,0,1,118.26,108.23Zm1.18-5.34a4.47,4.47,0,0,0-2.18.38,1.47,1.47,0,0,0-.61,1.35,1.86,1.86,0,0,0,.51,1.46,2.48,2.48,0,0,0,1.66.45,6.74,6.74,0,0,0,1.84-.28,5.13,5.13,0,0,0,1.54-.69v-2.44c-.51-.08-1-.13-1.42-.17S119.9,102.89,119.44,102.89Z"/><path class="cls-2" d="M128.91,108H127V96.68h1.63l.09,1.11h.07a6.6,6.6,0,0,1,1.92-1,7.48,7.48,0,0,1,2.24-.32,4,4,0,0,1,2.87.94,3.72,3.72,0,0,1,1,2.79V108h-1.89v-7.63a2.1,2.1,0,0,0-.65-1.7,2.93,2.93,0,0,0-2-.56,5.62,5.62,0,0,0-1.69.27,7.46,7.46,0,0,0-1.72.77Z"/><path class="cls-2" d="M147.7,105.79v1.59A5.6,5.6,0,0,1,146,108a11.5,11.5,0,0,1-2.38.24,4,4,0,0,1-3.39-1.31c-.66-.88-1-2.4-1-4.58s.42-3.65,1.26-4.54,2.28-1.35,4.3-1.35c.45,0,.85,0,1.21,0s.83.07,1.39.14v1.68c-.56-.07-1-.12-1.39-.13s-.76,0-1.21,0a3.77,3.77,0,0,0-2.92.89,5.29,5.29,0,0,0-.75,3.3,6.26,6.26,0,0,0,.59,3.28,2.64,2.64,0,0,0,2.3.86,10.43,10.43,0,0,0,2-.2A8.71,8.71,0,0,0,147.7,105.79Z"/><path class="cls-2" d="M158.31,105.84v1.58a7,7,0,0,1-1.76.57,11.67,11.67,0,0,1-2.36.24,4.72,4.72,0,0,1-3.82-1.38c-.77-.92-1.15-2.44-1.15-4.56a6.75,6.75,0,0,1,1.2-4.45,4.79,4.79,0,0,1,3.82-1.39,4.74,4.74,0,0,1,3.49,1.09,5.14,5.14,0,0,1,1.06,3.65c0,.31,0,.59,0,.85s-.05.58-.1.94h-7.54a3.93,3.93,0,0,0,.77,2.69,3.42,3.42,0,0,0,2.59.81,12.6,12.6,0,0,0,2.07-.18A9.25,9.25,0,0,0,158.31,105.84Zm-1.25-4.9a2.38,2.38,0,0,0-2.82-2.79,3.25,3.25,0,0,0-2.41.73,3.61,3.61,0,0,0-.7,2.54H157s0-.1,0-.22S157.06,101,157.06,100.94Z"/><path class="cls-2" d="M171.44,106.27v1.59a4.33,4.33,0,0,1-1,.26,7.35,7.35,0,0,1-1.21.11,4,4,0,0,1-2.95-.92,4.54,4.54,0,0,1-.89-3.18V98.29h-1.7V96.68h1.72l.3-2.76h1.57v2.76h4v1.61h-4v5.77a2.68,2.68,0,0,0,.51,1.91,2.6,2.6,0,0,0,1.83.51,7,7,0,0,0,1-.07C170.94,106.36,171.22,106.32,171.44,106.27Z"/><path class="cls-2" d="M175.19,108H173.3V92.75h1.89V97.6a9.5,9.5,0,0,1,2.06-.86,7.54,7.54,0,0,1,2-.29,3.9,3.9,0,0,1,2.84.94,3.75,3.75,0,0,1,1,2.79V108h-1.89v-7.63a2.18,2.18,0,0,0-.61-1.72,2.82,2.82,0,0,0-1.9-.54,7.4,7.4,0,0,0-1.76.23,8.79,8.79,0,0,0-1.73.65Z"/><path class="cls-2" d="M188.6,108.23a3.46,3.46,0,0,1-2.57-.84,3.73,3.73,0,0,1-.82-2.66,3.09,3.09,0,0,1,1-2.61,5.56,5.56,0,0,1,3.35-.77c.52,0,1,0,1.54.07a12,12,0,0,1,1.43.21v-1.11a2.25,2.25,0,0,0-.65-1.81,3.09,3.09,0,0,0-2.06-.56c-.71,0-1.33,0-1.87.08a15.45,15.45,0,0,0-1.61.27V96.87a11.93,11.93,0,0,1,1.88-.33c.63-.06,1.36-.09,2.17-.09a4.22,4.22,0,0,1,3,1,3.92,3.92,0,0,1,1,3V108h-1.73L192.6,107h0a5.59,5.59,0,0,1-1.78.89A7.18,7.18,0,0,1,188.6,108.23Zm1.17-5.34a4.43,4.43,0,0,0-2.17.38,1.45,1.45,0,0,0-.61,1.35,1.86,1.86,0,0,0,.5,1.46,2.48,2.48,0,0,0,1.66.45,6.69,6.69,0,0,0,1.84-.28,5.13,5.13,0,0,0,1.54-.69v-2.44c-.51-.08-1-.13-1.41-.17S190.23,102.89,189.77,102.89Z"/><path class="cls-2" d="M203.89,106.27v1.59a4.19,4.19,0,0,1-1,.26,7.35,7.35,0,0,1-1.21.11,4,4,0,0,1-3-.92,4.54,4.54,0,0,1-.89-3.18V98.29h-1.7V96.68h1.73l.29-2.76h1.57v2.76h4.05v1.61h-4.05v5.77a2.63,2.63,0,0,0,.52,1.91,2.55,2.55,0,0,0,1.82.51,7,7,0,0,0,1-.07C203.39,106.36,203.68,106.32,203.89,106.27Z"/><path class="cls-2" d="M37.58,128.29h-1.7v-1.61h1.7v-.27a4,4,0,0,1,1-2.94,4.08,4.08,0,0,1,3-1c.34,0,.68,0,1,0a8.47,8.47,0,0,1,.94.14v1.61a4.9,4.9,0,0,0-.75-.1c-.31,0-.62,0-.93,0a2.67,2.67,0,0,0-1.82.48,2.27,2.27,0,0,0-.5,1.71v.32h3.65v1.61H39.47V138H37.58Z"/><path class="cls-2" d="M53.15,135.84v1.58a6.82,6.82,0,0,1-1.76.57,11.57,11.57,0,0,1-2.35.24,4.71,4.71,0,0,1-3.82-1.38c-.77-.92-1.15-2.44-1.15-4.56a6.75,6.75,0,0,1,1.19-4.45,4.81,4.81,0,0,1,3.82-1.39,4.76,4.76,0,0,1,3.5,1.09,5.19,5.19,0,0,1,1.05,3.65c0,.31,0,.59,0,.85s0,.58-.09.94H46a3.93,3.93,0,0,0,.77,2.69,3.39,3.39,0,0,0,2.58.81,12.6,12.6,0,0,0,2.07-.18A8.85,8.85,0,0,0,53.15,135.84Zm-1.24-4.9a2.39,2.39,0,0,0-2.83-2.79,3.22,3.22,0,0,0-2.4.73,3.61,3.61,0,0,0-.7,2.54h5.91s0-.1,0-.22S51.91,131,51.91,130.94Z"/><path class="cls-2" d="M64.61,135.84v1.58a7,7,0,0,1-1.76.57,11.67,11.67,0,0,1-2.36.24,4.72,4.72,0,0,1-3.82-1.38c-.77-.92-1.15-2.44-1.15-4.56a6.75,6.75,0,0,1,1.2-4.45,4.79,4.79,0,0,1,3.82-1.39A4.74,4.74,0,0,1,64,127.54a5.14,5.14,0,0,1,1.06,3.65c0,.31,0,.59,0,.85s0,.58-.1.94H57.43a4,4,0,0,0,.77,2.69,3.42,3.42,0,0,0,2.59.81,12.6,12.6,0,0,0,2.07-.18A9.25,9.25,0,0,0,64.61,135.84Zm-1.25-4.9a2.38,2.38,0,0,0-2.82-2.79,3.25,3.25,0,0,0-2.41.73,3.61,3.61,0,0,0-.7,2.54h5.91s0-.1,0-.22S63.36,131,63.36,130.94Z"/><path class="cls-2" d="M69.41,122.75V138H67.53V122.75Z"/><path class="cls-2" d="M76.36,128.15a4.24,4.24,0,0,0-2,.35,1.53,1.53,0,0,0-.56,1.4,1.18,1.18,0,0,0,.27.84,1.37,1.37,0,0,0,.83.38l2.93.44a3,3,0,0,1,1.93.86,3.15,3.15,0,0,1,.55,2.06,3.76,3.76,0,0,1-.94,2.86,4.52,4.52,0,0,1-3.13.89,20.45,20.45,0,0,1-2.44-.14,10.86,10.86,0,0,1-1.86-.37V136a11.89,11.89,0,0,0,1.8.38,15.94,15.94,0,0,0,2.2.15,3.36,3.36,0,0,0,1.95-.41,1.77,1.77,0,0,0,.53-1.48,1.34,1.34,0,0,0-.3-1,1.88,1.88,0,0,0-1.08-.43l-2.92-.44a2.4,2.4,0,0,1-1.64-.85,3.24,3.24,0,0,1-.56-2,3.11,3.11,0,0,1,1.06-2.62,5.41,5.41,0,0,1,3.3-.83c.62,0,1.17,0,1.67,0a15.62,15.62,0,0,1,1.58.18v1.68q-.6-.09-1.41-.15C77.55,128.17,77,128.15,76.36,128.15Z"/><path class="cls-2" d="M89.05,138.23a3.43,3.43,0,0,1-2.56-.84,3.73,3.73,0,0,1-.82-2.66,3.12,3.12,0,0,1,1-2.61,5.61,5.61,0,0,1,3.36-.77c.52,0,1,0,1.54.07a12,12,0,0,1,1.43.21v-1.11a2.25,2.25,0,0,0-.65-1.81,3.14,3.14,0,0,0-2.07-.56c-.7,0-1.32,0-1.86.08a15,15,0,0,0-1.61.27v-1.63a11.73,11.73,0,0,1,1.88-.33c.63-.06,1.36-.09,2.17-.09a4.21,4.21,0,0,1,3,1,3.92,3.92,0,0,1,1,3V138H93.15l-.09-1h0a5.59,5.59,0,0,1-1.78.89A7.2,7.2,0,0,1,89.05,138.23Zm1.18-5.34a4.47,4.47,0,0,0-2.18.38,1.46,1.46,0,0,0-.6,1.35,1.86,1.86,0,0,0,.5,1.46,2.48,2.48,0,0,0,1.66.45,6.69,6.69,0,0,0,1.84-.28,5.25,5.25,0,0,0,1.54-.69v-2.44c-.51-.08-1-.13-1.42-.17S90.69,132.89,90.23,132.89Z"/><path class="cls-2" d="M101.73,128.15a4.24,4.24,0,0,0-2,.35,1.53,1.53,0,0,0-.56,1.4,1.22,1.22,0,0,0,.26.84,1.43,1.43,0,0,0,.84.38l2.92.44a3.06,3.06,0,0,1,1.94.86,3.21,3.21,0,0,1,.55,2.06,3.76,3.76,0,0,1-1,2.86,4.49,4.49,0,0,1-3.12.89,20.45,20.45,0,0,1-2.44-.14,10.86,10.86,0,0,1-1.86-.37V136a11.89,11.89,0,0,0,1.8.38,15.83,15.83,0,0,0,2.2.15,3.36,3.36,0,0,0,2-.41,1.8,1.8,0,0,0,.53-1.48,1.34,1.34,0,0,0-.3-1,1.88,1.88,0,0,0-1.08-.43l-2.92-.44a2.38,2.38,0,0,1-1.64-.85,3.3,3.3,0,0,1-.57-2,3.12,3.12,0,0,1,1.07-2.62,5.41,5.41,0,0,1,3.3-.83c.61,0,1.17,0,1.67,0s1,.09,1.58.18v1.68q-.6-.09-1.41-.15C102.92,128.17,102.34,128.15,101.73,128.15Z"/><path class="cls-2" d="M40.59,168.23a3.35,3.35,0,0,1-3.77-3.77v-7.78h1.89v7.54a2.18,2.18,0,0,0,.6,1.71,2.8,2.8,0,0,0,1.88.53,6.64,6.64,0,0,0,1.58-.2,7.18,7.18,0,0,0,1.6-.61v-9h1.88V168H44.53l-.09-.94h0a11.48,11.48,0,0,1-2.07.87A6.15,6.15,0,0,1,40.59,168.23Z"/><path class="cls-2" d="M51.17,171.54H49.29V156.68h1.63l.12,1h.07a5,5,0,0,1,1.7-.92,6.9,6.9,0,0,1,2.11-.32,3.84,3.84,0,0,1,3.33,1.38,7.89,7.89,0,0,1,1,4.51c0,2.09-.41,3.59-1.22,4.51A5.21,5.21,0,0,1,54,168.23a9.33,9.33,0,0,1-1.56-.12,5.24,5.24,0,0,1-1.23-.34Zm6.19-9.2a6,6,0,0,0-.65-3.27,2.84,2.84,0,0,0-2.45-.92,5.5,5.5,0,0,0-1.63.24,6,6,0,0,0-1.46.71V166a6.21,6.21,0,0,0,1.19.34,7.06,7.06,0,0,0,1.37.12,3.67,3.67,0,0,0,2.88-.89A5.18,5.18,0,0,0,57.36,162.34Z"/><path class="cls-2" d="M68.81,160v1.48H61.48V160Z"/><path class="cls-2" d="M77.83,166.27v1.59a4.33,4.33,0,0,1-1,.26,7.35,7.35,0,0,1-1.21.11,4,4,0,0,1-3-.92,4.54,4.54,0,0,1-.89-3.18v-5.84h-1.7v-1.61H71.8l.3-2.76h1.57v2.76h4v1.61h-4v5.77a2.63,2.63,0,0,0,.52,1.91,2.55,2.55,0,0,0,1.82.51,7,7,0,0,0,1-.07C77.33,166.36,77.62,166.32,77.83,166.27Z"/><path class="cls-2" d="M89.54,162.34c0,2.15-.4,3.66-1.19,4.55s-2.14,1.34-4.06,1.34-3.35-.43-4.12-1.29S79,164.55,79,162.34s.39-3.68,1.18-4.57,2.15-1.32,4.08-1.32,3.35.43,4.11,1.29S89.54,160.13,89.54,162.34Zm-8.63,0a5.65,5.65,0,0,0,.67,3.34,3.41,3.41,0,0,0,2.71.82,3.32,3.32,0,0,0,2.67-.86,5.61,5.61,0,0,0,.69-3.3A5.77,5.77,0,0,0,87,159a3.39,3.39,0,0,0-2.7-.82,3.39,3.39,0,0,0-2.69.85A5.62,5.62,0,0,0,80.91,162.32Z"/><path class="cls-2" d="M99.13,160v1.48H91.79V160Z"/><path class="cls-2" d="M109.43,152.75h1.89V168h-1.64l-.14-1h0a4.47,4.47,0,0,1-1.62.93,7.35,7.35,0,0,1-2.2.31,3.82,3.82,0,0,1-3.32-1.38,7.81,7.81,0,0,1-1-4.51c0-2.09.4-3.59,1.22-4.51s2.17-1.38,4.07-1.38a7.91,7.91,0,0,1,1.5.13,6.44,6.44,0,0,1,1.28.35Zm-2.55,5.4a3.65,3.65,0,0,0-2.89.9,5.29,5.29,0,0,0-.75,3.29,5.74,5.74,0,0,0,.66,3.23,2.83,2.83,0,0,0,2.45.91,5.83,5.83,0,0,0,1.63-.22,4.88,4.88,0,0,0,1.45-.66v-7a5.64,5.64,0,0,0-1.17-.34A7.39,7.39,0,0,0,106.88,158.15Z"/><path class="cls-2" d="M116.93,168.23a3.46,3.46,0,0,1-2.57-.84,3.73,3.73,0,0,1-.81-2.66,3.12,3.12,0,0,1,1-2.61,5.58,5.58,0,0,1,3.35-.77c.52,0,1,0,1.54.07a11.67,11.67,0,0,1,1.43.21v-1.11a2.25,2.25,0,0,0-.64-1.81,3.14,3.14,0,0,0-2.07-.56c-.71,0-1.33,0-1.87.08a15.45,15.45,0,0,0-1.61.27v-1.63a11.93,11.93,0,0,1,1.88-.33c.63-.06,1.36-.09,2.17-.09a4.22,4.22,0,0,1,3,1,3.92,3.92,0,0,1,1,3V168H121l-.09-1h-.05a5.59,5.59,0,0,1-1.78.89A7.18,7.18,0,0,1,116.93,168.23Zm1.17-5.34a4.43,4.43,0,0,0-2.17.38,1.45,1.45,0,0,0-.61,1.35,1.89,1.89,0,0,0,.5,1.46,2.48,2.48,0,0,0,1.66.45,6.69,6.69,0,0,0,1.84-.28,5.13,5.13,0,0,0,1.54-.69v-2.44c-.5-.08-1-.13-1.41-.17S118.56,162.89,118.1,162.89Z"/><path class="cls-2" d="M132.22,166.27v1.59a4.19,4.19,0,0,1-1,.26,7.33,7.33,0,0,1-1.2.11,4,4,0,0,1-3-.92,4.54,4.54,0,0,1-.89-3.18v-5.84h-1.7v-1.61h1.73l.3-2.76h1.56v2.76h4.05v1.61h-4.05v5.77a2.63,2.63,0,0,0,.52,1.91,2.57,2.57,0,0,0,1.83.51,7,7,0,0,0,1-.07C131.72,166.36,132,166.32,132.22,166.27Z"/><path class="cls-2" d="M142.48,165.84v1.58a7,7,0,0,1-1.76.57,11.59,11.59,0,0,1-2.36.24,4.72,4.72,0,0,1-3.82-1.38,7.18,7.18,0,0,1-1.15-4.56,6.75,6.75,0,0,1,1.2-4.45,4.81,4.81,0,0,1,3.82-1.39,4.72,4.72,0,0,1,3.49,1.09,5.14,5.14,0,0,1,1.06,3.65c0,.31,0,.59,0,.85s-.05.58-.09.94H135.3a4,4,0,0,0,.77,2.69,3.43,3.43,0,0,0,2.59.81,12.6,12.6,0,0,0,2.07-.18A9,9,0,0,0,142.48,165.84Zm-1.24-4.9a2.39,2.39,0,0,0-2.83-2.79,3.2,3.2,0,0,0-2.4.73,3.6,3.6,0,0,0-.71,2.54h5.91s0-.1,0-.22S141.24,161,141.24,160.94Z"/><path class="cls-2" d="M151.91,168.23a3.42,3.42,0,0,1-2.56-.84,3.69,3.69,0,0,1-.82-2.66,3.12,3.12,0,0,1,1-2.61,5.61,5.61,0,0,1,3.36-.77c.52,0,1,0,1.54.07a11.8,11.8,0,0,1,1.42.21v-1.11a2.25,2.25,0,0,0-.64-1.81,3.14,3.14,0,0,0-2.07-.56c-.71,0-1.33,0-1.86.08a14.62,14.62,0,0,0-1.61.27v-1.63a11.61,11.61,0,0,1,1.87-.33c.64-.06,1.36-.09,2.17-.09a4.22,4.22,0,0,1,3,1,3.92,3.92,0,0,1,1,3V168H156l-.09-1h0a5.65,5.65,0,0,1-1.79.89A7.13,7.13,0,0,1,151.91,168.23Zm1.17-5.34a4.45,4.45,0,0,0-2.17.38,1.45,1.45,0,0,0-.61,1.35,1.86,1.86,0,0,0,.51,1.46,2.45,2.45,0,0,0,1.65.45,6.69,6.69,0,0,0,1.84-.28,5.13,5.13,0,0,0,1.54-.69v-2.44c-.5-.08-1-.13-1.41-.17S153.54,162.89,153.08,162.89Z"/><path class="cls-2" d="M164.58,158.15a4.17,4.17,0,0,0-2,.35,1.51,1.51,0,0,0-.57,1.4,1.18,1.18,0,0,0,.27.84,1.4,1.4,0,0,0,.84.38l2.92.44a3,3,0,0,1,1.93.86,3.15,3.15,0,0,1,.55,2.06,3.76,3.76,0,0,1-.94,2.86,4.5,4.5,0,0,1-3.13.89,20.58,20.58,0,0,1-2.44-.14,10.86,10.86,0,0,1-1.86-.37V166a11.78,11.78,0,0,0,1.81.38,15.69,15.69,0,0,0,2.19.15,3.42,3.42,0,0,0,2-.41,1.8,1.8,0,0,0,.53-1.48,1.34,1.34,0,0,0-.3-1,1.88,1.88,0,0,0-1.08-.43l-2.92-.44a2.41,2.41,0,0,1-1.65-.85,3.24,3.24,0,0,1-.56-2,3.12,3.12,0,0,1,1.07-2.62,5.37,5.37,0,0,1,3.3-.83c.61,0,1.17,0,1.66.05a15.62,15.62,0,0,1,1.58.18v1.68c-.4-.06-.87-.11-1.4-.15S165.2,158.15,164.58,158.15Z"/><path class="cls-2" d="M176.59,168H174.7V156.68h1.73l.09,1h.09a8,8,0,0,1,1.79-.8,6.5,6.5,0,0,1,1.78-.26h.49l.2,0v1.82a2,2,0,0,0-.41-.06h-.74a6.8,6.8,0,0,0-1.63.2,6.22,6.22,0,0,0-1.5.58Z"/><path class="cls-2" d="M191.05,165.84v1.58a6.69,6.69,0,0,1-1.76.57,11.5,11.5,0,0,1-2.35.24,4.72,4.72,0,0,1-3.82-1.38c-.77-.92-1.15-2.44-1.15-4.56a6.75,6.75,0,0,1,1.2-4.45,6,6,0,0,1,7.31-.3,5.14,5.14,0,0,1,1.06,3.65c0,.31,0,.59,0,.85s-.05.58-.1.94h-7.54a3.93,3.93,0,0,0,.77,2.69,3.42,3.42,0,0,0,2.59.81,12.6,12.6,0,0,0,2.07-.18A8.92,8.92,0,0,0,191.05,165.84Zm-1.24-4.9a2.38,2.38,0,0,0-2.83-2.79,3.24,3.24,0,0,0-2.4.73,3.61,3.61,0,0,0-.7,2.54h5.91s0-.1,0-.22S189.81,161,189.81,160.94Z"/><path class="cls-2" d="M196.55,168.23a3.43,3.43,0,0,1-2.56-.84,3.69,3.69,0,0,1-.82-2.66,3.12,3.12,0,0,1,1-2.61,5.61,5.61,0,0,1,3.36-.77c.52,0,1,0,1.54.07a12,12,0,0,1,1.43.21v-1.11a2.25,2.25,0,0,0-.65-1.81,3.14,3.14,0,0,0-2.07-.56c-.7,0-1.32,0-1.86.08a15,15,0,0,0-1.61.27v-1.63a11.81,11.81,0,0,1,1.87-.33c.64-.06,1.36-.09,2.18-.09a4.21,4.21,0,0,1,3,1,3.92,3.92,0,0,1,1,3V168h-1.72l-.1-1h0a5.7,5.7,0,0,1-1.78.89A7.25,7.25,0,0,1,196.55,168.23Zm1.17-5.34a4.45,4.45,0,0,0-2.17.38,1.47,1.47,0,0,0-.61,1.35,1.86,1.86,0,0,0,.51,1.46,2.48,2.48,0,0,0,1.66.45,6.74,6.74,0,0,0,1.84-.28,5.25,5.25,0,0,0,1.54-.69v-2.44c-.51-.08-1-.13-1.42-.17S198.19,162.89,197.72,162.89Z"/><path class="cls-2" d="M207.2,152.75V168h-1.89V152.75Z"/><path class="cls-2" d="M38.8,182.75V198H36.91V182.75Z"/><path class="cls-2" d="M43.79,184.7h-2v-1.95h2ZM43.72,198H41.84V186.68h1.88Z"/><path class="cls-2" d="M47.42,188.29h-1.7v-1.61h1.7v-.27a4,4,0,0,1,1-2.94,4.11,4.11,0,0,1,3-.95c.34,0,.67,0,1,0a8.13,8.13,0,0,1,.94.14v1.61a4.9,4.9,0,0,0-.75-.1c-.31,0-.62,0-.93,0a2.62,2.62,0,0,0-1.81.48,2.27,2.27,0,0,0-.51,1.71v.32H53v1.61H49.31V198H47.42Z"/><path class="cls-2" d="M63,195.84v1.58a7,7,0,0,1-1.76.57,11.67,11.67,0,0,1-2.36.24,4.72,4.72,0,0,1-3.82-1.38c-.77-.92-1.15-2.44-1.15-4.56a6.75,6.75,0,0,1,1.2-4.45,4.79,4.79,0,0,1,3.82-1.39,4.75,4.75,0,0,1,3.49,1.09,5.14,5.14,0,0,1,1.06,3.65c0,.31,0,.59,0,.85s-.05.58-.1.94H55.82a3.93,3.93,0,0,0,.77,2.69,3.42,3.42,0,0,0,2.59.81,12.6,12.6,0,0,0,2.07-.18A9.25,9.25,0,0,0,63,195.84Zm-1.25-4.9a2.38,2.38,0,0,0-2.82-2.79,3.25,3.25,0,0,0-2.41.73,3.61,3.61,0,0,0-.7,2.54h5.91s0-.1,0-.22S61.75,191,61.75,190.94Z"/><path class="cls-2" d="M67.34,198H65.46v-1.91h1.88Z"/><path class="cls-2" d="M71.35,198H69.46v-1.91h1.89Z"/><path class="cls-2" d="M75.35,198H73.46v-1.91h1.89Z"/><path class="cls-2" d="M77.53,183.62,77,187.19a.92.92,0,0,1-.29.55.84.84,0,0,1-.56.18h-.49l.12-4.3Zm3.66,0-.57,3.57a1,1,0,0,1-.29.55.88.88,0,0,1-.57.18h-.48l.12-4.3Z"/><rect class="cls-3" x="128.9" y="-0.09" width="25.58" height="25.76" transform="translate(128.9 154.49) rotate(-90)"/><rect class="cls-4" x="103.14" y="-0.09" width="25.58" height="25.76" transform="translate(103.14 128.72) rotate(-90)"/><rect class="cls-5" x="77.38" y="-0.09" width="25.58" height="25.76" transform="translate(77.38 102.96) rotate(-90)"/><rect class="cls-6" x="51.61" y="-0.09" width="25.58" height="25.76" transform="translate(51.61 77.2) rotate(-90)"/><rect class="cls-1" x="25.85" y="-0.09" width="25.58" height="25.76" transform="translate(25.85 51.44) rotate(-90)"/><rect class="cls-7" x="0.09" y="-0.09" width="25.58" height="25.76" transform="translate(0.09 25.67) rotate(-90)"/></g></g></svg>