<svg xmlns="http://www.w3.org/2000/svg" viewBox="0 0 248 229.45"><defs><style>.cls-1{fill:#f99f1d;}.cls-2{fill:#fff;}.cls-3{fill:#007f7f;}.cls-4{fill:#2b999a;}.cls-5{fill:#f06524;}.cls-6{fill:#ce2029;}.cls-7{fill:#ab1f24;}</style></defs><title>quote3_3</title><g id="Layer_2" data-name="Layer 2"><g id="BoughtTickets"><rect class="cls-1" y="25.45" width="248" height="204"/><path class="cls-2" d="M30.72,68l.57-3.57a.94.94,0,0,1,.29-.55.86.86,0,0,1,.56-.18h.49L32.51,68Zm3.65,0L35,64.38a.94.94,0,0,1,.29-.55.84.84,0,0,1,.56-.18h.48L36.17,68Z"/><path class="cls-2" d="M48.41,72.32V63.65h2v8.67A6.2,6.2,0,0,1,49,76.8a5.9,5.9,0,0,1-4.39,1.45,5.83,5.83,0,0,1-4.35-1.41c-.92-.94-1.37-2.45-1.37-4.52V63.65h1.95v8.67a4.66,4.66,0,0,0,.84,3.18,3.86,3.86,0,0,0,2.93.91,4,4,0,0,0,3-.91A4.55,4.55,0,0,0,48.41,72.32Z"/><path class="cls-2" d="M55.14,78.07H53.26V66.71h1.63l.09,1.1h.07a6.46,6.46,0,0,1,1.92-1,7.48,7.48,0,0,1,2.24-.32,4,4,0,0,1,2.87.94,3.71,3.71,0,0,1,1,2.78v7.87H61.17V70.43a2.16,2.16,0,0,0-.64-1.7,3,3,0,0,0-2-.55,5.94,5.94,0,0,0-1.69.26,8.42,8.42,0,0,0-1.72.77Z"/><path class="cls-2" d="M66.55,68.32h-1.7V66.71h1.7v-.28a3.94,3.94,0,0,1,1-2.93,4,4,0,0,1,3-1c.34,0,.68,0,1,.05a8.47,8.47,0,0,1,.94.14v1.61a4.89,4.89,0,0,0-.75-.11q-.47,0-.93,0a2.73,2.73,0,0,0-1.82.47,2.36,2.36,0,0,0-.5,1.72v.32h3.65v1.61H68.44v9.75H66.55Z"/><path class="cls-2" d="M83.57,72.37c0,2.14-.39,3.66-1.18,4.55s-2.14,1.33-4.06,1.33S75,77.82,74.21,77s-1.15-2.4-1.15-4.6.4-3.69,1.19-4.57,2.15-1.32,4.08-1.32,3.34.43,4.1,1.29S83.57,70.16,83.57,72.37Zm-8.62,0a5.79,5.79,0,0,0,.66,3.35,3.47,3.47,0,0,0,2.72.81A3.28,3.28,0,0,0,81,75.64a5.56,5.56,0,0,0,.69-3.3A5.75,5.75,0,0,0,81,69a3.38,3.38,0,0,0-2.7-.82,3.34,3.34,0,0,0-2.69.85A5.58,5.58,0,0,0,75,72.34Z"/><path class="cls-2" d="M88,78.07H86.08V66.71H87.8l.1,1H88a8.23,8.23,0,0,1,1.79-.79,6.12,6.12,0,0,1,1.77-.26h.5a.5.5,0,0,1,.19,0v1.82a1.41,1.41,0,0,0-.4-.06h-.75a6.77,6.77,0,0,0-1.62.19,6.09,6.09,0,0,0-1.5.59Z"/><path class="cls-2" d="M98.57,81.8a14.42,14.42,0,0,1-2.15-.15,7.61,7.61,0,0,1-1.65-.41V79.56a6.91,6.91,0,0,0,1.56.35,15.51,15.51,0,0,0,2,.14,3.31,3.31,0,0,0,2.39-.68,3.36,3.36,0,0,0,.67-2.4v-.72A7,7,0,0,1,99.6,77a7.17,7.17,0,0,1-1.95.27A3.87,3.87,0,0,1,94.39,76a6.85,6.85,0,0,1-1-4.14c0-1.94.41-3.33,1.25-4.16s2.26-1.24,4.27-1.24c.72,0,1.49,0,2.32.12a19.43,19.43,0,0,1,2,.31v9.53c0,2-.36,3.38-1.06,4.17A4.76,4.76,0,0,1,98.57,81.8Zm.37-13.62c-1.48,0-2.45.25-2.92.76a4.38,4.38,0,0,0-.72,2.94,5,5,0,0,0,.61,2.87,2.88,2.88,0,0,0,2.36.79,6,6,0,0,0,1.58-.22,8.36,8.36,0,0,0,1.57-.61V68.43c-.37-.07-.76-.14-1.18-.18A11.2,11.2,0,0,0,98.94,68.18Z"/><path class="cls-2" d="M114.85,75.86v1.59a6.87,6.87,0,0,1-1.76.56,11.57,11.57,0,0,1-2.35.24,4.71,4.71,0,0,1-3.82-1.38c-.77-.92-1.15-2.43-1.15-4.55A6.81,6.81,0,0,1,107,67.87a4.77,4.77,0,0,1,3.82-1.39,4.72,4.72,0,0,1,3.5,1.09,5.17,5.17,0,0,1,1.06,3.65c0,.3,0,.59,0,.85s0,.57-.09.94h-7.54a3.94,3.94,0,0,0,.77,2.69,3.42,3.42,0,0,0,2.59.8,12.57,12.57,0,0,0,2.06-.18A7.65,7.65,0,0,0,114.85,75.86ZM113.61,71a3,3,0,0,0-.67-2.15,3,3,0,0,0-2.16-.63,3.28,3.28,0,0,0-2.4.72,3.64,3.64,0,0,0-.7,2.55h5.91s0-.11,0-.22S113.61,71,113.61,71Z"/><path class="cls-2" d="M124.33,76.3v1.59a4.9,4.9,0,0,1-1,.26,7.4,7.4,0,0,1-1.21.1,4,4,0,0,1-3-.92,4.52,4.52,0,0,1-.88-3.17V68.32h-1.7V66.71h1.72l.3-2.76h1.57v2.76h4v1.61h-4v5.77a2.7,2.7,0,0,0,.51,1.91,2.6,2.6,0,0,0,1.83.5,8.8,8.8,0,0,0,1-.06Z"/><path class="cls-2" d="M132.86,76.3v1.59a4.73,4.73,0,0,1-1,.26,7.31,7.31,0,0,1-1.21.1,3.94,3.94,0,0,1-3-.92,4.52,4.52,0,0,1-.89-3.17V68.32h-1.7V66.71h1.72l.3-2.76h1.57v2.76h4.05v1.61H128.7v5.77a2.65,2.65,0,0,0,.52,1.91,2.56,2.56,0,0,0,1.82.5,8.8,8.8,0,0,0,1-.06Z"/><path class="cls-2" d="M137.3,78.25a3.46,3.46,0,0,1-2.57-.84,3.7,3.7,0,0,1-.81-2.65,3.1,3.1,0,0,1,1-2.61,5.53,5.53,0,0,1,3.35-.77c.53,0,1,0,1.55.07a11.84,11.84,0,0,1,1.42.2v-1.1a2.29,2.29,0,0,0-.64-1.82,3.15,3.15,0,0,0-2.07-.55c-.71,0-1.33,0-1.86.08a13,13,0,0,0-1.62.26V66.89a13.18,13.18,0,0,1,1.88-.32c.64-.06,1.36-.09,2.17-.09a4.26,4.26,0,0,1,3,1,4,4,0,0,1,1,3v7.68h-1.73L141.3,77h-.05a5.4,5.4,0,0,1-1.78.9A7.17,7.17,0,0,1,137.3,78.25Zm1.17-5.33a4.31,4.31,0,0,0-2.17.38,1.44,1.44,0,0,0-.61,1.34,1.85,1.85,0,0,0,.51,1.46,2.43,2.43,0,0,0,1.65.45,6.66,6.66,0,0,0,1.84-.27,5.68,5.68,0,0,0,1.54-.69V73.15c-.5-.08-1-.14-1.41-.18S138.93,72.92,138.47,72.92Z"/><path class="cls-2" d="M151.67,66.48A3.84,3.84,0,0,1,155,67.85a7.77,7.77,0,0,1,1,4.47c0,2.12-.42,3.63-1.24,4.55s-2.22,1.38-4.17,1.38a19.12,19.12,0,0,1-2.46-.15,13.24,13.24,0,0,1-2.09-.44V62.77h1.88v4.72a7.27,7.27,0,0,1,1.78-.75A7.66,7.66,0,0,1,151.67,66.48Zm2.44,5.84a5.84,5.84,0,0,0-.65-3.23,2.84,2.84,0,0,0-2.45-.91,6.06,6.06,0,0,0-1.64.22,5.55,5.55,0,0,0-1.45.61v7.2a8.35,8.35,0,0,0,1.16.21,10.07,10.07,0,0,0,1.4.08,3.63,3.63,0,0,0,2.88-.89A5.31,5.31,0,0,0,154.11,72.32Z"/><path class="cls-2" d="M160.37,62.77v15.3h-1.89V62.77Z"/><path class="cls-2" d="M171.94,75.86v1.59a7,7,0,0,1-1.76.56,11.67,11.67,0,0,1-2.36.24A4.72,4.72,0,0,1,164,76.87c-.77-.92-1.15-2.43-1.15-4.55a6.75,6.75,0,0,1,1.2-4.45,4.76,4.76,0,0,1,3.82-1.39,4.69,4.69,0,0,1,3.49,1.09,5.12,5.12,0,0,1,1.06,3.65c0,.3,0,.59,0,.85s-.05.57-.1.94h-7.54a4,4,0,0,0,.77,2.69,3.42,3.42,0,0,0,2.59.8,12.6,12.6,0,0,0,2.07-.18A8,8,0,0,0,171.94,75.86ZM170.69,71a3,3,0,0,0-.66-2.15,3,3,0,0,0-2.16-.63,3.29,3.29,0,0,0-2.41.72,3.64,3.64,0,0,0-.7,2.55h5.91s0-.11,0-.22S170.69,71,170.69,71Z"/><path class="cls-2" d="M186.73,75.82V77.4A5.27,5.27,0,0,1,185,78a11.5,11.5,0,0,1-2.38.24,3.94,3.94,0,0,1-3.39-1.31c-.65-.87-1-2.4-1-4.57s.42-3.65,1.27-4.55,2.27-1.34,4.3-1.34c.44,0,.84,0,1.21,0l1.39.15v1.68c-.57-.08-1-.12-1.39-.14l-1.21,0a3.76,3.76,0,0,0-2.92.88,5.25,5.25,0,0,0-.76,3.31,6.17,6.17,0,0,0,.6,3.27,2.59,2.59,0,0,0,2.3.86,10.29,10.29,0,0,0,1.95-.19A9.81,9.81,0,0,0,186.73,75.82Z"/><path class="cls-2" d="M191.46,78.25a3.43,3.43,0,0,1-2.56-.84,3.66,3.66,0,0,1-.82-2.65,3.1,3.1,0,0,1,1-2.61,5.54,5.54,0,0,1,3.36-.77c.52,0,1,0,1.54.07a12,12,0,0,1,1.43.2v-1.1a2.29,2.29,0,0,0-.65-1.82,3.15,3.15,0,0,0-2.07-.55c-.7,0-1.32,0-1.86.08a12.84,12.84,0,0,0-1.61.26V66.89a13,13,0,0,1,1.87-.32c.64-.06,1.36-.09,2.18-.09a4.25,4.25,0,0,1,3,1,4,4,0,0,1,1,3v7.68h-1.72l-.1-1.06h0a5.5,5.5,0,0,1-1.78.9A7.23,7.23,0,0,1,191.46,78.25Zm1.18-5.33a4.36,4.36,0,0,0-2.18.38,1.46,1.46,0,0,0-.61,1.34,1.85,1.85,0,0,0,.51,1.46,2.48,2.48,0,0,0,1.66.45,6.72,6.72,0,0,0,1.84-.27,5.82,5.82,0,0,0,1.54-.69V73.15c-.51-.08-1-.14-1.42-.18S193.1,72.92,192.64,72.92Z"/><path class="cls-2" d="M204.14,68.18a4.24,4.24,0,0,0-2,.34,1.52,1.52,0,0,0-.56,1.41,1.18,1.18,0,0,0,.26.84,1.43,1.43,0,0,0,.84.38l2.92.43a3,3,0,0,1,1.93.87,3.12,3.12,0,0,1,.56,2,3.79,3.79,0,0,1-1,2.87,4.5,4.5,0,0,1-3.13.88,20.49,20.49,0,0,1-2.43-.13,12.08,12.08,0,0,1-1.87-.37V76a12,12,0,0,0,1.81.38,15.75,15.75,0,0,0,2.2.14,3.28,3.28,0,0,0,1.95-.41,1.76,1.76,0,0,0,.53-1.47,1.37,1.37,0,0,0-.3-1,1.82,1.82,0,0,0-1.08-.42l-2.92-.44a2.45,2.45,0,0,1-1.65-.85,3.33,3.33,0,0,1-.56-2,3.11,3.11,0,0,1,1.07-2.62,5.31,5.31,0,0,1,3.3-.83c.61,0,1.17,0,1.67,0a15.56,15.56,0,0,1,1.57.19v1.68c-.39-.06-.86-.11-1.4-.15S204.75,68.18,204.14,68.18Z"/><path class="cls-2" d="M216.88,76.3v1.59a4.9,4.9,0,0,1-1,.26,7.4,7.4,0,0,1-1.21.1,4,4,0,0,1-3-.92,4.52,4.52,0,0,1-.88-3.17V68.32h-1.7V66.71h1.72l.3-2.76h1.57v2.76h4v1.61h-4v5.77a2.7,2.7,0,0,0,.51,1.91,2.6,2.6,0,0,0,1.83.5,8.8,8.8,0,0,0,1-.06Z"/><path class="cls-2" d="M41.37,102.37c0,2.14-.4,3.66-1.19,4.55s-2.14,1.33-4.06,1.33S32.77,107.82,32,107s-1.15-2.4-1.15-4.6.39-3.69,1.18-4.57,2.15-1.32,4.08-1.32,3.35.43,4.11,1.29S41.37,100.16,41.37,102.37Zm-8.63,0a5.69,5.69,0,0,0,.67,3.35,3.45,3.45,0,0,0,2.71.81,3.28,3.28,0,0,0,2.67-.86,5.56,5.56,0,0,0,.69-3.3A5.85,5.85,0,0,0,38.83,99c-.44-.55-1.34-.82-2.71-.82a3.35,3.35,0,0,0-2.69.85A5.58,5.58,0,0,0,32.74,102.34Z"/><path class="cls-2" d="M44.4,98.32H42.7V96.71h1.7v-.28a4,4,0,0,1,1-2.93,4,4,0,0,1,3-1c.33,0,.67,0,1,0a8.13,8.13,0,0,1,.94.14v1.61a4.7,4.7,0,0,0-.75-.11q-.47,0-.93,0a2.68,2.68,0,0,0-1.81.47,2.31,2.31,0,0,0-.51,1.72v.32H50v1.61H46.29v9.75H44.4Z"/><path class="cls-2" d="M61.56,106.3v1.59a4.73,4.73,0,0,1-1,.26,7.31,7.31,0,0,1-1.21.1,3.94,3.94,0,0,1-3-.92,4.52,4.52,0,0,1-.89-3.17V98.32h-1.7V96.71h1.73L55.83,94H57.4v2.76h4.05v1.61H57.4v5.77a2.65,2.65,0,0,0,.52,1.91,2.57,2.57,0,0,0,1.83.5,8.78,8.78,0,0,0,1-.06Z"/><path class="cls-2" d="M66,108.25a3.42,3.42,0,0,1-2.56-.84,3.66,3.66,0,0,1-.82-2.65,3.1,3.1,0,0,1,1-2.61,5.54,5.54,0,0,1,3.36-.77c.52,0,1,0,1.54.07a11.84,11.84,0,0,1,1.42.2v-1.1a2.29,2.29,0,0,0-.64-1.82,3.15,3.15,0,0,0-2.07-.55c-.71,0-1.33,0-1.86.08a12.55,12.55,0,0,0-1.61.26V96.89a12.81,12.81,0,0,1,1.87-.32c.64-.06,1.36-.09,2.17-.09a4.26,4.26,0,0,1,3,1,4,4,0,0,1,1,3v7.68H70.09L70,107h0a5.45,5.45,0,0,1-1.79.9A7.12,7.12,0,0,1,66,108.25Zm1.17-5.33a4.34,4.34,0,0,0-2.17.38,1.44,1.44,0,0,0-.61,1.34,1.85,1.85,0,0,0,.51,1.46,2.45,2.45,0,0,0,1.65.45,6.66,6.66,0,0,0,1.84-.27,5.68,5.68,0,0,0,1.54-.69v-2.44q-.75-.12-1.41-.18C68.08,102.94,67.63,102.92,67.17,102.92Z"/><path class="cls-2" d="M76.65,92.77v15.3H74.76V92.77Z"/><path class="cls-2" d="M88.22,105.86v1.59a7,7,0,0,1-1.76.56,11.67,11.67,0,0,1-2.36.24,4.72,4.72,0,0,1-3.82-1.38,7.15,7.15,0,0,1-1.15-4.55,6.75,6.75,0,0,1,1.2-4.45,4.77,4.77,0,0,1,3.82-1.39,4.69,4.69,0,0,1,3.49,1.09,5.12,5.12,0,0,1,1.06,3.65c0,.3,0,.59,0,.85s-.05.57-.09.94H81a4,4,0,0,0,.77,2.69,3.42,3.42,0,0,0,2.59.8,12.6,12.6,0,0,0,2.07-.18A8,8,0,0,0,88.22,105.86ZM87,101a2.38,2.38,0,0,0-2.83-2.78,3.29,3.29,0,0,0-2.41.72,3.69,3.69,0,0,0-.7,2.55H87s0-.11,0-.22S87,101,87,101Z"/><path class="cls-2" d="M93,108.07H91.14V96.71h1.63l.09,1.1h.07a6.58,6.58,0,0,1,1.92-1,7.5,7.5,0,0,1,2.25-.32,4,4,0,0,1,2.86.94,3.71,3.71,0,0,1,1,2.78v7.87H99.05v-7.64a2.12,2.12,0,0,0-.64-1.7,3,3,0,0,0-2-.55,5.94,5.94,0,0,0-1.69.26,8.11,8.11,0,0,0-1.71.77Z"/><path class="cls-2" d="M110.41,106.3v1.59a4.73,4.73,0,0,1-1,.26,7.31,7.31,0,0,1-1.21.1,3.94,3.94,0,0,1-3-.92,4.52,4.52,0,0,1-.89-3.17V98.32h-1.7V96.71h1.73l.29-2.76h1.57v2.76h4v1.61h-4v5.77a2.65,2.65,0,0,0,.52,1.91,2.56,2.56,0,0,0,1.82.5,8.8,8.8,0,0,0,1-.06Z"/><path class="cls-2" d="M117.2,108.07h-1.89v-1.91h1.89Z"/><path class="cls-2" d="M121.2,108.07h-1.89v-1.91h1.89Z"/><path class="cls-2" d="M125.2,108.07h-1.89v-1.91h1.89Z"/><path class="cls-2" d="M127.38,93.65l-.57,3.56a.94.94,0,0,1-.29.56A.84.84,0,0,1,126,98h-.48l.11-4.3Zm3.66,0-.57,3.56a.94.94,0,0,1-.29.56.86.86,0,0,1-.56.18h-.49l.12-4.3Z"/><rect class="cls-3" x="128.9" y="-0.09" width="25.58" height="25.76" transform="translate(128.9 154.49) rotate(-90)"/><rect class="cls-4" x="103.14" y="-0.09" width="25.58" height="25.76" transform="translate(103.14 128.72) rotate(-90)"/><rect class="cls-1" x="77.38" y="-0.09" width="25.58" height="25.76" transform="translate(77.38 102.96) rotate(-90)"/><rect class="cls-5" x="51.61" y="-0.09" width="25.58" height="25.76" transform="translate(51.61 77.2) rotate(-90)"/><rect class="cls-6" x="25.85" y="-0.09" width="25.58" height="25.76" transform="translate(25.85 51.44) rotate(-90)"/><rect class="cls-7" x="0.09" y="-0.09" width="25.58" height="25.76" transform="translate(0.09 25.67) rotate(-90)"/></g></g></svg>