<svg xmlns="http://www.w3.org/2000/svg" xmlns:xlink="http://www.w3.org/1999/xlink" viewBox="0 0 249 230.51"><defs><style>.cls-1{fill:#f06524;}.cls-2,.cls-3{stroke:#000;stroke-linecap:square;}.cls-2,.cls-3,.cls-5{stroke-miterlimit:10;}.cls-2{stroke-width:1.36px;}.cls-3,.cls-6{fill:none;}.cls-3{stroke-width:1.57px;}.cls-4,.cls-5{fill:#fff;}.cls-5,.cls-6{stroke:#fff;}.cls-5{stroke-width:0.63px;}.cls-6{stroke-linecap:round;stroke-linejoin:round;stroke-width:2.9px;}.cls-7{fill:url(#radial-gradient);}.cls-8{fill:#007f7f;}.cls-9{fill:#2b999a;}.cls-10{fill:#f99f1d;}.cls-11{fill:#ce2029;}.cls-12{fill:#ab1f24;}</style><radialGradient id="radial-gradient" cx="145.09" cy="142.63" fx="152.2273147159765" fy="132.0694441231264" r="20.48" gradientUnits="userSpaceOnUse"><stop offset="0.15" stop-color="#fff"/><stop offset="0.16" stop-color="#fefdfe"/><stop offset="0.39" stop-color="#f6ddeb"/><stop offset="0.61" stop-color="#f0c6dd"/><stop offset="0.82" stop-color="#ecb9d5"/><stop offset="1" stop-color="#ebb4d2"/></radialGradient></defs><title>Shakespear_4</title><g id="Layer_2" data-name="Layer 2"><g id="Contacted"><g id="texts_copy" data-name="texts copy"><rect class="cls-1" y="25.51" width="249" height="205"/><polygon class="cls-2" points="104.27 99.69 168.01 98.4 168.01 105.52 166.42 105.52 166.42 108.07 164.59 108.07 164.59 110.87 162.65 110.87 162.65 113.85 146.23 114.59 146.23 111.7 143.2 111.7 143.2 108.32 140.98 108.32 140.98 105.83 136.71 106.02 136.71 108.32 134.46 108.32 134.46 111.7 132.21 111.7 132.21 115.15 113.79 116.08 113.79 112.92 110.33 112.92 110.33 110.87 107.49 110.87 107.49 106.77 104.24 106.77 104.24 101.55 104.27 99.69"/><polyline class="cls-3" points="69.28 125.17 76.49 115.93 103.5 100.62"/><polygon class="cls-4" points="117.06 109.13 117.06 110.98 117.06 112.58 120.46 112.48 120.46 109.23 120.46 108.99 117.06 109.13"/><polygon class="cls-4" points="119.5 106.37 119.5 109.7 122.9 109.7 122.77 106.37 119.5 106.37"/><rect class="cls-4" x="121.87" y="103.59" width="3.46" height="3.47"/><polygon class="cls-5" points="126.36 106.27 126.49 109.27 129.45 109.27 129.3 106.27 126.36 106.27"/><rect class="cls-4" x="123.74" y="108.87" width="3.25" height="3.33"/><rect class="cls-4" x="128.67" y="103.42" width="3" height="3.19"/><rect class="cls-4" x="152.91" y="107.28" width="2.75" height="3.01"/><polygon class="cls-4" points="155.39 104.64 155.39 107.77 158.01 107.61 158.01 104.64 155.39 104.64"/><rect class="cls-4" x="157.42" y="102" width="2.61" height="3.02"/><rect class="cls-4" x="162.45" y="102.16" width="3.07" height="3.13"/><rect class="cls-4" x="160.04" y="104.64" width="3.23" height="3.13"/><rect class="cls-4" x="158.01" y="107.61" width="2.88" height="2.89"/><path class="cls-6" d="M124.46,201.25a93.65,93.65,0,0,1,5.68-8.26c1.85-2.22,4-4.06,7.12-3.69,2.65.31,4.35,2.08,5.55,4.3.22-1.5-2.13-3.39-3.06-4.27a101,101,0,0,0-8-6.59c-3.59-2.75-7.22-5.44-10.83-8.15-3.9-2.93-7.77-5.88-11.56-8.94-3.51-2.85-7-5.79-10.18-9a38.45,38.45,0,0,1-6.71-8.23c-1.11-2-2-4.47-1.13-6.71a4.54,4.54,0,0,1,.54-1S81.14,156.26,72.15,158c1.68,4.14,10.27,17.74,19.9,30.06"/><path class="cls-6" d="M99.62,70.63a17.46,17.46,0,0,0-11.36,8.48,25.33,25.33,0,0,0-3.07,14.07c.11,2.25.45,4.57-.32,6.68-1.45,4-6.15,5.69-8.78,9-3.79,4.79-2.41,12.82,3.48,15.24a8.5,8.5,0,0,0,7.68-.91c1.74-1.06,4.58-2.81,4.78-5.08a4.33,4.33,0,0,0-1.92-3.46,7.06,7.06,0,0,0-3-1.59,3.57,3.57,0,0,0-4,1.68c-.52.94-.47,2.11-1,3"/><path class="cls-6" d="M101.26,64.85A31,31,0,0,0,81.32,83.49c-1.72,4.65-2.33,9.78-5,14-2,3.13-5,5.47-7.2,8.5s-3.3,7.37-1.13,10.39c2.35,3.27,7.7,3.17,10.68.47a7.37,7.37,0,0,0,2.49-6.66A5.34,5.34,0,0,0,76,105.76c-2.48.13-4.59,2.83-3.79,5.18"/><path class="cls-6" d="M108.3,59c-5.52-2.88-12.4-.36-17.35,3.42A37.88,37.88,0,0,0,78.26,80c-1.42,4.11-2.21,8.6-4.92,12-3,3.75-8,5.6-10.82,9.46A13.26,13.26,0,0,0,60.37,112a16.57,16.57,0,0,0,5.78,9.23,7.43,7.43,0,0,0,4,1.89,3.37,3.37,0,0,0,3.53-2.22"/><path class="cls-6" d="M71.14,125.64a16.84,16.84,0,0,1-5.42,12.22,9.61,9.61,0,0,1-4.11,2.39,5.34,5.34,0,0,1-4.56-.83,6.42,6.42,0,0,1-2-3.36,10.37,10.37,0,0,1,.11-6.14,7.85,7.85,0,0,1,4-4.56,5.37,5.37,0,0,1,5.75.58,6,6,0,0,1,1.7,4.29,3.63,3.63,0,0,1-1.27,3.22c-1.2.8-2.81.26-4.14-.3l-1.68-.7"/><path class="cls-6" d="M80,127.59a5.62,5.62,0,0,0-6,1.94,7.25,7.25,0,0,0-1.15,6.32,10.15,10.15,0,0,0,3.81,5.32c1.73,1.3,4,2.57,4,4.74a3.86,3.86,0,0,1-1.11,2.49c-2,2.2-5.21,2.75-8.18,2.83a6.33,6.33,0,0,1-3.78-.74c-1.86-1.25-2.06-3.89-1.81-6.12a9.41,9.41,0,0,1,1.08-3.8,4,4,0,0,1,3.2-2.07,3.61,3.61,0,0,1,3.36,3.91,4.78,4.78,0,0,1-3.76,3.94"/><path class="cls-6" d="M91.6,125.29c-.9,2.33-1.13,5.21.5,7.1a2.55,2.55,0,0,0,1.34.88,2.35,2.35,0,0,0,2.3-1.14,6.85,6.85,0,0,0,.85-2.56"/><path class="cls-6" d="M57.42,112.37a1.83,1.83,0,0,0-2.12.89,4.35,4.35,0,0,0-.45,2.42c.17,4.45,2.61,9,6.73,10.69a5.14,5.14,0,0,0,3.38.34,3.7,3.7,0,0,0,1.83-5.48c-1.63-2.18-5-1.82-7.35-3.18"/><path class="cls-6" d="M116.27,55.21A10.16,10.16,0,0,0,108,52.39a20.05,20.05,0,0,0-8.42,3.07A40.29,40.29,0,0,0,88.4,65.33"/><path class="cls-6" d="M124.55,54.42c-.3-2-2.39-3.14-4.32-3.7a21.15,21.15,0,0,0-22.29,7.45"/><path class="cls-6" d="M133.58,57a5.92,5.92,0,0,0-2.89-5.63,9.76,9.76,0,0,0-6.46-1.13,28.76,28.76,0,0,0-6.4,1.92"/><path class="cls-6" d="M137,55.61A4.26,4.26,0,0,1,140.91,52a7,7,0,0,1,5.25,2.17"/><path class="cls-6" d="M151.07,65.52a6.77,6.77,0,0,1,5,1.64,20.28,20.28,0,0,1,3.54,4.12l7.16,10"/><path class="cls-6" d="M157.22,76.88a16.43,16.43,0,0,1,8.41,8.75,6.58,6.58,0,0,0,1.54,2.73c1.21,1,3,.8,4.52,1.27a6.37,6.37,0,0,1,3.85,3.89,13.4,13.4,0,0,1,.67,5.59,7,7,0,0,1-.87,3.44,2.75,2.75,0,0,1-3.08,1.25c-1.24-.45-1.73-2-1.77-3.28a3.68,3.68,0,0,1,1.2-3.17c1-.69,2.67-.18,2.7,1"/><path class="cls-6" d="M166.76,93.89c2.07,1.44,1.74,4.52,2.43,6.94a10.9,10.9,0,0,0,4.27,5.56c1.26.92,2.69,1.74,3.44,3.11,1.22,2.21.23,5-1.21,7.08a5.19,5.19,0,0,1-3.33,2.53,3.35,3.35,0,0,1-3.47-2.46,4,4,0,0,1,1.51-4.11,2.79,2.79,0,0,1,1.88-.64,1.62,1.62,0,0,1,1.48,1.18"/><path class="cls-6" d="M166.1,113.87c-1,1.13-.83,2.8-.64,4.27s.48,3,1.69,3.8c1,.65,2.33.48,3.47.88a4.53,4.53,0,0,1,2.73,3.21,7.66,7.66,0,0,1-.36,4.31c-.72,2.07-2.28,4.08-4.45,4.35a4.23,4.23,0,0,1-1.93-.22,4.13,4.13,0,0,1-2.73-4.16,3.46,3.46,0,0,1,3.73-3,3,3,0,0,1,2.25,4"/><path class="cls-6" d="M174.6,131.51a5.77,5.77,0,0,1,.49,4.48,12.59,12.59,0,0,1-2.11,4.08,9.14,9.14,0,0,1-3,2.92,3.8,3.8,0,0,1-4-.18,3.66,3.66,0,0,1-1.11-1.62,3.4,3.4,0,0,1,0-2.53,2.11,2.11,0,0,1,2.05-1.28,1.54,1.54,0,0,1,1.33,1.83"/><path class="cls-6" d="M177.87,127.79a15.61,15.61,0,0,0,1.1-5.53,5.24,5.24,0,0,0-2.77-4.62"/><path class="cls-6" d="M100.49,131.71a15.21,15.21,0,0,0-.56,12.54"/><path class="cls-6" d="M105.91,145.05a11.57,11.57,0,0,0-.34,12.74"/><path class="cls-6" d="M172.8,204"/><path class="cls-6" d="M159.39,191.88c-4.35-3.83-10.34-7.18-16.26,1.55,5-20.47,16.51-39.55,16.51-39.55,1.23,1.71,2.37,3.5,3.57,5.23a32,32,0,0,1,2.28,4.13c.77,1.58,1.8,3.07,2.65,4.62a70.83,70.83,0,0,1,4.45,9.65c1.32,3.64,3.36,8.73,3.65,12.67"/><path class="cls-6" d="M113.72,152.92c-.39-.16-.75.27-.93.66a13.24,13.24,0,0,0-.74,9.25"/><path class="cls-6" d="M119.56,154.89c-1.34.67-1.91,2.26-2.21,3.73a23.12,23.12,0,0,0-.44,5.57,7.35,7.35,0,0,0,.74,3.27,3.15,3.15,0,0,0,2.71,1.72"/><path class="cls-6" d="M122.92,158.74a22,22,0,0,0-.06,7.68c.59,2.5,2.27,4.92,4.74,5.63"/><path class="cls-6" d="M129.84,166.74a6.41,6.41,0,0,0,5.76,6.31"/><path class="cls-6" d="M139.12,170.22a12.07,12.07,0,0,0,1.33,3.91,4,4,0,0,0,3.4,2.05"/><path class="cls-6" d="M144.64,167.3a11.87,11.87,0,0,1,2,5.78"/><path class="cls-6" d="M99.47,80a17.71,17.71,0,0,0-4.75,13.8,17.38,17.38,0,0,1,.2,2.59c-.11,2.21-1.43,4.13-2.27,6.17s-1.09,4.71.57,6.17"/><path class="cls-6" d="M146.92,58.82a5.2,5.2,0,0,1,3.9.58,24.2,24.2,0,0,1,3.84,2.24c7.31,5.26,9,15.8,8.88,14.74"/><path class="cls-4" d="M102.94,98.59a44.29,44.29,0,0,1-2.53-15.17,35.86,35.86,0,0,1,.66-7.24A20.78,20.78,0,0,1,104.2,69a31.54,31.54,0,0,1,6-6.71,1.46,1.46,0,0,0,0-2,1.49,1.49,0,0,0-2,0c-4.3,3.62-8.1,8.51-9.63,14a33.09,33.09,0,0,0-1,7.93A51.11,51.11,0,0,0,98,90.66a42,42,0,0,0,2.11,8.7,1.49,1.49,0,0,0,1.78,1,1.46,1.46,0,0,0,1-1.78Z"/><path class="cls-4" d="M162.83,93.31a57.81,57.81,0,0,0-12.9-28.6,24.53,24.53,0,0,0-7.71-6,42.49,42.49,0,0,0-10.65-3.55,1.49,1.49,0,0,0-1.78,1,1.47,1.47,0,0,0,1,1.79c6,1.26,12.14,3.39,16.41,8.07A47.78,47.78,0,0,1,153,74.05a54.78,54.78,0,0,1,4.25,9,56.62,56.62,0,0,1,2.79,11,1.46,1.46,0,0,0,1.78,1,1.49,1.49,0,0,0,1-1.78Z"/><path class="cls-4" d="M125.35,139.67c-.34,0-.68,0-1,0l-.24,0-.5-.08a11.66,11.66,0,0,1-1.84-.51l-.48-.18-.24-.1c-.27-.13-.53-.26-.79-.41a9.61,9.61,0,0,1-.87-.53l-.42-.29c-.13-.1-.13-.1,0,0l-.19-.16a1.5,1.5,0,0,0-2,0,1.46,1.46,0,0,0,0,2.05,14,14,0,0,0,8.65,3.2,1.45,1.45,0,0,0,0-2.9Z"/><path class="cls-4" d="M124,142.16l-.21.12c-.07,0,0,0,.05,0l0,0-.09,0c-.11,0-.06,0,.17,0a1.15,1.15,0,0,0-.18,0c-.2,0,.05,0,.12,0a1.55,1.55,0,0,0-.23-.05l-.18-.06c-.17,0,.26.14,0,0a3.18,3.18,0,0,1-.4-.23l-.18-.11c-.25-.18,0,0,0,0a5.56,5.56,0,0,1-.69-.64c-1.09-1.13-2.13-2.32-3.19-3.48a1.46,1.46,0,0,0-2,0,1.48,1.48,0,0,0,0,2l1.84,2a24.81,24.81,0,0,0,1.72,1.83c1.28,1.17,3.24,2.18,4.88,1.06a1.45,1.45,0,0,0-1.46-2.5Z"/><path d="M81.27,99.07c1.54-11.3,3-19.74,8.67-29.17a37.1,37.1,0,0,1,10.62-11.41,43.07,43.07,0,0,1,17-6.53c5.87-1.07,12.77-.63,18.63.42a33.7,33.7,0,0,1,11.76,4.32c3.23,2,7.28,5.2,8.39,9-4.15-1.81-6.21-4.56-10.3-6.52-8.77-4.19-18.77-4.16-28.1-2l-.43.1c-.39.09-.79.19-1.18.3-19.45,5.07-27.63,23.24-29,42"/><path d="M95.7,103.93a21.94,21.94,0,0,1,2.52,4.69,25,25,0,0,1-2,22.26c-1.34,2.16-3.19,4.25-5.82,4.92-9.69,2.47-16.06-9.66-17.1-16.42C72,110.84,73.1,93.1,87.43,97.63A16.37,16.37,0,0,1,95.7,103.93Z"/><circle class="cls-7" cx="145.09" cy="142.63" r="20.48"/><polygon class="cls-4" points="82.22 113.8 82.22 110.58 79.35 110.58 79.46 113.8 82.22 113.8"/><rect class="cls-4" x="91.26" y="187.51" width="4.26" height="4.26"/><rect class="cls-4" x="95.63" y="191.72" width="4.26" height="4.26"/><rect class="cls-4" x="99.95" y="195.97" width="4.26" height="4.26"/><rect class="cls-4" x="104.24" y="200.26" width="4.26" height="4.26"/><rect class="cls-4" x="108.57" y="204.51" width="4.26" height="4.26"/><rect class="cls-4" x="112.9" y="208.81" width="4.26" height="4.26"/><rect class="cls-4" x="117.15" y="204.55" width="4.26" height="4.26"/><rect class="cls-4" x="121.45" y="200.26" width="4.26" height="4.26"/><rect class="cls-4" x="156.97" y="190.18" width="4.26" height="4.26"/><rect class="cls-4" x="161.28" y="194.45" width="4.26" height="4.26"/><rect class="cls-4" x="165.57" y="198.69" width="4.26" height="4.26"/><rect class="cls-4" x="169.84" y="194.43" width="4.26" height="4.26"/><rect class="cls-4" x="174.14" y="190.2" width="4.26" height="4.26"/><rect class="cls-8" x="128.86" y="-0.09" width="25.58" height="25.76" transform="translate(128.86 154.44) rotate(-90)"/><rect class="cls-9" x="103.09" y="-0.09" width="25.58" height="25.76" transform="translate(103.09 128.68) rotate(-90)"/><rect class="cls-10" x="77.33" y="-0.09" width="25.58" height="25.76" transform="translate(77.33 102.92) rotate(-90)"/><rect class="cls-1" x="51.57" y="-0.09" width="25.58" height="25.76" transform="translate(51.57 77.15) rotate(-90)"/><rect class="cls-11" x="25.81" y="-0.09" width="25.58" height="25.76" transform="translate(25.81 51.39) rotate(-90)"/><rect class="cls-12" x="0.09" y="-0.09" width="25.58" height="25.76" transform="translate(0.09 25.67) rotate(-90)"/></g></g></g></svg>