<svg xmlns="http://www.w3.org/2000/svg" viewBox="0 0 618.95 406.69"><defs><style>.cls-1,.cls-2,.cls-3,.cls-4,.cls-5{fill:none;stroke-miterlimit:10;}.cls-1{stroke:#f99f1e;}.cls-1,.cls-2,.cls-3,.cls-4{stroke-width:5.18px;}.cls-2{stroke:#ce202a;}.cls-3{stroke:#007f7f;}.cls-4,.cls-5{stroke:#000;}.cls-5{stroke-width:13px;}.cls-6{fill:#ab1f24;}.cls-7{fill:#ce2029;}.cls-8{fill:#fff;}.cls-9{fill:#f06524;}.cls-10{fill:#f99f1d;}.cls-11{fill:#2b999a;}.cls-12{fill:#007f7f;}.cls-13{fill:teal;}.cls-14{fill:#2d999a;}.cls-15{fill:#f9a020;}.cls-16{fill:#ef6725;}.cls-17{fill:#cf202a;}.cls-18{fill:#ab1f25;}</style></defs><title>skater</title><g id="Layer_2" data-name="Layer 2"><g id="Layer_1-2" data-name="Layer 1"><ellipse class="cls-1" cx="233.22" cy="350.84" rx="14.36" ry="14.78"/><circle class="cls-1" cx="320.64" cy="292.57" r="15.6"/><path class="cls-2" d="M175,347.25c-1.58-4.74,6.57-11.5,17.24-12.32s77.16-59.92,91.93-62.38,20.53-28.73,41.05-32.83,11.49,23,5.74,29.55-54.17,40.22-54.17,40.22l-35.3,26.26S184.89,376.8,175,347.25Z"/><path class="cls-3" d="M196.1,317.4s-9-92.75,2.46-100.14,27.91-25.45,27.91-25.45l4.92-31.19s-4.1-34.47-32.83-43.5S160,122,118.94,102.34c-11.49,8.21-23-.82-23-.82l-9,6.57-11.49-1.64L96,91.67s39.4,2.46,65.66,7.39c10.67-1.64,9.85-6.57,9.85-6.57s-16.41-7.38-15.59-26.26,41-32.84,50.07-6.57c9.85-8.21,15.59-4.1,15.59-4.1l-8.2,10.67s-.83,5.74,11.49,4.92S231.39,49.81,272.44,40c33.65-27.91,44.32-23.8,44.32-23.8S325.79-.26,335.64,3,348,19.44,348,19.44s2.46-5.75-15.59-6.57c-10.67,10.67.82,16.42.82,16.42s-2.47,1.64-14.78-.82C315.94,49.81,290.49,49,290.49,49L279,58.84,259.3,75.26S288,88.39,302,127.79c36.11-7.39,35.29,60.74,11.49,73.87s-30.37,13.14-30.37,13.14l21.34,25.44-17.24,25.45-10.67-5.75s-20.52-6.56-28.73-27.08c-16.42,12.31-18.88,8.2-18.88,8.2l1.64,56.64L201,324.79Z"/><path class="cls-4" d="M164.38,349.3c-1.58-4.74,6.57-11.5,17.24-12.32s77.16-59.92,91.93-62.38,20.52-28.73,41.05-32.83,11.49,23,5.74,29.55-54.17,40.22-54.17,40.22l-35.3,26.26S174.23,378.85,164.38,349.3Z"/><path class="cls-4" d="M192.29,322.21s-9-92.76,2.46-100.14,27.91-25.45,27.91-25.45l4.93-31.19s-4.11-34.48-32.84-43.51-38.58,4.93-79.62-14.77c-11.49,8.21-23-.82-23-.82l-9,6.56-11.49-1.64L92.15,96.48s39.4,2.46,65.67,7.39c10.67-1.65,9.85-6.57,9.85-6.57S151.25,89.91,152.07,71s41-32.83,50.07-6.56c9.85-8.21,15.6-4.11,15.6-4.11L209.53,71S208.71,76.78,221,76s6.57-21.34,47.61-31.19C302.28,16.86,313,21,313,21s9-16.42,18.88-13.13,12.32,16.41,12.32,16.41,2.46-5.74-15.6-6.56c-10.67,10.67.82,16.41.82,16.41s-2.46,1.65-14.77-.82c-2.47,21.35-27.91,20.52-27.91,20.52L275.2,63.64,255.5,80.06s28.72,13.13,42.68,52.53c36.12-7.38,35.29,60.75,11.49,73.88S279.3,219.6,279.3,219.6l21.34,25.45L283.4,270.5l-10.67-5.75s-20.52-6.57-28.73-27.09c-16.41,12.31-18.88,8.21-18.88,8.21l1.65,56.64L197.22,329.6Z"/><ellipse class="cls-4" cx="224.71" cy="349.3" rx="14.36" ry="14.78"/><circle class="cls-4" cx="312.13" cy="291.02" r="15.6"/><path class="cls-5" d="M77.68,313.88h5.44s218.34,256.47,374.3-114.8H617.6"/><rect x="235.9" y="111.28" width="2.83" height="2.83" transform="translate(-25.15 124.18) rotate(-27.91)"/><rect x="238.6" y="109.85" width="2.83" height="2.83" transform="translate(-24.17 125.27) rotate(-27.91)"/><rect class="cls-6" x="248.38" y="115.19" width="2.62" height="2.62" transform="translate(-25.49 130.42) rotate(-27.91)"/><rect class="cls-7" x="245.68" y="116.62" width="2.62" height="2.62" transform="translate(-26.47 129.32) rotate(-27.91)"/><rect class="cls-6" x="244.26" y="113.92" width="2.62" height="2.62" transform="translate(-25.38 128.34) rotate(-27.91)"/><rect class="cls-6" x="240.13" y="112.65" width="2.62" height="2.62" transform="translate(-25.26 126.26) rotate(-27.91)"/><rect class="cls-7" x="237.43" y="114.08" width="2.62" height="2.62" transform="translate(-26.25 125.16) rotate(-27.91)"/><rect class="cls-7" x="235.55" y="118.93" width="0.01" height="0.01" transform="translate(-28.27 124.08) rotate(-27.91)"/><rect class="cls-7" x="236.16" y="118.21" width="2.62" height="2.62" transform="translate(-28.32 125.05) rotate(-27.91)"/><path class="cls-8" d="M235.55,118.93h0Z"/><rect class="cls-6" x="236.98" y="121.63" width="0.01" height="0.01" transform="translate(-29.37 125.06) rotate(-27.91)"/><rect class="cls-6" x="237.59" y="120.91" width="2.62" height="2.62" transform="translate(-29.42 126.03) rotate(-27.91)"/><path class="cls-8" d="M237,121.63Z"/><rect class="cls-7" x="238.41" y="124.33" width="0.01" transform="translate(-30.47 126.05) rotate(-27.91)"/><rect class="cls-7" x="239.02" y="123.61" width="2.62" height="2.62" transform="translate(-30.52 127.01) rotate(-27.91)"/><rect class="cls-7" x="239.74" y="126.83" width="0.01" height="0.01" transform="translate(-31.48 126.96) rotate(-27.91)"/><path class="cls-8" d="M239.74,126.83h0Zm-1.33-2.5Z"/><rect class="cls-6" x="242.99" y="118.05" width="2.62" height="2.62" transform="translate(-27.46 128.22) rotate(-27.91)"/><rect class="cls-7" x="244.42" y="120.75" width="2.62" height="2.62" transform="translate(-28.55 129.21) rotate(-27.91)"/><rect class="cls-6" x="241.72" y="122.18" width="2.62" height="2.62" transform="translate(-29.54 128.11) rotate(-27.91)"/><rect class="cls-6" x="247.11" y="119.32" width="2.62" height="2.62" transform="translate(-27.57 130.3) rotate(-27.91)"/><rect class="cls-7" x="249.81" y="117.89" width="2.62" height="2.62" transform="translate(-26.59 131.4) rotate(-27.91)"/><rect class="cls-9" x="252.51" y="116.46" width="2.62" height="2.62" transform="translate(-25.6 132.5) rotate(-27.91)"/><rect class="cls-10" x="255.21" y="115.03" width="2.62" height="2.62" transform="translate(-24.62 133.59) rotate(-27.91)"/><rect class="cls-11" x="257.91" y="113.6" width="2.62" height="2.62" transform="translate(-23.64 134.69) rotate(-27.91)"/><rect class="cls-7" x="243.15" y="124.88" width="2.62" height="2.62" transform="translate(-30.63 129.09) rotate(-27.91)"/><rect class="cls-6" x="245.85" y="123.45" width="2.62" height="2.62" transform="translate(-29.65 130.19) rotate(-27.91)"/><rect class="cls-7" x="248.54" y="122.02" width="2.62" height="2.62" transform="translate(-28.67 131.29) rotate(-27.91)"/><rect class="cls-9" x="251.24" y="120.59" width="2.62" height="2.62" transform="translate(-27.68 132.38) rotate(-27.91)"/><rect class="cls-10" x="253.94" y="119.16" width="2.62" height="2.62" transform="translate(-26.7 133.48) rotate(-27.91)"/><rect class="cls-7" x="251.08" y="113.76" width="2.62" height="2.62" transform="translate(-24.51 131.51) rotate(-27.91)"/><rect class="cls-6" x="249.65" y="111.06" width="2.62" height="2.62" transform="translate(-23.41 130.53) rotate(-27.91)"/><rect class="cls-7" x="252.35" y="109.63" width="2.62" height="2.62" transform="translate(-22.43 131.63) rotate(-27.91)"/><rect class="cls-6" x="250.92" y="106.94" width="2.62" height="2.62" transform="translate(-21.33 130.65) rotate(-27.91)"/><rect class="cls-7" x="253.62" y="105.51" width="2.62" height="2.62" transform="translate(-20.35 131.74) rotate(-27.91)"/><rect class="cls-9" x="255.05" y="108.2" width="2.62" height="2.62" transform="translate(-21.44 132.72) rotate(-27.91)"/><rect class="cls-10" x="257.75" y="106.78" width="2.62" height="2.62" transform="translate(-20.46 133.82) rotate(-27.91)"/><rect class="cls-11" x="259.18" y="109.47" width="2.62" height="2.62" transform="translate(-21.56 134.8) rotate(-27.91)"/><rect class="cls-10" x="256.48" y="110.9" width="2.62" height="2.62" transform="translate(-22.54 133.71) rotate(-27.91)"/><rect class="cls-9" x="253.78" y="112.33" width="2.62" height="2.62" transform="translate(-23.52 132.61) rotate(-27.91)"/><rect class="cls-12" x="260.61" y="112.17" width="2.62" height="2.62" transform="translate(-22.66 135.79) rotate(-27.91)"/><rect class="cls-12" x="259.34" y="116.3" width="2.62" height="2.62" transform="translate(-24.74 135.67) rotate(-27.91)"/><rect class="cls-11" x="256.64" y="117.73" width="2.62" height="2.62" transform="translate(-25.72 134.58) rotate(-27.91)"/><rect class="cls-12" x="258.07" y="120.43" width="2.62" height="2.62" transform="translate(-26.82 135.56) rotate(-27.91)"/><rect class="cls-11" x="255.37" y="121.86" width="2.62" height="2.62" transform="translate(-27.8 134.46) rotate(-27.91)"/><rect class="cls-10" x="252.67" y="123.29" width="2.62" height="2.62" transform="translate(-28.78 133.37) rotate(-27.91)"/><rect class="cls-9" x="249.97" y="124.72" width="2.62" height="2.62" transform="translate(-29.76 132.27) rotate(-27.91)"/><rect class="cls-7" x="247.27" y="126.15" width="2.62" height="2.62" transform="translate(-30.75 131.17) rotate(-27.91)"/><rect class="cls-10" x="251.4" y="127.42" width="2.62" height="2.62" transform="translate(-30.86 133.25) rotate(-27.91)"/><path class="cls-8" d="M263.87,107.14l-1.43-2.7-2.7,1.43-1.43-2.7-2.7,1.43-1.42-2.7-5.6,3,1.43,2.7-2.7,1.42,1.43,2.7-2.5,1.33-1.43-2.7-2.7,1.43-1.43-2.7-5.6,3,1.43,2.7-2.69,1.43,1.42,2.7-2.69,1.43,4.39,8.3,2.7-1.43,1.43,2.69,2.7-1.42,1.43,2.69,2.69-1.43,1.43,2.7,2.7-1.43,1.43,2.7,2.7-1.43,1.43,2.7,2.9-1.53-1.43-2.7,2.7-1.43-1.43-2.7,2.7-1.43-1.43-2.7,2.7-1.43-1.43-2.7,2.7-1.43-1.43-2.69,2.7-1.43-2.86-5.4-.1,0-.11-.2Zm-24.33,19.8-2.5,1.32-1.32-2.5,2.5-1.32Zm-1.43-2.7-2.5,1.32-1.32-2.5,2.5-1.32Zm-1.43-2.7-2.5,1.32-1.32-2.5,2.5-1.32Zm-1.13-2.61h0Zm1.43,2.7h0Zm1.43,2.7h0Zm1.33,2.5Zm3.93,1.38-2.5,1.32-1.32-2.5,2.5-1.32Zm-4.22-7.76,1.22,2.32L238.36,124l-1.23-2.31Zm-2.52.84L235.7,119l2.32-1.23,1.22,2.32Zm3.95,1.86,1.22,2.31-2.32,1.23-1.22-2.32ZM238,117.41l-2.5,1.32-1.32-2.49,2.5-1.33Zm9.85,12.07-2.5,1.32L244,128.3l2.5-1.32Zm-4.23-7.76L244.8,124l-2.32,1.22L241.26,123Zm-5.37-4.55L237,114.85l2.32-1.23,1.22,2.32Zm6.8,7.25,1.23,2.31L243.91,128l-1.22-2.32Zm-5.78-11.14-2.5,1.33-1.32-2.5,2.5-1.33Zm12.71,17.46-2.5,1.33-1.33-2.5,2.5-1.32Zm-7.09-13.15,1.23,2.32-2.32,1.22-1.23-2.31Zm-4-1.85-1.22-2.32,2.31-1.23,1.23,2.32Zm5.38,4.55,1.23,2.32-2.32,1.22L244,121.52Zm1.43,2.7,1.23,2.31-2.32,1.23-1.23-2.32Zm1.43,2.7,1.23,2.31L248,129.23l-1.23-2.32Zm-7.21-13.84-2.5,1.33-1.32-2.5,2.5-1.33ZM256.06,132l-2.5,1.33-1.33-2.5,2.5-1.33Zm-8.52-15.85,1.23,2.32-2.32,1.23-1.23-2.32ZM245,117l-1.23-2.32,2.32-1.23,1.23,2.32Zm3.95,1.85,1.23,2.32-2.32,1.22-1.23-2.31Zm1.43,2.7,1.23,2.32-2.32,1.22-1.23-2.31Zm1.43,2.7,1.23,2.31-2.32,1.23-1.23-2.32Zm1.43,2.7,1.23,2.31-2.32,1.23-1.23-2.32Zm-7.21-13.84-2.5,1.33-1.32-2.5,2.5-1.33Zm14.13,20.16-2.5,1.33-1.32-2.5,2.5-1.33Zm-8.51-15.85,1.23,2.32L250.58,121l-1.23-2.31Zm-2.52.85L247.92,116l2.32-1.23,1.23,2.32Zm3.95,1.85,1.23,2.32L252,123.67l-1.23-2.31Zm1.43,2.7,1.23,2.31-2.32,1.23-1.23-2.32Zm1.43,2.7,1.23,2.31-2.32,1.23-1.23-2.32Zm1.43,2.69,1.23,2.32-2.32,1.23-1.23-2.32Zm-7.21-13.83-2.5,1.33-1.33-2.5,2.5-1.33Zm11.27,14.77-2.5,1.32-1.32-2.5,2.5-1.32Zm-8.51-15.86,1.23,2.32-2.32,1.23-1.23-2.32Zm-2.52.85-1.23-2.32,2.32-1.23,1.23,2.32Zm4,1.85,1.23,2.32-2.32,1.23-1.23-2.32Zm1.43,2.7L257,121l-2.32,1.22-1.23-2.31Zm1.43,2.7,1.23,2.32-2.32,1.22-1.23-2.31Zm1.43,2.7,1.22,2.31-2.31,1.23-1.23-2.32Zm-7.21-13.84-2.5,1.33-1.33-2.5,2.5-1.33ZM262.72,125l-2.5,1.32-1.32-2.5,2.5-1.32Zm-8.51-15.86,1.23,2.32-2.32,1.23-1.23-2.32Zm-2.52.85-1.23-2.32,2.32-1.23,1.23,2.32Zm3.95,1.85,1.23,2.32-2.32,1.23-1.23-2.32Zm1.43,2.7,1.23,2.32L256,118.12l-1.23-2.32Zm1.43,2.7,1.22,2.32-2.31,1.22-1.23-2.31Zm1.43,2.7,1.22,2.32-2.31,1.22-1.23-2.31Zm-7.21-13.83-2.5,1.32-1.33-2.5,2.5-1.32ZM264,120.9l-2.5,1.32-1.32-2.5,2.5-1.32Zm-7.08-13.16,1.23,2.32-2.32,1.23L254.59,109Zm-2.52.85-1.23-2.32,2.32-1.23,1.23,2.32Zm3.95,1.85,1.22,2.32L257.25,114,256,111.67Zm1.43,2.7,1.22,2.32-2.31,1.23-1.23-2.32Zm1.43,2.7,1.22,2.32-2.31,1.23-1.23-2.32Zm-5.78-11.13-2.5,1.32-1.33-2.5,2.5-1.32Zm9.84,12.06-2.5,1.33-1.32-2.5,2.5-1.33ZM261,109l1.22,2.32L260,112.56l-1.23-2.32Zm-2.52.85-1.23-2.32,2.32-1.23,1.22,2.32Zm4,1.85,1.22,2.32-2.31,1.23-1.23-2.32ZM259.54,106,257,107.3l-1.32-2.5,2.5-1.32Zm7,6.66L264,114l-1.32-2.5,2.5-1.33Zm-1.43-2.7-2.5,1.33-1.32-2.5,2.5-1.33Zm-1.43-2.7-2.5,1.33-1.32-2.5,2.5-1.32Z"/><rect class="cls-11" x="254.1" y="125.99" width="2.62" height="2.62" transform="translate(-29.88 134.35) rotate(-27.91)"/><rect class="cls-12" x="256.8" y="124.56" width="2.62" height="2.62" transform="translate(-28.9 135.45) rotate(-27.91)"/><rect class="cls-12" x="255.53" y="128.69" width="2.62" height="2.62" transform="translate(-30.97 135.33) rotate(-27.91)"/><rect x="242.72" y="111.12" width="2.83" height="2.83" transform="translate(-24.28 127.35) rotate(-27.91)"/><rect x="246.85" y="112.39" width="2.83" height="2.83" transform="translate(-24.39 129.43) rotate(-27.91)"/><rect x="248.12" y="108.26" width="2.83" height="2.83" transform="translate(-22.31 129.55) rotate(-27.91)"/><rect x="249.39" y="104.13" width="2.83" height="2.83" transform="translate(-20.23 129.66) rotate(-27.91)"/><rect x="252.09" y="102.7" width="2.83" height="2.83" transform="translate(-19.25 130.76) rotate(-27.91)"/><rect x="256.22" y="103.97" width="2.83" height="2.83" transform="translate(-19.36 132.84) rotate(-27.91)"/><rect x="260.35" y="105.24" width="2.83" height="2.83" transform="translate(-19.48 134.92) rotate(-27.91)"/><path class="cls-8" d="M263.77,107.19l.11.2.1,0-.11-.2Z"/><rect x="261.78" y="107.94" width="2.83" height="2.83" transform="translate(-20.58 135.9) rotate(-27.91)"/><path class="cls-8" d="M263.77,107.19l.11.2.1,0-.11-.2Z"/><rect x="263.2" y="110.64" width="2.83" height="2.83" transform="translate(-21.67 136.88) rotate(-27.91)"/><rect x="261.94" y="114.77" width="2.83" height="2.83" transform="translate(-23.75 136.77) rotate(-27.91)"/><rect x="260.67" y="118.9" width="2.83" height="2.83" transform="translate(-25.83 136.66) rotate(-27.91)"/><rect x="259.4" y="123.03" width="2.83" height="2.83" transform="translate(-27.91 136.54) rotate(-27.91)"/><rect x="258.13" y="127.15" width="2.83" height="2.83" transform="translate(-29.99 136.43) rotate(-27.91)"/><rect x="252.73" y="130.01" width="2.83" height="2.83" transform="translate(-31.96 134.23) rotate(-27.91)"/><rect x="248.6" y="128.74" width="2.83" height="2.83" transform="translate(-31.84 132.15) rotate(-27.91)"/><rect x="244.47" y="127.47" width="2.83" height="2.83" transform="translate(-31.73 130.07) rotate(-27.91)"/><rect x="240.35" y="126.2" width="2.83" height="2.83" transform="translate(-31.62 128) rotate(-27.91)"/><path class="cls-8" d="M239.74,126.83h0Z"/><rect x="236.22" y="124.93" width="2.83" height="2.83" transform="translate(-31.5 125.92) rotate(-27.91)"/><path class="cls-8" d="M238.41,124.33Zm1.33,2.5h0Z"/><rect x="234.79" y="122.24" width="2.83" height="2.83" transform="translate(-30.4 124.93) rotate(-27.91)"/><path class="cls-8" d="M238.41,124.33Z"/><rect x="233.36" y="119.54" width="2.83" height="2.83" transform="translate(-29.31 123.95) rotate(-27.91)"/><path class="cls-8" d="M235.55,118.93h0Z"/><rect class="cls-8" x="236.98" y="121.63" width="0.01" height="0.01" transform="translate(-29.37 125.06) rotate(-27.91)"/><rect x="234.63" y="115.41" width="2.83" height="2.83" transform="translate(-27.23 124.06) rotate(-27.91)"/><path class="cls-8" d="M235.55,118.93h0Z"/><rect x="256.86" y="131.28" width="2.83" height="2.83" transform="translate(-32.07 136.31) rotate(-27.91)"/><rect class="cls-13" x="527.26" y="192.54" width="13.01" height="13.1" transform="translate(334.68 732.85) rotate(-90)"/><rect class="cls-14" x="514.16" y="192.54" width="13.01" height="13.1" transform="translate(321.58 719.75) rotate(-90)"/><rect class="cls-15" x="501.06" y="192.54" width="13.01" height="13.1" transform="translate(308.48 706.66) rotate(-90)"/><rect class="cls-16" x="487.96" y="192.54" width="13.01" height="13.1" transform="translate(295.38 693.56) rotate(-90)"/><rect class="cls-17" x="474.87" y="192.54" width="13.01" height="13.1" transform="translate(282.28 680.46) rotate(-90)"/><rect class="cls-18" x="461.79" y="192.54" width="13.01" height="13.1" transform="translate(269.21 667.38) rotate(-90)"/><rect class="cls-13" x="605.89" y="192.54" width="13.01" height="13.1" transform="translate(413.31 811.48) rotate(-90)"/><rect class="cls-14" x="592.79" y="192.54" width="13.01" height="13.1" transform="translate(400.21 798.38) rotate(-90)"/><rect class="cls-15" x="579.69" y="192.54" width="13.01" height="13.1" transform="translate(387.11 785.28) rotate(-90)"/><rect class="cls-16" x="566.59" y="192.54" width="13.01" height="13.1" transform="translate(374.01 772.18) rotate(-90)"/><rect class="cls-17" x="553.49" y="192.54" width="13.01" height="13.1" transform="translate(360.91 759.08) rotate(-90)"/><rect class="cls-18" x="540.42" y="192.54" width="13.01" height="13.1" transform="translate(347.83 746.01) rotate(-90)"/><rect class="cls-13" x="65.43" y="307.34" width="12.99" height="13.08" transform="translate(-241.95 385.81) rotate(-90)"/><rect class="cls-14" x="52.35" y="307.34" width="12.99" height="13.08" transform="translate(-255.03 372.73) rotate(-90)"/><rect class="cls-15" x="39.27" y="307.34" width="12.99" height="13.08" transform="translate(-268.11 359.64) rotate(-90)"/><rect class="cls-16" x="26.19" y="307.34" width="12.99" height="13.08" transform="translate(-281.2 346.56) rotate(-90)"/><rect class="cls-17" x="13.1" y="307.34" width="12.99" height="13.08" transform="translate(-294.28 333.48) rotate(-90)"/><rect class="cls-18" x="0.05" y="307.34" width="12.99" height="13.08" transform="translate(-307.34 320.42) rotate(-90)"/></g></g></svg>