<svg xmlns="http://www.w3.org/2000/svg" viewBox="0 0 249 230.51"><defs><style>.cls-1{fill:#f06524;}.cls-2{fill:#007f7f;}.cls-3{fill:#2b999a;}.cls-4{fill:#f99f1d;}.cls-5{fill:#ce2029;}.cls-6{fill:#ab1f24;}.cls-11,.cls-12,.cls-7{fill:none;}.cls-11,.cls-14,.cls-7{stroke:#000;}.cls-10,.cls-11,.cls-12,.cls-14,.cls-7,.cls-8,.cls-9{stroke-miterlimit:10;}.cls-7{stroke-width:8px;}.cls-10,.cls-13,.cls-8,.cls-9{fill:#fff;}.cls-10,.cls-12,.cls-8,.cls-9{stroke:#fff;}.cls-9{stroke-width:3px;}.cls-10{stroke-width:2px;}.cls-11{stroke-width:4px;}.cls-12{stroke-width:1.52px;}.cls-14{stroke-width:1.55px;}</style></defs><title>skateramp</title><g id="Layer_2" data-name="Layer 2"><g id="Venue"><rect class="cls-1" y="25.51" width="249" height="205"/><rect class="cls-2" x="128.86" y="-0.09" width="25.58" height="25.76" transform="translate(128.86 154.44) rotate(-90)"/><rect class="cls-3" x="103.09" y="-0.09" width="25.58" height="25.76" transform="translate(103.09 128.68) rotate(-90)"/><rect class="cls-4" x="77.33" y="-0.09" width="25.58" height="25.76" transform="translate(77.33 102.92) rotate(-90)"/><rect class="cls-1" x="51.57" y="-0.09" width="25.58" height="25.76" transform="translate(51.57 77.15) rotate(-90)"/><rect class="cls-5" x="25.81" y="-0.09" width="25.58" height="25.76" transform="translate(25.81 51.39) rotate(-90)"/><rect class="cls-6" x="0.09" y="-0.09" width="25.58" height="25.76" transform="translate(0.09 25.67) rotate(-90)"/><path class="cls-7" d="M20.62,191.74C58.53,153.51,51.34,63.33,51.34,63.33L122,62.69h1.38l70.66.64s-7.19,90.18,30.72,128.41Z"/><rect class="cls-8" x="61.06" y="124.45" width="2.29" height="31.1"/><rect class="cls-8" x="80.11" y="148.47" width="2.51" height="26.3" transform="translate(-80.26 242.99) rotate(-90)"/><rect class="cls-8" x="63.35" y="155.52" width="2.45" height="2.45"/><rect class="cls-8" x="63.35" y="121.99" width="2.45" height="2.45"/><rect class="cls-8" x="65.78" y="119.56" width="2.45" height="2.45"/><rect class="cls-8" x="68.23" y="117.13" width="2.45" height="2.45"/><rect class="cls-8" x="70.58" y="97.3" width="2.45" height="19.91"/><rect class="cls-8" x="80.04" y="87.92" width="2.45" height="21.33" transform="translate(179.85 17.31) rotate(90)"/><rect class="cls-8" x="65.78" y="157.95" width="2.45" height="2.45"/><rect class="cls-8" x="79.31" y="94.74" width="4.14" height="26.65" transform="translate(-26.68 189.45) rotate(-90)"/><rect class="cls-8" x="99.29" y="124.45" width="2.29" height="31.1" transform="translate(200.87 280) rotate(-180)"/><rect class="cls-8" x="80.03" y="148.47" width="2.51" height="26.3" transform="translate(-80.34 242.9) rotate(-90)"/><rect class="cls-8" x="96.85" y="155.52" width="2.45" height="2.45" transform="translate(196.14 313.49) rotate(-180)"/><rect class="cls-8" x="96.85" y="121.99" width="2.45" height="2.45" transform="translate(196.14 246.42) rotate(-180)"/><rect class="cls-8" x="94.42" y="119.56" width="2.45" height="2.45" transform="translate(191.28 241.56) rotate(-180)"/><rect class="cls-8" x="91.96" y="117.13" width="2.45" height="2.45" transform="translate(186.38 236.7) rotate(-180)"/><rect class="cls-8" x="89.53" y="97.47" width="2.45" height="19.64" transform="translate(181.51 214.57) rotate(-180)"/><rect class="cls-8" x="94.41" y="157.95" width="2.45" height="2.45" transform="translate(191.27 318.35) rotate(-180)"/><path class="cls-8" d="M92.9,148.11H69.83v-8.44H92.9Z"/><rect class="cls-8" x="174.19" y="92.89" width="2.45" height="19.64" transform="translate(350.84 205.43) rotate(-180)"/><rect class="cls-8" x="160.76" y="92.89" width="2.45" height="19.64" transform="translate(323.96 205.43) rotate(-180)"/><rect class="cls-8" x="164.21" y="89.44" width="8.98" height="2.45" transform="translate(337.39 181.32) rotate(-180)"/><rect class="cls-8" x="150.8" y="112.34" width="35.94" height="11.5"/><line class="cls-9" x1="158.63" y1="165.35" x2="158.63" y2="123.78"/><line class="cls-9" x1="178.65" y1="165.46" x2="178.65" y2="123.88"/><rect class="cls-8" x="160.59" y="165.85" width="2.45" height="2.45" transform="translate(323.64 334.14) rotate(-180)"/><rect class="cls-8" x="163.95" y="169.31" width="2.45" height="2.45" transform="translate(330.34 341.08) rotate(-180)"/><rect class="cls-8" x="167.31" y="172.69" width="2.45" height="2.45" transform="translate(337.08 347.83) rotate(-180)"/><rect class="cls-8" x="174.2" y="165.95" width="2.45" height="2.45" transform="translate(350.84 334.35) rotate(-180)"/><rect class="cls-8" x="170.77" y="169.37" width="2.45" height="2.45" transform="translate(343.98 341.19) rotate(-180)"/><line class="cls-10" x1="163.66" y1="129.33" x2="163.66" y2="155.14"/><rect class="cls-11" x="108.19" y="79.32" width="36.92" height="90.67" rx="18.46"/><rect class="cls-12" x="119.39" y="102.5" width="14.52" height="4.25"/><path class="cls-13" d="M122.88,99.32v12.42h8.17V99.32Zm4.13,11a.94.94,0,1,1,.94-.94A.95.95,0,0,1,127,110.27Z"/><rect class="cls-14" x="112.93" y="98.11" width="6.44" height="13.34" rx="3.02"/><rect class="cls-14" x="133.93" y="98.11" width="6.44" height="13.34" rx="3.02"/><rect class="cls-12" x="119.39" y="144.21" width="14.52" height="4.25"/><path class="cls-13" d="M131.05,151.64V139.22h-8.17v12.42Zm-3.1-10a.94.94,0,1,1-.94-.94A.94.94,0,0,1,128,141.63Z"/><rect class="cls-14" x="112.93" y="139.51" width="6.44" height="13.34" rx="3.02"/><rect class="cls-14" x="133.93" y="139.51" width="6.44" height="13.34" rx="3.02"/></g></g></svg>