<svg xmlns="http://www.w3.org/2000/svg" viewBox="0 0 549.31 362.02"><defs><style>.cls-1{fill:#fff;}.cls-2,.cls-3{fill:#231f20;}.cls-3{font-size:44.48px;stroke:#231f20;stroke-miterlimit:10;stroke-width:0.74px;font-family:PKMN-RBYGSC, PKMN RBYGSC;}.cls-4{fill:#ab1f25;}</style></defs><title>tickets_1</title><g id="Layer_2" data-name="Layer 2"><g id="Layer_1-2" data-name="Layer 1"><rect class="cls-1" x="41.85" y="49.89" width="344.38" height="201.28" transform="translate(-30.99 58.69) rotate(-14.57)"/><path class="cls-2" d="M352.13,15.33l48.36,186L76,285.73l-48.36-186L352.13,15.33m6.49-11L16.55,93.2,69.46,296.77l342.07-88.91L358.62,4.29Z"/><rect class="cls-2" x="2.8" y="93.89" width="25.51" height="25.51" transform="translate(-26.33 7.34) rotate(-14.57)"/><rect class="cls-2" x="14.42" y="138.61" width="25.51" height="25.51" transform="translate(-37.2 11.7) rotate(-14.57)"/><rect class="cls-2" x="26.05" y="183.33" width="25.51" height="25.51" transform="translate(-48.08 16.07) rotate(-14.57)"/><rect class="cls-2" x="37.67" y="228.05" width="25.51" height="25.51" transform="translate(-58.96 20.43) rotate(-14.57)"/><rect class="cls-2" x="49.29" y="272.77" width="25.51" height="25.51" transform="translate(-69.83 24.79) rotate(-14.57)"/><rect class="cls-2" x="353.26" y="2.8" width="25.51" height="25.51" transform="translate(7.86 92.57) rotate(-14.57)"/><rect class="cls-2" x="364.88" y="47.52" width="25.51" height="25.51" transform="matrix(0.97, -0.25, 0.25, 0.97, -3.02, 96.94)"/><rect class="cls-2" x="376.51" y="92.24" width="25.51" height="25.51" transform="translate(-13.89 101.3) rotate(-14.57)"/><rect class="cls-2" x="388.13" y="136.96" width="25.51" height="25.51" transform="translate(-24.77 105.66) rotate(-14.57)"/><rect class="cls-2" x="399.75" y="181.68" width="25.51" height="25.51" transform="translate(-35.65 110.02) rotate(-14.57)"/><text class="cls-3" transform="matrix(0.97, -0.25, 0.25, 0.97, 151.16, 183.57)">Ticket</text><path class="cls-4" d="M125.24,183.43l.06.25.24-.06-.06-.26Z"/><rect class="cls-4" x="110.35" y="145.45" width="0.01" height="5.84" transform="translate(-33.78 32.53) rotate(-14.57)"/><polygon class="cls-1" points="109.62 145.54 109.62 145.55 111.08 151.19 111.09 151.19 109.62 145.54 109.62 145.54"/><rect class="cls-4" x="129.41" y="151.7" width="5.84" height="0.05" transform="translate(-33.91 38.17) rotate(-14.57)"/><polygon class="cls-1" points="135.15 150.97 129.5 152.44 129.51 152.48 135.16 151.01 135.15 150.97 135.15 150.97"/><rect class="cls-4" x="125.27" y="183.39" width="0.25" height="0.27" transform="translate(-42.14 37.45) rotate(-14.57)"/><polygon class="cls-1" points="125.48 183.36 125.24 183.43 125.31 183.68 125.54 183.62 125.48 183.36 125.48 183.36"/><rect class="cls-4" x="125.27" y="183.39" width="0.25" height="0.27" transform="translate(-42.14 37.45) rotate(-14.57)"/><polygon class="cls-1" points="125.48 183.36 125.24 183.43 125.31 183.68 125.54 183.62 125.48 183.36 125.48 183.36"/><path class="cls-4" d="M111.72,199.1l5.19-1.35,1.45,5.58-5.19,1.35Zm-7.11-4.18,5.25-1.37-1.38-5.32-5.33,1.39,1.37,5.25-5.58,1.45-1.45-5.58,5.25-1.37-1.38-5.32L96,185.44l1.36,5.25-5.58,1.45-1.45-5.58,5.25-1.37-1.38-5.32-5.32,1.39,1.36,5.24L84.7,188l-1.45-5.59L88.5,181l-1.38-5.32-5.32,1.38,1.37,5.26-5.58,1.45L73.3,167.3l5.58-1.45,1.37,5.25,5.32-1.39-1.39-5.32-5.25,1.37-1.45-5.58,5.58-1.45L84.43,164l5.32-1.38-1.38-5.32-5.25,1.36-1.45-5.58,10.83-2.81L94,155.83l-5.26,1.36,1.39,5.32,5.32-1.38L94,155.88l5.58-1.45,1.45,5.58-5.25,1.36,1.39,5.32,5.32-1.38-1.37-5.25,6-1.56,1.36,5.25,5.32-1.38-1.38-5.32-5.25,1.37-1.45-5.58,5.58-1.45,1.36,5.25,5.33-1.39-1.39-5.32-5.24,1.37-1.45-5.58,10.82-2.82,1.45,5.58-5.25,1.37,1.38,5.32,5.32-1.39-1.36-5.24,5.58-1.45,1.45,5.57L124.06,154l1.38,5.32,5.32-1.38-1.35-5.21,5.58-1.45,4.27,16.44-5.58,1.45-1.37-5.26L127,165.33l1.38,5.32,5.25-1.37,1.45,5.58-5.58,1.45-1.36-5.25-5.33,1.38,1.39,5.33,5.25-1.37L130.9,182l-5.18,1.35-.07-.26-.4.1-1.3-5-5.32,1.38,1.39,5.32,5-1.3.1.4.24-.06,1.35,5.18-5.58,1.45-1.37-5.25-5.32,1.38,1.38,5.32,5.26-1.36,1.45,5.58L117,197.67l-1.37-5.26-5.32,1.39,1.37,5.25-5.58,1.45Zm4.19-6.77,1.39,5.32,5.32-1.39-1.39-5.31ZM101.69,184l1.38,5.32,5.32-1.38L107,182.58Zm5.65-1.47,1.38,5.32,5.32-1.38-1.38-5.32ZM113,181l1.39,5.32,5.32-1.38-1.39-5.32Zm-18.41-1.24L96,185.11l5.32-1.38-1.38-5.33Zm5.65-1.47,1.38,5.32,5.32-1.38-1.38-5.32Zm5.65-1.47,1.38,5.32,5.32-1.38-1.38-5.32Zm-18.42-1.24,1.38,5.32,5.32-1.39-1.38-5.32Zm24.07-.23,1.38,5.32,5.32-1.38L116.84,174ZM93.1,174.14l1.38,5.32,5.32-1.39-1.38-5.32Zm24.06-.23,1.39,5.32,5.32-1.38-1.38-5.32Zm-18.41-1.24,1.38,5.32,5.32-1.38-1.38-5.32Zm-18.42-1.24,1.39,5.31L87,175.36,85.65,170Zm24.07-.23,1.38,5.32,5.32-1.38-1.38-5.32Zm5.65-1.47,1.38,5.32,5.32-1.38-1.38-5.32Zm-18.42-1.24L93,173.81l5.32-1.39L97,167.11Zm24.07-.23,1.38,5.32,5.32-1.38L121,166.88ZM97.28,167l1.38,5.32L104,171l-1.38-5.32Zm24.07-.23,1.38,5.33,5.32-1.39-1.38-5.32Zm-18.42-1.24,1.38,5.32,5.32-1.38-1.38-5.32Zm5.65-1.47L110,169.4l5.32-1.38-1.38-5.32Zm5.65-1.46,1.38,5.32,5.32-1.39-1.38-5.32Zm5.65-1.47,1.38,5.32,5.32-1.39-1.38-5.32Zm5.65-1.47,1.38,5.32,5.32-1.38-1.38-5.32ZM112.76,157l1.38,5.32,5.32-1.39-1.38-5.32Zm5.65-1.47,1.38,5.32,5.32-1.39-1.38-5.32Z"/><path class="cls-4" d="M120.57,143.2l1.33,5.11-4.79,1.24-.32.09h0l-.47.12L111.54,151l-1.33-5.11,10.36-2.69m7.12,4.18,1.32,5.11-4.78,1.24-.33.09-.08-.33-1.24-4.78,5.11-1.33m-35.37,3.16,1.33,5.11-4.78,1.24-.33.09h0l-.47.12-4.78,1.24L82,153.23l10.36-2.69m42.49,1.06,4.16,16-5.12,1.33-1.24-4.78-.09-.33-.12-.47-1.26-4.85-.08-.33-.13-.47-1.23-4.74,5.11-1.33m-23.67.08,1.24,4.78.08.33-.32.09-4.79,1.24L106,153l5.11-1.33m-11.7,3,1.33,5.11L96,161.08l-.33.08-.09-.33-1.24-4.78,5.11-1.33M107,158.8l1.25,4.78.08.33L108,164l-4.85,1.26-.32.08-.09-.33-1.24-4.78,5.5-1.43M82.89,159l1.24,4.79.09.32-.33.09-4.78,1.24-1.33-5.11L82.89,159m12.66,2.32.09.33,1.26,4.85.09.33-.33.08-4.86,1.26-.46.13.12.46,1.26,4.85.08.33h0l-.32.09-4.86,1.26-.33.09-.08-.33L86,170.22l-.12-.47h0l-.09-.33-1.26-4.85-.09-.33.33-.09,4.86-1.26.46-.12h0l.33-.09,4.86-1.26.32-.08m-16.84,4.8L80,170.92l.09.33.12.47,1.26,4.85.12.47h0l.09.33,1.24,4.78-5.11,1.33-4.16-16,5.11-1.33m54.75,3.44,1.32,5.11L129.67,176l-1.24-4.78-.09-.33.33-.09,4.79-1.24m-4.19,7.12,1.33,5.11L125.89,183l-.07-.26-.39.11-1.18-4.53-.09-.33.33-.08,4.78-1.24m-40.61,4.52h0l.09.33L90,186.33l-5.11,1.33-1.33-5.11,4.78-1.24.33-.09m36.19,2.66.11.39.24-.06,1.22,4.71-5.11,1.33-1.24-4.78-.09-.33h0l.33-.08,4.54-1.18M95.78,185.4l.08.33,1.25,4.78L92,191.84l-1.33-5.11,4.78-1.24.33-.09m7.12,4.18.08.33,1.24,4.78L99.11,196l-1.33-5.11,4.79-1.24.33-.09m18,1.35,1.33,5.11-5.11,1.33-1.24-4.78-.09-.33.33-.09,4.78-1.24M110,193.76l.09.33,1.24,4.79-5.11,1.32-1.33-5.11,4.78-1.24.33-.09m6.72,4.29,1.33,5.11-4.71,1.22L112,199.27l4.71-1.22m4.18-55.44-11.29,2.93,1.47,5.65-5.65,1.47,1.46,5.65-5.65,1.47-1.46-5.65-5.65,1.47L92.67,150l-11.3,2.94,1.47,5.65L77.19,160l1.47,5.64L73,167.12l4.4,16.95,5.65-1.47,1.47,5.65,5.65-1.47,1.47,5.65L97.3,191l1.47,5.65,5.64-1.47,1.47,5.65,5.65-1.46L113,205l5.65-1.46-1.47-5.65,5.65-1.47-1.47-5.65,5.65-1.47-1.47-5.65-.24.06-.06-.25.24-.07.06.26,5.65-1.47-1.47-5.65,5.65-1.46-1.46-5.65,5.65-1.47L135.16,151l-5.65,1.47L128,146.79l-5.65,1.47-1.47-5.65Zm-2.41,12.26L117.24,150l4.85-1.26,1.26,4.85-4.85,1.26Zm-5.65,1.47-1.26-4.85,4.85-1.26,1.26,4.85-4.85,1.26Zm12.77,2.71-1.27-4.85,4.86-1.26,1.26,4.85-4.85,1.26ZM120,160.52l-1.27-4.85,4.86-1.26,1.26,4.85L120,160.52ZM114.32,162l-1.27-4.85,4.86-1.26,1.26,4.85L114.32,162Zm-24.07.23L89,157.36l4.85-1.26L95.1,161l-4.85,1.27Zm18.42,1.24-1.26-4.85,4.85-1.26,1.26,4.85-4.85,1.26Zm-24.07.22-1.26-4.85,4.85-1.26,1.26,4.85-4.85,1.26Zm42.48,1-1.26-4.85,4.85-1.26,1.26,4.85-4.85,1.26Zm-5.65,1.47-1.26-4.85,4.86-1.26,1.26,4.85-4.86,1.26Zm-24.06.23-1.26-4.86,4.85-1.26,1.26,4.86-4.85,1.26Zm18.41,1.24-1.26-4.85,4.86-1.26,1.26,4.85-4.86,1.26Zm-5.65,1.47-1.26-4.85,4.86-1.26,1.26,4.85-4.86,1.26Zm18.42,1.24-1.26-4.85,4.85-1.26,1.26,4.85-4.85,1.26Zm-24.06.23-1.26-4.85,4.85-1.27,1.26,4.86-4.85,1.26Zm-24.07.22L79.16,166,84,164.69l1.26,4.85-4.85,1.26Zm42.48,1L121.64,167l4.85-1.26,1.26,4.85-4.85,1.26ZM98.84,172l-1.26-4.85,4.85-1.26,1.26,4.85L98.84,172Zm18.41,1.25L116,168.44l4.85-1.26L122.1,172l-4.85,1.26Zm-24.06.22-1.26-4.85,4.85-1.26L98,172.25l-4.85,1.26Zm18.41,1.25-1.26-4.85,4.85-1.27,1.27,4.86-4.86,1.26ZM106,176.23l-1.26-4.86,4.85-1.26,1.27,4.85L106,176.23Zm-24.06.22-1.26-4.85,4.85-1.26,1.26,4.85-4.85,1.26Zm42.48,1-1.26-4.85,4.85-1.26,1.26,4.85-4.85,1.26Zm-24.06.22L99,172.84l4.86-1.26,1.26,4.85-4.85,1.26Zm18.41,1.25-1.26-4.85,4.85-1.26,1.26,4.85-4.85,1.26Zm-24.06.22-1.27-4.85,4.86-1.26,1.26,4.85-4.85,1.26Zm18.41,1.25-1.26-4.86,4.85-1.26,1.26,4.86-4.85,1.26ZM89,180.63l-1.26-4.85,4.85-1.26,1.26,4.85L89,180.63Zm18.41,1.25L106.16,177l4.85-1.26,1.26,4.85-4.85,1.27Zm-24.06.22-1.26-4.85L87,176l1.26,4.85-4.85,1.26Zm18.41,1.24-1.26-4.85,4.85-1.26,1.27,4.85-4.86,1.26Zm18.42,1.25-1.26-4.85,4.85-1.27,1.26,4.86-4.85,1.26Zm-24.07.22L94.86,180l4.86-1.26,1.26,4.85-4.86,1.26Zm18.42,1.25-1.26-4.86,4.85-1.26,1.26,4.86-4.85,1.26Zm-24.07.22-1.26-4.85,4.86-1.26L95.33,185l-4.86,1.26Zm18.42,1.24-1.26-4.85,4.85-1.26,1.26,4.85-4.85,1.26ZM103.24,189,102,184.14l4.85-1.26,1.26,4.85L103.24,189Zm-5.65,1.47-1.26-4.85,4.85-1.26,1.27,4.85-4.86,1.26ZM116,191.71l-1.26-4.86,4.85-1.26,1.26,4.85L116,191.71Zm-5.65,1.46-1.26-4.85,4.85-1.26,1.26,4.85-4.85,1.26Zm-5.65,1.47-1.26-4.85,4.85-1.26,1.26,4.85-4.85,1.26Zm7.12,4.18L110.57,194l4.85-1.26,1.26,4.85-4.85,1.26Z"/><rect class="cls-1" x="183.33" y="156.21" width="344.38" height="201.28"/><path class="cls-2" d="M523.18,160.74V353H187.85V160.74H523.18m9.05-9.05H178.8V362H532.23V151.69Z"/><rect class="cls-2" x="161.7" y="151.69" width="25.51" height="25.51"/><rect class="cls-2" x="161.7" y="197.9" width="25.51" height="25.51"/><rect class="cls-2" x="161.7" y="244.1" width="25.51" height="25.51"/><rect class="cls-2" x="161.7" y="290.31" width="25.51" height="25.51"/><rect class="cls-2" x="161.7" y="336.52" width="25.51" height="25.51"/><rect class="cls-2" x="523.8" y="151.69" width="25.51" height="25.51"/><rect class="cls-2" x="523.8" y="197.9" width="25.51" height="25.51"/><rect class="cls-2" x="523.8" y="244.1" width="25.51" height="25.51"/><rect class="cls-2" x="523.8" y="290.31" width="25.51" height="25.51"/><rect class="cls-2" x="523.8" y="336.52" width="25.51" height="25.51"/><text class="cls-3" transform="translate(286.35 273.01)">Ticket</text><path class="cls-4" d="M261.29,266.35v.26h.25v-.26Z"/><rect class="cls-4" x="255.71" y="225.76" width="0.01" height="5.84"/><polygon class="cls-1" points="255.71 225.76 255.71 225.76 255.71 231.59 255.71 231.59 255.71 225.76 255.71 225.76"/><rect class="cls-4" x="273.22" y="237.43" width="5.84" height="0.05"/><polygon class="cls-1" points="279.05 237.43 273.21 237.43 273.21 237.48 279.05 237.48 279.05 237.43 279.05 237.43"/><rect class="cls-4" x="261.29" y="266.35" width="0.25" height="0.27"/><polygon class="cls-1" points="261.54 266.35 261.3 266.35 261.3 266.62 261.54 266.62 261.54 266.35 261.54 266.35"/><rect class="cls-4" x="261.29" y="266.35" width="0.25" height="0.27"/><polygon class="cls-1" points="261.54 266.35 261.3 266.35 261.3 266.62 261.54 266.62 261.54 266.35 261.54 266.35"/><path class="cls-4" d="M244.27,283.88v-5.76h5.36v5.76Zm5.43-5.83v-5.43h-5.5v5.43h-5.76v-5.77h5.42v-5.5h-5.5v5.43H232.6v-5.76H238V261h-5.49v5.42h-5.77v-5.76h5.43v-5.5h-5.5v5.43h-5.76v-5.77h5.42v-5.5h-5.5v5.43h-5.76v-17h5.76v5.43h5.5v-5.5h-5.42v-5.76h5.76v5.42h5.5v-5.5h-5.43V226H238v5.76h-5.42v5.5H238v-5.42h5.77v5.76h-5.43v5.5h5.5v-5.43H250v5.43h5.5v-5.5h-5.43v-5.76h5.76v5.42h5.5v-5.5H256V226h11.19v5.76h-5.43v5.5h5.5v-5.42H273v5.76h-5.42v5.5H273v-5.38h5.77v17H273v-5.43h-5.49v5.5H273v5.77h-5.76v-5.43h-5.5v5.5h5.43v5.76h-5.36v-.26h-.41V261h-5.5v5.5h5.18v.41h.25v5.35h-5.76v-5.43H250v5.5h5.42v5.77Zm-5.5-5.77h5.5v-5.5h-5.5Zm5.84-5.83h5.5V261H250Zm-5.84,0h5.5V261h-5.5Zm-5.84,0h5.5V261h-5.5Zm17.51-5.84h5.5v-5.5h-5.5Zm-5.83,0h5.5v-5.5H250Zm-5.84,0h5.5v-5.5h-5.5Zm-5.84,0h5.5v-5.5h-5.5Zm-5.83,0H238v-5.5h-5.49Zm29.18-5.84h5.5v-5.5h-5.5Zm-5.84,0h5.5v-5.5h-5.5Zm-5.83,0h5.5v-5.5H250Zm-5.84,0h5.5v-5.5h-5.5Zm-5.84,0h5.5v-5.5h-5.5Zm-5.83,0H238v-5.5h-5.49Zm-5.84,0h5.5v-5.5h-5.5Zm40.86-5.84H273v-5.49h-5.49Zm-5.84,0h5.5v-5.49h-5.5Zm-5.84,0h5.5v-5.49h-5.5Zm-5.83,0h5.5v-5.49H250Zm-5.84,0h5.5v-5.49h-5.5Zm-5.84,0h5.5v-5.49h-5.5Zm-5.83,0H238v-5.49h-5.49Zm-11.68,0h5.5v-5.49h-5.5Zm40.86-5.83h5.5v-5.5h-5.5Zm-5.84,0h5.5v-5.5h-5.5Z"/><path class="cls-4" d="M266.89,226.24v5.28H256.2v-5.28h10.69m-29.18,0v5.28H227v-5.28h10.71m35,5.84v5.28h-5.28v-5.28h5.28m-17.1,0v5.28h-5.28v-5.28h5.28m-12.08,0v5.28h-5.28v-5.28h5.28m-17.1,0v5.28h-5.28v-5.28h5.28m11.67,5.42v5.7h-5.84V249h-5.69V237.5h11.53m11.68.41v5.29h-5.7v-5.29h5.7m-29.19,0v16.55h-5.28V237.91h5.28m58,.05v16.5h-5.28V238h5.28m-52.12,17h0v5.28h-5.28V255h5.28m46.28,0v5.28h-5.28V255h5.28m-5.84,5.84v5.28H262v-.26h-.42v-5h5.28m-34.61,0v5.28H227v-5.28h5.28m28.53,5.84v.41h.25V272h-5.28v-5.28h5m-22.69,0V272h-5.28v-5.28h5.28m17.1,5.83v5.29h-5.28v-5.29h5.28m-11.26,0v5.29h-5.28v-5.29H244m5.42,5.84v5.28h-4.87v-5.28h4.87m18-52.6H255.71v5.83h-5.84v5.84H244v-5.84h-5.84v-5.83H226.52v5.83h-5.84v5.84h-5.83v17.51h5.83v5.84h5.84v5.83h5.84v5.84h5.83v5.84H244v5.84h5.84v-5.84h5.84v-5.84h5.83v-5.84h-.25v-.26h.25v.26h5.84v-5.83h5.84v-5.84h5.83V237.48h-5.83v-5.89h-5.84v-5.83ZM262,237v-5h5v5Zm-5.83,0v-5h5v5Zm-23.35,0v-5h5v5Zm-5.84,0v-5h5v5Zm40.86,5.84v-5h5v5Zm-5.84,0v-5h5v5Zm-5.83,0v-5h5v5Zm-5.84,0v-5h5v5Zm-11.67,0v-5h5v5Zm-17.52,0v-5h5v5Zm46.7,5.83v-5h5v5Zm-5.84,0v-5h5v5Zm-5.83,0v-5h5v5Zm-5.84,0v-5h5v5Zm-5.84,0v-5h5v5Zm-5.83,0v-5h5v5Zm-5.84,0v-5h5v5Zm-11.68,0v-5h5v5Zm46.7,5.84v-5h5v5Zm-5.84,0v-5h5v5Zm-5.83,0v-5h5v5Zm-5.84,0v-5h5v5Zm-5.84,0v-5h5v5Zm-5.83,0v-5h5v5Zm-5.84,0v-5h5v5Zm-5.84,0v-5h5v5Zm-5.84,0v-5h5v5ZM262,260.37v-5h5v5Zm-5.83,0v-5h5v5Zm-5.84,0v-5h5v5Zm-5.84,0v-5h5v5Zm-5.83,0v-5h5v5Zm-5.84,0v-5h5v5Zm-5.84,0v-5h5v5Zm29.19,5.83v-5h5v5Zm-5.84,0v-5h5v5Zm-5.84,0v-5h5v5Zm-5.83,0v-5h5v5Zm-5.84,0v-5h5v5ZM250.28,272v-5h5v5Zm-5.84,0v-5h5v5Zm-5.83,0v-5h5v5Zm5.83,5.84v-5h5v5Z"/></g></g></svg>