<svg xmlns="http://www.w3.org/2000/svg" viewBox="0 0 249 230.51"><defs><style>.cls-1{fill:#ce2029;}.cls-2{fill:#007f7f;}.cls-3{fill:#2b999a;}.cls-4{fill:#f99f1d;}.cls-5{fill:#f06524;}.cls-6{fill:#ab1f24;}.cls-7,.cls-8{fill:#fff;}.cls-8{stroke:#fff;stroke-miterlimit:10;stroke-width:0.18px;}</style></defs><title>tryagain_3</title><g id="Layer_2" data-name="Layer 2"><g id="ContactUs"><rect class="cls-1" y="25.51" width="249" height="205"/><rect class="cls-2" x="128.86" y="-0.09" width="25.58" height="25.76" transform="translate(128.86 154.44) rotate(-90)"/><rect class="cls-3" x="103.09" y="-0.09" width="25.58" height="25.76" transform="translate(103.09 128.68) rotate(-90)"/><rect class="cls-4" x="77.33" y="-0.09" width="25.58" height="25.76" transform="translate(77.33 102.92) rotate(-90)"/><rect class="cls-5" x="51.57" y="-0.09" width="25.58" height="25.76" transform="translate(51.57 77.15) rotate(-90)"/><rect class="cls-1" x="25.81" y="-0.09" width="25.58" height="25.76" transform="translate(25.81 51.39) rotate(-90)"/><rect class="cls-6" x="0.09" y="-0.09" width="25.58" height="25.76" transform="translate(0.09 25.67) rotate(-90)"/><rect class="cls-7" x="133.92" y="65.63" width="76.4" height="3.98" transform="translate(344.25 135.23) rotate(-180)"/><rect class="cls-7" x="210.32" y="69.61" width="3.98" height="3.98" transform="translate(424.63 143.2) rotate(-180)"/><rect class="cls-7" x="201.96" y="85.93" width="28.67" height="3.98" transform="translate(128.37 304.22) rotate(-90)"/><rect class="cls-7" x="210.32" y="102.15" width="3.98" height="3.98" transform="translate(424.63 208.28) rotate(-180)"/><rect class="cls-7" x="129.94" y="69.66" width="3.98" height="3.98"/><rect class="cls-7" x="113.62" y="85.99" width="28.67" height="3.98" transform="translate(39.98 215.93) rotate(-90)"/><rect class="cls-7" x="129.94" y="102.2" width="3.98" height="3.98"/><rect class="cls-7" x="195.84" y="106.13" width="14.49" height="3.98" transform="translate(406.16 216.24) rotate(-180)"/><rect class="cls-7" x="156.42" y="106.13" width="40.01" height="3.98" transform="translate(352.85 216.24) rotate(-180)"/><rect class="cls-7" x="125.63" y="114.47" width="20.56" height="3.98" transform="translate(19.45 252.38) rotate(-90)"/><rect class="cls-7" x="133.94" y="122.77" width="10.75" height="3.98" transform="translate(278.62 249.51) rotate(-180)"/><rect class="cls-7" x="144.68" y="118.78" width="3.98" height="3.98" transform="translate(293.35 241.55) rotate(-180)"/><rect class="cls-7" x="152.65" y="106.18" width="3.98" height="8.62" transform="translate(309.27 220.99) rotate(-180)"/><rect class="cls-7" x="148.66" y="114.8" width="3.98" height="3.98" transform="translate(301.31 233.59) rotate(-180)"/><path class="cls-8" d="M152.31,85V75.49H148V73.91h10v1.58h-4.27V85Z"/><path class="cls-8" d="M159.55,85v-7.9H161v3.16h1.43v1.58H161V85Zm2.85-4.74V78.65h1.42v1.58Zm1.42-1.58V77.07h4.27v1.58Z"/><path class="cls-8" d="M169.64,81.81V77.07h1.42v4.74Zm0,4.74V85h5.69v1.58ZM175.33,85V83.39h-4.27V81.81h4.27V77.07h1.42V85Z"/><path class="cls-8" d="M148,100.14V97h1.42v3.16ZM149.46,97V93.82h1.43V95.4h4.26V93.82h1.43V97Zm1.43-3.16V90.66h1.42v3.16Zm1.42-3.16V89.08h1.42v1.58Zm1.42,3.16V90.66h1.42v3.16Zm2.85,6.32V97H158v3.16Z"/><path class="cls-8" d="M159.55,97V93.82H161V97Zm0,4.74v-1.58h7.11v1.58Zm7.11-1.58V98.56H161V97h5.69V93.82H161V92.24h7.12v7.9Z"/><path class="cls-8" d="M169.64,98.56V97h1.42v1.58Zm1.42-4.74V92.24h4.27v1.58Zm0,6.32V98.56h4.27V97h-4.27V95.4h4.27V93.82h1.42v4.74h1.42v1.58Z"/><path class="cls-8" d="M179.73,92.24V90.66h1.42v1.58Zm0,7.9V93.82h1.42v6.32Z"/><path class="cls-8" d="M182.71,100.14v-7.9h5.68v1.58h-4.26v6.32Zm5.68,0V93.82h1.43v6.32Z"/><path class="cls-7" d="M198.62,95.4V93.82H200V92.24h1.42V90.66h-2.84v1.58h-1.43v1.58h-2.84V90.66h1.42V89.08h8.53v1.58h1.43v1.58H204.3v1.58h-2.84V95.4Zm0,4.74V97h2.84v3.16Z"/><rect class="cls-7" x="65.45" y="83.26" width="21.95" height="11"/><rect class="cls-7" x="65.47" y="105.26" width="21.97" height="11"/><rect class="cls-7" x="65.45" y="105.26" width="11" height="11"/><rect class="cls-7" x="65.45" y="105.27" width="11" height="21.98"/><rect class="cls-7" x="76.45" y="83.26" width="11" height="11"/><rect class="cls-7" x="87.45" y="94.26" width="11" height="11"/><rect class="cls-7" x="98.45" y="105.26" width="11" height="11"/><rect class="cls-7" x="109.46" y="94.26" width="11" height="11"/><rect class="cls-7" x="153.47" y="127.27" width="11" height="11"/><rect class="cls-7" x="147.97" y="171.34" width="11" height="11"/><rect class="cls-7" x="120.46" y="127.27" width="11" height="11"/><rect class="cls-7" x="131.46" y="149.28" width="11" height="11"/><rect class="cls-7" x="120.46" y="160.28" width="11" height="11"/><rect class="cls-7" x="109.46" y="171.28" width="11" height="11"/><rect class="cls-7" x="87.45" y="171.28" width="11" height="11"/><rect class="cls-7" x="76.45" y="160.28" width="11" height="11"/><rect class="cls-7" x="65.45" y="149.28" width="11" height="11"/><rect class="cls-7" x="54.44" y="138.27" width="11" height="11"/><rect class="cls-7" x="43.44" y="127.27" width="11" height="11"/><rect class="cls-7" x="43.44" y="116.27" width="11" height="11.08"/><rect class="cls-7" x="43.44" y="105.26" width="11" height="33.05"/><rect class="cls-7" x="54.44" y="94.26" width="11" height="11"/><rect class="cls-7" x="98.45" y="182.28" width="11" height="11"/></g></g></svg>