<svg xmlns="http://www.w3.org/2000/svg" viewBox="0 0 249 230.51"><defs><style>.cls-1{fill:#f99f1d;}.cls-2{fill:#007f7f;}.cls-3{fill:#2b999a;}.cls-4{fill:#f06524;}.cls-5{fill:#ce2029;}.cls-6{fill:#ab1f24;}.cls-7{fill:#fff;}</style></defs><title>value_3</title><g id="Layer_2" data-name="Layer 2"><g id="ContactUs"><rect class="cls-1" y="25.51" width="249" height="205"/><rect class="cls-2" x="128.86" y="-0.09" width="25.58" height="25.76" transform="translate(128.86 154.44) rotate(-90)"/><rect class="cls-3" x="103.09" y="-0.09" width="25.58" height="25.76" transform="translate(103.09 128.68) rotate(-90)"/><rect class="cls-1" x="77.33" y="-0.09" width="25.58" height="25.76" transform="translate(77.33 102.92) rotate(-90)"/><rect class="cls-4" x="51.57" y="-0.09" width="25.58" height="25.76" transform="translate(51.57 77.15) rotate(-90)"/><rect class="cls-5" x="25.81" y="-0.09" width="25.58" height="25.76" transform="translate(25.81 51.39) rotate(-90)"/><rect class="cls-6" x="0.09" y="-0.09" width="25.58" height="25.76" transform="translate(0.09 25.67) rotate(-90)"/><path class="cls-7" d="M34.88,64.21l-.57,3.57a.92.92,0,0,1-.29.55.84.84,0,0,1-.56.18H33l.11-4.3Zm3.66,0L38,67.78a.92.92,0,0,1-.29.55.86.86,0,0,1-.56.18h-.49l.12-4.3Z"/><path class="cls-7" d="M45.12,78.63H40.93V64.21h4.19a13.62,13.62,0,0,1,3.51.37,4.69,4.69,0,0,1,2.08,1.17,4.87,4.87,0,0,1,1.14,2.18,14.52,14.52,0,0,1,.35,3.48q0,3.75-1.67,5.49C49.41,78.05,47.6,78.63,45.12,78.63Zm4.12-11.47a3,3,0,0,0-1.47-.9A10.08,10.08,0,0,0,45.12,66H42.89V76.79h2.23c1.9,0,3.22-.4,4-1.22s1.11-2.2,1.11-4.16A12.46,12.46,0,0,0,50,68.77,3.76,3.76,0,0,0,49.24,67.16Z"/><path class="cls-7" d="M64.71,72.93c0,2.15-.39,3.66-1.18,4.55s-2.14,1.34-4.06,1.34-3.35-.43-4.12-1.29-1.15-2.39-1.15-4.6.4-3.68,1.19-4.57S57.54,67,59.47,67s3.35.43,4.11,1.29S64.71,70.72,64.71,72.93Zm-8.62,0a5.65,5.65,0,0,0,.67,3.34,3.41,3.41,0,0,0,2.71.82,3.32,3.32,0,0,0,2.67-.86,5.61,5.61,0,0,0,.69-3.3,5.77,5.77,0,0,0-.66-3.35,3.39,3.39,0,0,0-2.7-.82,3.39,3.39,0,0,0-2.69.85A5.62,5.62,0,0,0,56.09,72.91Z"/><path class="cls-7" d="M69.11,78.63H67.22V67.27h1.64L69,68.38H69a6.6,6.6,0,0,1,1.92-1A7.39,7.39,0,0,1,73.18,67,4,4,0,0,1,76,68a3.68,3.68,0,0,1,1,2.79v7.86H75.13V71a2.1,2.1,0,0,0-.64-1.7,3,3,0,0,0-2-.56,5.67,5.67,0,0,0-1.69.27,7.59,7.59,0,0,0-1.71.77Z"/><path class="cls-7" d="M79.64,64.21h1.45v5.25H79.64Z"/><path class="cls-7" d="M90.47,76.86v1.59a4.06,4.06,0,0,1-1,.26,7.33,7.33,0,0,1-1.2.11,4,4,0,0,1-3-.92,4.55,4.55,0,0,1-.88-3.18V68.88H82.72V67.27h1.73l.3-2.76h1.56v2.76h4v1.61h-4v5.77a2.63,2.63,0,0,0,.52,1.91,2.57,2.57,0,0,0,1.83.51,7,7,0,0,0,1-.07C90,77,90.26,76.91,90.47,76.86Z"/><path class="cls-7" d="M108.25,67.27h2l-3.15,11.36h-2.21l-2.48-8.85-2.33,8.85h-2.2L94.77,67.27h2.07l2.21,9.59,2.46-9.59h1.89L106,76.86Z"/><path class="cls-7" d="M114.65,78.82a3.44,3.44,0,0,1-2.57-.84,3.73,3.73,0,0,1-.81-2.66,3.14,3.14,0,0,1,1-2.61,5.61,5.61,0,0,1,3.36-.77c.52,0,1,0,1.54.07a12,12,0,0,1,1.43.21V71.11a2.28,2.28,0,0,0-.64-1.81,3.16,3.16,0,0,0-2.08-.56c-.7,0-1.32,0-1.86.08a15,15,0,0,0-1.61.27V67.45a13.18,13.18,0,0,1,1.88-.32c.63-.06,1.36-.09,2.17-.09a4.23,4.23,0,0,1,3,1,4,4,0,0,1,1,3v7.68h-1.72l-.09-1h-.05a5.59,5.59,0,0,1-1.78.89A7.18,7.18,0,0,1,114.65,78.82Zm1.17-5.34a4.43,4.43,0,0,0-2.17.38,1.45,1.45,0,0,0-.61,1.35,1.86,1.86,0,0,0,.5,1.46,2.48,2.48,0,0,0,1.66.44,6.66,6.66,0,0,0,1.84-.27,5.13,5.13,0,0,0,1.54-.69V73.71c-.51-.08-1-.13-1.42-.17S116.28,73.48,115.82,73.48Z"/><path class="cls-7" d="M127.32,68.74a4.24,4.24,0,0,0-2,.35,1.53,1.53,0,0,0-.56,1.4,1.22,1.22,0,0,0,.26.84,1.43,1.43,0,0,0,.84.38l2.92.44a3,3,0,0,1,1.94.86,3.21,3.21,0,0,1,.55,2.06,3.76,3.76,0,0,1-.95,2.86,4.47,4.47,0,0,1-3.12.89,20.45,20.45,0,0,1-2.44-.14,10.86,10.86,0,0,1-1.86-.37V76.54a11.89,11.89,0,0,0,1.8.38,15.83,15.83,0,0,0,2.2.15,3.36,3.36,0,0,0,2-.41,1.77,1.77,0,0,0,.53-1.48,1.34,1.34,0,0,0-.3-1,1.88,1.88,0,0,0-1.08-.43L125,73.34a2.4,2.4,0,0,1-1.64-.85,3.33,3.33,0,0,1-.57-2,3.12,3.12,0,0,1,1.07-2.62,5.41,5.41,0,0,1,3.3-.83c.62,0,1.17,0,1.67,0s1,.09,1.58.18V69q-.6-.09-1.41-.15C128.51,68.76,127.93,68.74,127.32,68.74Z"/><path class="cls-7" d="M140.06,76.86v1.59a4.19,4.19,0,0,1-1,.26,7.35,7.35,0,0,1-1.21.11,4,4,0,0,1-2.95-.92,4.54,4.54,0,0,1-.89-3.18V68.88h-1.7V67.27H134l.3-2.76h1.57v2.76h4v1.61h-4v5.77a2.63,2.63,0,0,0,.52,1.91,2.55,2.55,0,0,0,1.82.51,7,7,0,0,0,1-.07C139.56,77,139.85,76.91,140.06,76.86Z"/><path class="cls-7" d="M150.32,76.43V78a6.58,6.58,0,0,1-1.76.57,11.67,11.67,0,0,1-2.36.24,4.72,4.72,0,0,1-3.82-1.38c-.77-.92-1.15-2.44-1.15-4.56a6.75,6.75,0,0,1,1.2-4.45A4.81,4.81,0,0,1,146.25,67a4.74,4.74,0,0,1,3.49,1.09,5.14,5.14,0,0,1,1.06,3.65c0,.31,0,.59,0,.85s-.05.57-.09.94h-7.55a4,4,0,0,0,.77,2.69,3.42,3.42,0,0,0,2.59.81,12.6,12.6,0,0,0,2.07-.18A9.25,9.25,0,0,0,150.32,76.43Zm-1.24-4.9a2.39,2.39,0,0,0-2.83-2.79,3.25,3.25,0,0,0-2.41.73,3.61,3.61,0,0,0-.7,2.54h5.91s0-.1,0-.22S149.08,71.59,149.08,71.53Z"/><path class="cls-7" d="M157.72,80.66a2,2,0,0,0,1.33-.38,4.68,4.68,0,0,0,.95-1.81l-4.64-11.2h2.11l3.5,9.32,3.31-9.32h2l-4.64,12.12a5.25,5.25,0,0,1-1.45,2.31,3.33,3.33,0,0,1-2.14.66,8,8,0,0,1-.82,0l-.84-.11V80.54a2.43,2.43,0,0,0,.57.09C157.18,80.65,157.43,80.66,157.72,80.66Z"/><path class="cls-7" d="M177.83,72.93c0,2.15-.4,3.66-1.19,4.55s-2.14,1.34-4.06,1.34-3.35-.43-4.12-1.29-1.14-2.39-1.14-4.6.39-3.68,1.18-4.57S170.65,67,172.58,67s3.35.43,4.11,1.29S177.83,70.72,177.83,72.93Zm-8.63,0a5.65,5.65,0,0,0,.67,3.34,3.41,3.41,0,0,0,2.71.82,3.32,3.32,0,0,0,2.67-.86,5.61,5.61,0,0,0,.69-3.3,5.77,5.77,0,0,0-.66-3.35,4.77,4.77,0,0,0-5.39,0A5.62,5.62,0,0,0,169.2,72.91Z"/><path class="cls-7" d="M184,78.82a3.85,3.85,0,0,1-2.83-.95,3.81,3.81,0,0,1-.94-2.82V67.27h1.89v7.55a2.2,2.2,0,0,0,.59,1.7,2.82,2.82,0,0,0,1.89.53,6.64,6.64,0,0,0,1.58-.2,7.1,7.1,0,0,0,1.59-.61v-9h1.89V78.63H188l-.1-.94h0a11.48,11.48,0,0,1-2.07.87A6.21,6.21,0,0,1,184,78.82Z"/><path class="cls-7" d="M194.59,78.63h-1.88V67.27h1.72l.1,1h.09a7.64,7.64,0,0,1,1.79-.8,6.48,6.48,0,0,1,1.77-.26h.5l.19,0V69a2,2,0,0,0-.4-.06h-.75a6.78,6.78,0,0,0-1.62.2,6.29,6.29,0,0,0-1.51.58Z"/><path class="cls-7" d="M35.32,99.34v15.29H33.44V99.34Z"/><path class="cls-7" d="M48.34,108.93c0,2.15-.39,3.66-1.18,4.55s-2.15,1.34-4.06,1.34-3.35-.43-4.12-1.29-1.15-2.39-1.15-4.6.39-3.68,1.18-4.57S41.16,103,43.1,103s3.34.43,4.1,1.29S48.34,106.72,48.34,108.93Zm-8.63,0a5.73,5.73,0,0,0,.67,3.34,3.43,3.43,0,0,0,2.72.82,3.31,3.31,0,0,0,2.66-.86,5.61,5.61,0,0,0,.69-3.3,5.78,5.78,0,0,0-.65-3.35,3.42,3.42,0,0,0-2.7-.82,3.36,3.36,0,0,0-2.69.85A5.6,5.6,0,0,0,39.71,108.91Z"/><path class="cls-7" d="M58.18,103.27h2.07l-4.37,11.36H53.72l-4.37-11.36h2.1l3.38,9.64Z"/><path class="cls-7" d="M70.3,112.43V114a6.34,6.34,0,0,1-1.76.57,11.5,11.5,0,0,1-2.35.24,4.72,4.72,0,0,1-3.82-1.38c-.77-.92-1.15-2.44-1.15-4.56a6.75,6.75,0,0,1,1.2-4.45A4.78,4.78,0,0,1,66.23,103a4.75,4.75,0,0,1,3.5,1.09,5.14,5.14,0,0,1,1.06,3.65c0,.31,0,.59,0,.85s0,.57-.1.94H63.13a3.93,3.93,0,0,0,.77,2.69,3.42,3.42,0,0,0,2.59.81,12.6,12.6,0,0,0,2.07-.18A8.92,8.92,0,0,0,70.3,112.43Zm-1.24-4.9a2.38,2.38,0,0,0-2.83-2.79,3.24,3.24,0,0,0-2.4.73,3.61,3.61,0,0,0-.7,2.54H69s0-.1,0-.22S69.06,107.59,69.06,107.53Z"/><path class="cls-7" d="M87.14,108.93c0,2.15-.39,3.66-1.18,4.55s-2.15,1.34-4.06,1.34-3.35-.43-4.12-1.29-1.15-2.39-1.15-4.6.4-3.68,1.18-4.57S80,103,81.9,103s3.34.43,4.1,1.29S87.14,106.72,87.14,108.93Zm-8.62,0a5.75,5.75,0,0,0,.66,3.34,3.43,3.43,0,0,0,2.72.82,3.29,3.29,0,0,0,2.66-.86,5.52,5.52,0,0,0,.7-3.3,5.77,5.77,0,0,0-.66-3.35,3.42,3.42,0,0,0-2.7-.82,3.37,3.37,0,0,0-2.69.85A5.62,5.62,0,0,0,78.52,108.91Z"/><path class="cls-7" d="M91.53,114.63H89.65V103.27h1.63l.09,1.11h.07a6.73,6.73,0,0,1,1.92-1,7.5,7.5,0,0,1,2.25-.32,4,4,0,0,1,2.86.94,3.72,3.72,0,0,1,1,2.79v7.86H97.56V107a2.1,2.1,0,0,0-.64-1.7,3,3,0,0,0-2-.56,5.62,5.62,0,0,0-1.69.27,7.46,7.46,0,0,0-1.72.77Z"/><path class="cls-7" d="M110.23,104.74a4.17,4.17,0,0,0-2,.35,1.51,1.51,0,0,0-.57,1.4,1.18,1.18,0,0,0,.27.84,1.38,1.38,0,0,0,.84.38l2.92.44a3,3,0,0,1,1.93.86,3.15,3.15,0,0,1,.55,2.06,3.76,3.76,0,0,1-.94,2.86,4.5,4.5,0,0,1-3.13.89,20.58,20.58,0,0,1-2.44-.14,10.86,10.86,0,0,1-1.86-.37v-1.77a11.78,11.78,0,0,0,1.81.38,15.69,15.69,0,0,0,2.19.15,3.42,3.42,0,0,0,2-.41,1.8,1.8,0,0,0,.53-1.48,1.34,1.34,0,0,0-.3-1,1.88,1.88,0,0,0-1.08-.43l-2.93-.44a2.4,2.4,0,0,1-1.64-.85,3.26,3.26,0,0,1-.56-2,3.09,3.09,0,0,1,1.07-2.62,5.37,5.37,0,0,1,3.3-.83c.61,0,1.17,0,1.66,0a15.62,15.62,0,0,1,1.58.18V105c-.4-.06-.87-.11-1.4-.15S110.85,104.74,110.23,104.74Z"/><path class="cls-7" d="M126.4,108.93c0,2.15-.39,3.66-1.18,4.55s-2.15,1.34-4.06,1.34-3.35-.43-4.12-1.29-1.15-2.39-1.15-4.6.39-3.68,1.18-4.57,2.15-1.32,4.09-1.32,3.34.43,4.1,1.29S126.4,106.72,126.4,108.93Zm-8.62,0a5.75,5.75,0,0,0,.66,3.34,3.43,3.43,0,0,0,2.72.82,3.31,3.31,0,0,0,2.66-.86,5.59,5.59,0,0,0,.7-3.3,5.77,5.77,0,0,0-.66-3.35,3.42,3.42,0,0,0-2.7-.82,3.37,3.37,0,0,0-2.69.85A5.62,5.62,0,0,0,117.78,108.91Z"/><path class="cls-7" d="M130.79,114.63h-1.88V103.27h1.72l.09.88h.07a9.3,9.3,0,0,1,1.84-.84,5.39,5.39,0,0,1,1.66-.27,4.17,4.17,0,0,1,1.66.3,2.39,2.39,0,0,1,1.08.9h.07a7.91,7.91,0,0,1,1.94-.89,7,7,0,0,1,2.06-.31,3.31,3.31,0,0,1,2.47.86,3.52,3.52,0,0,1,.84,2.54v8.19h-1.89v-7.95a1.9,1.9,0,0,0-.52-1.47,2.53,2.53,0,0,0-1.68-.47,5.15,5.15,0,0,0-1.36.2,7.69,7.69,0,0,0-1.43.56,3.87,3.87,0,0,1,.06.46c0,.16,0,.32,0,.48v8.19h-1.88v-7.95a1.9,1.9,0,0,0-.53-1.47,2.52,2.52,0,0,0-1.68-.47,4.2,4.2,0,0,0-1.22.2,8.83,8.83,0,0,0-1.5.65Z"/><path class="cls-7" d="M155.89,112.43V114a6.58,6.58,0,0,1-1.76.57,11.67,11.67,0,0,1-2.36.24,4.72,4.72,0,0,1-3.82-1.38c-.77-.92-1.15-2.44-1.15-4.56a6.75,6.75,0,0,1,1.2-4.45,4.79,4.79,0,0,1,3.82-1.39,4.74,4.74,0,0,1,3.49,1.09,5.14,5.14,0,0,1,1.06,3.65c0,.31,0,.59,0,.85s0,.57-.1.94h-7.54a3.93,3.93,0,0,0,.77,2.69,3.42,3.42,0,0,0,2.59.81,12.6,12.6,0,0,0,2.07-.18A9.25,9.25,0,0,0,155.89,112.43Zm-1.25-4.9a2.38,2.38,0,0,0-2.82-2.79,3.25,3.25,0,0,0-2.41.73,3.61,3.61,0,0,0-.7,2.54h5.91s0-.1,0-.22S154.64,107.59,154.64,107.53Z"/><path class="cls-7" d="M164.42,103a3.83,3.83,0,0,1,3.32,1.37,7.69,7.69,0,0,1,1,4.47c0,2.12-.41,3.64-1.24,4.56s-2.22,1.38-4.16,1.38a18.9,18.9,0,0,1-2.46-.15,12.1,12.1,0,0,1-2.1-.45V99.34h1.89v4.71a7,7,0,0,1,1.77-.74A7.33,7.33,0,0,1,164.42,103Zm2.44,5.84a5.79,5.79,0,0,0-.66-3.23,2.84,2.84,0,0,0-2.45-.91,6.46,6.46,0,0,0-1.63.22,5.75,5.75,0,0,0-1.45.61v7.2a9.83,9.83,0,0,0,1.15.22,12.15,12.15,0,0,0,1.4.08,3.65,3.65,0,0,0,2.89-.9A5.29,5.29,0,0,0,166.86,108.88Z"/><path class="cls-7" d="M181.21,108.93c0,2.15-.4,3.66-1.18,4.55s-2.15,1.34-4.07,1.34-3.35-.43-4.11-1.29-1.15-2.39-1.15-4.6.39-3.68,1.18-4.57S174,103,176,103s3.35.43,4.11,1.29S181.21,106.72,181.21,108.93Zm-8.63,0a5.73,5.73,0,0,0,.67,3.34,3.42,3.42,0,0,0,2.71.82,3.32,3.32,0,0,0,2.67-.86,5.61,5.61,0,0,0,.69-3.3,5.78,5.78,0,0,0-.65-3.35,3.43,3.43,0,0,0-2.71-.82,3.35,3.35,0,0,0-2.68.85A5.53,5.53,0,0,0,172.58,108.91Z"/><path class="cls-7" d="M191.24,99.34h1.88v15.29h-1.63l-.14-1h0a4.47,4.47,0,0,1-1.62.93,7.35,7.35,0,0,1-2.2.31,3.81,3.81,0,0,1-3.32-1.38,7.8,7.8,0,0,1-1-4.51c0-2.09.41-3.59,1.22-4.51a5.21,5.21,0,0,1,4.07-1.38,8,8,0,0,1,1.51.13,6.63,6.63,0,0,1,1.28.35Zm-2.55,5.4a3.65,3.65,0,0,0-2.89.9,5.31,5.31,0,0,0-.75,3.29,5.74,5.74,0,0,0,.66,3.23,2.82,2.82,0,0,0,2.45.91,5.88,5.88,0,0,0,1.63-.22,5.14,5.14,0,0,0,1.45-.66v-7a5.56,5.56,0,0,0-1.18-.34A7.2,7.2,0,0,0,188.69,104.74Z"/><path class="cls-7" d="M197.19,116.66a2,2,0,0,0,1.33-.38,4.68,4.68,0,0,0,.95-1.81l-4.65-11.2h2.12l3.5,9.32,3.31-9.32h2l-4.64,12.12a5.25,5.25,0,0,1-1.45,2.31,3.33,3.33,0,0,1-2.14.66,8,8,0,0,1-.82,0l-.84-.11v-1.66a2.43,2.43,0,0,0,.57.09C196.65,116.65,196.9,116.66,197.19,116.66Z"/><path class="cls-7" d="M207.91,112.66l-.57,3.56a.78.78,0,0,1-.27.53.84.84,0,0,1-.56.18h-.6l.12-4.27Z"/><path class="cls-7" d="M45.79,139.27h2l-3.15,11.36H42.47L40,141.78l-2.32,8.85H35.46l-3.15-11.36h2.07l2.21,9.59,2.46-9.59h1.88l2.63,9.59Z"/><path class="cls-7" d="M51.63,150.63H49.74V135.34h1.89v4.85a9.71,9.71,0,0,1,2.06-.86,7.54,7.54,0,0,1,2-.29,3.9,3.9,0,0,1,2.84.94,3.75,3.75,0,0,1,1,2.79v7.86H57.63V143a2.18,2.18,0,0,0-.61-1.72,2.82,2.82,0,0,0-1.9-.54,7.4,7.4,0,0,0-1.76.23,8.79,8.79,0,0,0-1.73.65Z"/><path class="cls-7" d="M72.44,144.93c0,2.15-.39,3.66-1.18,4.55s-2.14,1.34-4.06,1.34-3.35-.43-4.12-1.29-1.15-2.39-1.15-4.6.4-3.68,1.19-4.57S65.27,139,67.2,139s3.35.43,4.1,1.29S72.44,142.72,72.44,144.93Zm-8.62,0a5.65,5.65,0,0,0,.67,3.34c.44.55,1.34.82,2.71.82a3.32,3.32,0,0,0,2.67-.86,5.61,5.61,0,0,0,.69-3.3,5.77,5.77,0,0,0-.66-3.35,3.42,3.42,0,0,0-2.7-.82,3.37,3.37,0,0,0-2.69.85A5.62,5.62,0,0,0,63.82,144.91Z"/><path class="cls-7" d="M86.4,135.34h1.89v15.29H86.66l-.14-1h0a4.31,4.31,0,0,1-1.62.93,7.33,7.33,0,0,1-2.19.31,3.84,3.84,0,0,1-3.33-1.38,7.89,7.89,0,0,1-1-4.51c0-2.09.41-3.59,1.22-4.51S81.72,139,83.62,139a8,8,0,0,1,1.51.13,6.34,6.34,0,0,1,1.27.35Zm-2.55,5.4a3.67,3.67,0,0,0-2.89.9,5.39,5.39,0,0,0-.74,3.29,5.84,5.84,0,0,0,.65,3.23,2.84,2.84,0,0,0,2.45.91,5.83,5.83,0,0,0,1.63-.22,4.9,4.9,0,0,0,1.45-.66v-7a5.3,5.3,0,0,0-1.17-.34A7.24,7.24,0,0,0,83.85,140.74Z"/><path class="cls-7" d="M101.31,144.93c0,2.15-.4,3.66-1.19,4.55s-2.14,1.34-4.06,1.34-3.35-.43-4.11-1.29-1.15-2.39-1.15-4.6.39-3.68,1.18-4.57S94.13,139,96.06,139s3.35.43,4.11,1.29S101.31,142.72,101.31,144.93Zm-8.63,0a5.65,5.65,0,0,0,.67,3.34,3.41,3.41,0,0,0,2.71.82,3.32,3.32,0,0,0,2.67-.86,5.61,5.61,0,0,0,.69-3.3,5.87,5.87,0,0,0-.65-3.35,3.43,3.43,0,0,0-2.71-.82,3.39,3.39,0,0,0-2.69.85A5.62,5.62,0,0,0,92.68,144.91Z"/><path class="cls-7" d="M112.35,148.43V150a6.58,6.58,0,0,1-1.76.57,11.67,11.67,0,0,1-2.36.24,4.72,4.72,0,0,1-3.82-1.38,7.18,7.18,0,0,1-1.15-4.56,6.75,6.75,0,0,1,1.2-4.45,4.81,4.81,0,0,1,3.82-1.39,4.74,4.74,0,0,1,3.49,1.09,5.14,5.14,0,0,1,1.06,3.65c0,.31,0,.59,0,.85s0,.57-.09.94h-7.55a4,4,0,0,0,.77,2.69,3.42,3.42,0,0,0,2.59.81,12.6,12.6,0,0,0,2.07-.18A9.25,9.25,0,0,0,112.35,148.43Zm-1.24-4.9a2.39,2.39,0,0,0-2.83-2.79,3.25,3.25,0,0,0-2.41.73,3.66,3.66,0,0,0-.7,2.54h5.91s0-.1,0-.22S111.11,143.59,111.11,143.53Z"/><path class="cls-7" d="M119.18,140.74a4.24,4.24,0,0,0-2,.35,1.53,1.53,0,0,0-.56,1.4,1.18,1.18,0,0,0,.27.84,1.37,1.37,0,0,0,.83.38l2.93.44a3,3,0,0,1,1.93.86,3.15,3.15,0,0,1,.55,2.06,3.76,3.76,0,0,1-.94,2.86,4.52,4.52,0,0,1-3.13.89,20.45,20.45,0,0,1-2.44-.14,10.86,10.86,0,0,1-1.86-.37v-1.77a11.89,11.89,0,0,0,1.8.38,15.94,15.94,0,0,0,2.2.15,3.36,3.36,0,0,0,2-.41,1.77,1.77,0,0,0,.53-1.48,1.34,1.34,0,0,0-.3-1,1.88,1.88,0,0,0-1.08-.43l-2.92-.44a2.4,2.4,0,0,1-1.64-.85,3.26,3.26,0,0,1-.56-2,3.11,3.11,0,0,1,1.06-2.62,5.41,5.41,0,0,1,3.3-.83c.62,0,1.17,0,1.67.05a15.62,15.62,0,0,1,1.58.18V141q-.6-.09-1.41-.15C120.37,140.76,119.79,140.74,119.18,140.74Z"/><path class="cls-7" d="M127.25,150.63h-1.89V139.27H127l.09,1.11h.07a6.6,6.6,0,0,1,1.92-1,7.48,7.48,0,0,1,2.24-.32,4,4,0,0,1,2.87.94,3.71,3.71,0,0,1,1,2.79v7.86h-1.88V143a2.1,2.1,0,0,0-.65-1.7,3,3,0,0,0-2-.56,5.69,5.69,0,0,0-1.7.27,7.59,7.59,0,0,0-1.71.77Z"/><path class="cls-7" d="M137.78,136.21h1.45v5.25h-1.45Z"/><path class="cls-7" d="M148.62,148.86v1.59a4.33,4.33,0,0,1-1,.26,7.45,7.45,0,0,1-1.21.11,4,4,0,0,1-3-.92,4.55,4.55,0,0,1-.88-3.18v-5.84h-1.7v-1.61h1.72l.3-2.76h1.56v2.76h4.05v1.61h-4.05v5.77a2.68,2.68,0,0,0,.52,1.91,2.6,2.6,0,0,0,1.83.51,7.1,7.1,0,0,0,1-.07C148.11,149,148.4,148.91,148.62,148.86Z"/><path class="cls-7" d="M41,175.27h2.07l-4.37,11.36H36.52l-4.37-11.36h2.09l3.38,9.64Z"/><path class="cls-7" d="M47.17,186.82A3.46,3.46,0,0,1,44.6,186a3.73,3.73,0,0,1-.82-2.66,3.09,3.09,0,0,1,1-2.61,5.56,5.56,0,0,1,3.35-.77c.52,0,1,0,1.54.07a12,12,0,0,1,1.43.21v-1.11a2.25,2.25,0,0,0-.65-1.81,3.09,3.09,0,0,0-2.06-.56c-.71,0-1.33,0-1.87.08a15.45,15.45,0,0,0-1.61.27v-1.64a13.18,13.18,0,0,1,1.88-.32c.63-.06,1.36-.09,2.17-.09a4.22,4.22,0,0,1,3,1A3.92,3.92,0,0,1,53,179v7.68H51.26l-.09-1h-.05a5.59,5.59,0,0,1-1.78.89A7.18,7.18,0,0,1,47.17,186.82Zm1.17-5.34a4.43,4.43,0,0,0-2.17.38,1.45,1.45,0,0,0-.61,1.35,1.86,1.86,0,0,0,.5,1.46,2.48,2.48,0,0,0,1.66.44,6.66,6.66,0,0,0,1.84-.27,5.13,5.13,0,0,0,1.54-.69v-2.44c-.51-.08-1-.13-1.41-.17S48.8,181.48,48.34,181.48Z"/><path class="cls-7" d="M57.82,171.34v15.29H55.93V171.34Z"/><path class="cls-7" d="M64.53,186.82a3.34,3.34,0,0,1-3.77-3.77v-7.78h1.88v7.55a2.17,2.17,0,0,0,.6,1.7,2.82,2.82,0,0,0,1.89.53,6.5,6.5,0,0,0,1.57-.2,7,7,0,0,0,1.6-.61v-9h1.89v11.36H68.46l-.09-.94h0a11.48,11.48,0,0,1-2.07.87A6.21,6.21,0,0,1,64.53,186.82Z"/><path class="cls-7" d="M81.76,184.43V186a6.58,6.58,0,0,1-1.76.57,11.67,11.67,0,0,1-2.36.24,4.72,4.72,0,0,1-3.82-1.38,7.18,7.18,0,0,1-1.15-4.56,6.75,6.75,0,0,1,1.2-4.45A4.81,4.81,0,0,1,77.69,175a4.74,4.74,0,0,1,3.49,1.09,5.14,5.14,0,0,1,1.06,3.65c0,.31,0,.59,0,.85s0,.57-.09.94H74.58a4,4,0,0,0,.77,2.69,3.42,3.42,0,0,0,2.59.81,12.6,12.6,0,0,0,2.07-.18A9.25,9.25,0,0,0,81.76,184.43Zm-1.24-4.9a2.39,2.39,0,0,0-2.83-2.79,3.25,3.25,0,0,0-2.41.73,3.66,3.66,0,0,0-.7,2.54h5.91s0-.1,0-.22S80.52,179.59,80.52,179.53Z"/><path class="cls-7" d="M90.57,173.29h-2v-1.95h2Zm-.07,13.34H88.61V175.27H90.5Z"/><path class="cls-7" d="M100.2,184.86v1.59a4.19,4.19,0,0,1-1,.26,7.33,7.33,0,0,1-1.2.11,4,4,0,0,1-3-.92,4.54,4.54,0,0,1-.89-3.18v-5.84h-1.7v-1.61h1.73l.3-2.76H96v2.76h4v1.61H96v5.77a2.63,2.63,0,0,0,.52,1.91,2.57,2.57,0,0,0,1.83.51,7,7,0,0,0,1-.07C99.7,185,100,184.91,100.2,184.86Z"/><path class="cls-7" d="M103.49,186.63h-1.88v-1.91h1.88Z"/><path class="cls-7" d="M105.68,172.21l-.58,3.57a.87.87,0,0,1-.29.55.84.84,0,0,1-.56.18h-.48l.11-4.3Zm3.65,0-.57,3.57a.92.92,0,0,1-.29.55.84.84,0,0,1-.56.18h-.48l.11-4.3Z"/></g></g></svg>